<?xml version="1.0" encoding="utf-8"?>
<!-- Generator: Adobe Illustrator 18.1.1, SVG Export Plug-In . SVG Version: 6.00 Build 0)  -->
<!DOCTYPE svg PUBLIC "-//W3C//DTD SVG 1.1//EN" "http://www.w3.org/Graphics/SVG/1.1/DTD/svg11.dtd">
<svg version="1.1" id="Layer_1" xmlns="http://www.w3.org/2000/svg" xmlns:xlink="http://www.w3.org/1999/xlink" x="0px" y="0px"
	 viewBox="0 0 547.7 95.9" enable-background="new 0 0 547.7 95.9" xml:space="preserve">
<g>
	<g>
		<g opacity="0.3">
			<path fill="#69643C" d="M131.5,94.5c-1.5,1.4-3.2,2.1-5.2,2.1c-2.1,0-3.9-0.7-5.4-2.2c-1.5-1.5-2.2-3.3-2.2-5.4
				c0-2.1,0.7-3.9,2.2-5.4c1.5-1.5,3.3-2.2,5.4-2.2c2,0,3.7,0.7,5.3,2.2l-1,0.9c-1.3-1.1-2.7-1.7-4.3-1.7c-1.7,0-3.2,0.6-4.5,1.8
				c-1.2,1.2-1.8,2.7-1.8,4.5c0,1.7,0.6,3.2,1.8,4.5c1.2,1.2,2.7,1.8,4.5,1.8c1.5,0,2.8-0.4,3.9-1.3v-4.5h1.3V94.5z M151.8,83.6
				c1.5,1.5,2.2,3.3,2.2,5.4c0,2.1-0.7,3.9-2.2,5.4c-1.5,1.5-3.3,2.2-5.4,2.2c-2.1,0-3.9-0.7-5.4-2.2c-1.5-1.5-2.2-3.3-2.2-5.4
				c0-2.1,0.7-3.9,2.2-5.4c1.5-1.5,3.3-2.2,5.4-2.2C148.5,81.3,150.3,82.1,151.8,83.6z M146.4,82.6c-1.7,0-3.2,0.6-4.5,1.9
				c-1.2,1.2-1.9,2.7-1.9,4.5c0,1.7,0.6,3.2,1.9,4.5c1.2,1.2,2.7,1.9,4.5,1.9c1.7,0,3.2-0.6,4.5-1.9c1.2-1.2,1.9-2.7,1.9-4.5
				c0-1.7-0.6-3.2-1.9-4.5C149.6,83.2,148.2,82.6,146.4,82.6z M170.1,81.5h1.3v10.6c-0.2,1.2-0.6,2.2-1.4,3c-1,1-2.1,1.5-3.5,1.5
				c-1.4,0-2.5-0.5-3.5-1.4c-1-1-1.4-2.1-1.4-3.5V81.5h1.3v10.1c0,1,0.4,1.9,1.1,2.6c0.7,0.7,1.6,1.1,2.6,1.1c1,0,1.9-0.4,2.6-1.1
				c0.7-0.7,1.1-1.6,1.1-2.6V81.5z M183.1,91.4h-2.3v5h-1.3V81.5h4c1.2,0.2,2.1,0.6,3,1.4c1,1,1.5,2.1,1.5,3.5
				c0,1.4-0.5,2.5-1.5,3.5c-0.7,0.7-1.3,1.1-2,1.2l3.4,5.2h-1.6L183.1,91.4z M180.8,82.8v7.3h2.2c1,0,1.9-0.4,2.6-1.1
				c0.7-0.7,1.1-1.6,1.1-2.6c0-1-0.4-1.9-1.1-2.6c-0.7-0.7-1.6-1.1-2.6-1.1H180.8z M201.9,92.1l6.6-11.5v15.8h-1.3v-11l-5.3,9.2
				l-5.3-9.2v10.9h-1.3V80.6L201.9,92.1z M224.1,81.5v1.3h-6.4v5.5h6.4v1.3h-6.4v5.5h6.4v1.3h-7.7V81.5H224.1z M236.2,82.8v13.6
				h-1.3V82.8h-3.7v-1.3h8.6v1.3H236.2z M261.5,95.9V81h1.3v13.6h5.5v1.3H261.5z M284.2,81h1.3v10.6c-0.2,1.2-0.6,2.2-1.4,3
				c-1,1-2.1,1.5-3.5,1.5c-1.4,0-2.5-0.5-3.5-1.4c-1-1-1.4-2.1-1.4-3.5V81h1.3v10.1c0,1,0.4,1.9,1.1,2.6c0.7,0.7,1.6,1.1,2.6,1.1
				c1,0,1.9-0.4,2.6-1.1c0.7-0.7,1.1-1.6,1.1-2.6V81z M302.4,92.6V81h1.3v15.7l-8.8-12.4v11.6h-1.3V80.3L302.4,92.6z M323.2,93.1
				l1,0.9c-1.6,1.4-3.4,2.2-5.3,2.2c-2.1,0-3.9-0.7-5.4-2.2c-1.5-1.5-2.2-3.3-2.2-5.4c0-2.1,0.7-3.9,2.2-5.4
				c1.5-1.5,3.3-2.2,5.4-2.2c2,0,3.7,0.7,5.3,2.2l-1,0.9c-1.3-1.1-2.7-1.7-4.3-1.7c-1.7,0-3.2,0.6-4.5,1.8c-1.2,1.2-1.8,2.7-1.8,4.5
				c0,1.7,0.6,3.2,1.8,4.5c1.2,1.2,2.7,1.8,4.5,1.8C320.5,94.8,321.9,94.2,323.2,93.1z M332.8,89.1v6.8h-1.3V81h1.3v6.8h6.9V81h1.3
				v14.9h-1.3v-6.8H332.8z M355.6,86.5c0.3,0.1,0.7,0.5,1.2,0.9c1,1,1.4,2.1,1.4,3.5c0,1.4-0.5,2.5-1.4,3.5c-0.8,0.8-1.8,1.3-3,1.4
				h-4.9V81h4.5c0.9,0,1.6,0.3,2.3,0.9c0.6,0.6,0.9,1.4,0.9,2.3c0,0.9-0.3,1.6-0.9,2.3l0,0C355.7,86.5,355.7,86.5,355.6,86.5z
				 M350.2,82.3V86h3.4c0.5-0.1,0.9-0.2,1.2-0.5c0.4-0.4,0.6-0.8,0.6-1.3c0-0.5-0.2-1-0.6-1.3c-0.4-0.4-0.8-0.6-1.3-0.6H350.2z
				 M353.3,94.6c1,0,1.9-0.4,2.6-1.1c0.7-0.7,1.1-1.6,1.1-2.6c0-1-0.4-1.9-1.1-2.6c-0.7-0.7-1.6-1.1-2.6-1.1h-3.1v7.3H353.3z
				 M378.1,83.1c1.5,1.5,2.2,3.3,2.2,5.4c0,2.1-0.7,3.9-2.2,5.4c-1.5,1.5-3.3,2.2-5.4,2.2c-2.1,0-3.9-0.7-5.4-2.2
				c-1.5-1.5-2.2-3.3-2.2-5.4c0-2.1,0.7-3.9,2.2-5.4c1.5-1.5,3.3-2.2,5.4-2.2C374.8,80.8,376.6,81.6,378.1,83.1z M372.7,82.1
				c-1.7,0-3.2,0.6-4.5,1.9c-1.2,1.2-1.9,2.7-1.9,4.5c0,1.7,0.6,3.2,1.9,4.5c1.2,1.2,2.7,1.9,4.5,1.9c1.7,0,3.2-0.6,4.5-1.9
				c1.2-1.2,1.9-2.7,1.9-4.5c0-1.7-0.6-3.2-1.9-4.5C376,82.8,374.5,82.1,372.7,82.1z M386.8,95.9l4.7-8.2l-3.9-6.7h1.5l3.1,5.4
				l3.2-5.4h1.5l-3.9,6.7l4.7,8.2h-1.5l-4-6.9l-4,6.9H386.8z M412.5,81v1.3h-6.4v5.5h6.4v1.3h-6.4v5.5h6.4v1.3h-7.7V81H412.5z
				 M424.6,87.9c-1.1-0.4-1.9-0.8-2.5-1.5c-0.6-0.6-1-1.4-1-2.3c0-0.9,0.3-1.7,1-2.3c0.6-0.6,1.4-1,2.3-1c0.9,0,1.7,0.3,2.3,1
				c0.4,0.3,0.6,0.8,0.8,1.4l-1.2,0.5c-0.2-0.4-0.3-0.7-0.6-0.9c-0.4-0.4-0.9-0.6-1.4-0.6c-0.6,0-1,0.2-1.4,0.6s-0.6,0.9-0.6,1.4
				c0,0.6,0.2,1,0.6,1.4c0.4,0.4,0.9,0.7,1.6,1c1.2,0.4,2.2,1,3,1.8c0.9,0.9,1.3,1.9,1.3,3.2c0,1.3-0.4,2.3-1.3,3.2
				c-0.9,0.9-1.9,1.3-3.2,1.3c-1.3,0-2.3-0.4-3.2-1.3c-0.7-0.7-1.1-1.6-1.3-2.7l1.2-0.4c0.1,0.9,0.4,1.7,1,2.2
				c0.6,0.6,1.4,0.9,2.3,0.9c0.9,0,1.7-0.3,2.3-0.9c0.6-0.6,0.9-1.4,0.9-2.3c0-0.9-0.3-1.6-0.9-2.3
				C426.1,88.7,425.4,88.3,424.6,87.9z"/>
		</g>
		<g>
			<linearGradient id="SVGID_1_" gradientUnits="userSpaceOnUse" x1="165.8423" y1="-19.896" x2="375.0348" y2="189.2966">
				<stop  offset="0" style="stop-color:#FFE274"/>
				<stop  offset="1" style="stop-color:#A78D46"/>
			</linearGradient>
			<path fill="url(#SVGID_1_)" d="M131,94c-1.5,1.4-3.2,2.1-5.2,2.1c-2.1,0-3.9-0.7-5.4-2.2c-1.5-1.5-2.2-3.3-2.2-5.4
				c0-2.1,0.7-3.9,2.2-5.4c1.5-1.5,3.3-2.2,5.4-2.2c2,0,3.7,0.7,5.3,2.2l-1,0.9c-1.3-1.1-2.7-1.7-4.3-1.7c-1.7,0-3.2,0.6-4.5,1.8
				c-1.2,1.2-1.8,2.7-1.8,4.5c0,1.7,0.6,3.2,1.8,4.5c1.2,1.2,2.7,1.8,4.5,1.8c1.5,0,2.8-0.4,3.9-1.3V89h1.3V94z M151.3,83.1
				c1.5,1.5,2.2,3.3,2.2,5.4c0,2.1-0.7,3.9-2.2,5.4c-1.5,1.5-3.3,2.2-5.4,2.2c-2.1,0-3.9-0.7-5.4-2.2c-1.5-1.5-2.2-3.3-2.2-5.4
				c0-2.1,0.7-3.9,2.2-5.4c1.5-1.5,3.3-2.2,5.4-2.2C148,80.8,149.8,81.6,151.3,83.1z M145.9,82.1c-1.7,0-3.2,0.6-4.5,1.9
				c-1.2,1.2-1.9,2.7-1.9,4.5c0,1.7,0.6,3.2,1.9,4.5c1.2,1.2,2.7,1.9,4.5,1.9c1.7,0,3.2-0.6,4.5-1.9c1.2-1.2,1.9-2.7,1.9-4.5
				c0-1.7-0.6-3.2-1.9-4.5C149.1,82.7,147.7,82.1,145.9,82.1z M169.6,81h1.3v10.6c-0.2,1.2-0.6,2.2-1.4,3c-1,1-2.1,1.5-3.5,1.5
				c-1.4,0-2.5-0.5-3.5-1.4c-1-1-1.4-2.1-1.4-3.5V81h1.3v10.1c0,1,0.4,1.9,1.1,2.6c0.7,0.7,1.6,1.1,2.6,1.1c1,0,1.9-0.4,2.6-1.1
				c0.7-0.7,1.1-1.6,1.1-2.6V81z M182.6,90.9h-2.3v5H179V81h4c1.2,0.2,2.1,0.6,3,1.4c1,1,1.5,2.1,1.5,3.5c0,1.4-0.5,2.5-1.5,3.5
				c-0.7,0.7-1.3,1.1-2,1.2l3.4,5.2h-1.6L182.6,90.9z M180.3,82.3v7.3h2.2c1,0,1.9-0.4,2.6-1.1c0.7-0.7,1.1-1.6,1.1-2.6
				c0-1-0.4-1.9-1.1-2.6c-0.7-0.7-1.6-1.1-2.6-1.1H180.3z M201.4,91.6l6.6-11.5v15.8h-1.3V85l-5.3,9.2l-5.3-9.2v10.9h-1.3V80.1
				L201.4,91.6z M223.6,81v1.3h-6.4v5.5h6.4v1.3h-6.4v5.5h6.4v1.3h-7.7V81H223.6z M235.7,82.3v13.6h-1.3V82.3h-3.7V81h8.6v1.3H235.7
				z M261,95.4V80.5h1.3v13.6h5.5v1.3H261z M283.7,80.5h1.3v10.6c-0.2,1.2-0.6,2.2-1.4,3c-1,1-2.1,1.5-3.5,1.5
				c-1.4,0-2.5-0.5-3.5-1.4c-1-1-1.4-2.1-1.4-3.5V80.5h1.3v10.1c0,1,0.4,1.9,1.1,2.6c0.7,0.7,1.6,1.1,2.6,1.1c1,0,1.9-0.4,2.6-1.1
				c0.7-0.7,1.1-1.6,1.1-2.6V80.5z M301.9,92.1V80.5h1.3v15.7l-8.8-12.4v11.6h-1.3V79.8L301.9,92.1z M322.7,92.6l1,0.9
				c-1.6,1.4-3.4,2.2-5.3,2.2c-2.1,0-3.9-0.7-5.4-2.2c-1.5-1.5-2.2-3.3-2.2-5.4c0-2.1,0.7-3.9,2.2-5.4c1.5-1.5,3.3-2.2,5.4-2.2
				c2,0,3.7,0.7,5.3,2.2l-1,0.9c-1.3-1.1-2.7-1.7-4.3-1.7c-1.7,0-3.2,0.6-4.5,1.8c-1.2,1.2-1.8,2.7-1.8,4.5c0,1.7,0.6,3.2,1.8,4.5
				c1.2,1.2,2.7,1.8,4.5,1.8C320,94.3,321.4,93.7,322.7,92.6z M332.3,88.6v6.8H331V80.5h1.3v6.8h6.9v-6.8h1.3v14.9h-1.3v-6.8H332.3z
				 M355.1,86c0.3,0.1,0.7,0.5,1.2,0.9c1,1,1.4,2.1,1.4,3.5c0,1.4-0.5,2.5-1.4,3.5c-0.8,0.8-1.8,1.3-3,1.4h-4.9V80.5h4.5
				c0.9,0,1.6,0.3,2.3,0.9c0.6,0.6,0.9,1.4,0.9,2.3c0,0.9-0.3,1.6-0.9,2.3l0,0C355.2,86,355.2,86,355.1,86z M349.7,81.8v3.7h3.4
				c0.5-0.1,0.9-0.2,1.2-0.5c0.4-0.4,0.6-0.8,0.6-1.3c0-0.5-0.2-1-0.6-1.3c-0.4-0.4-0.8-0.6-1.3-0.6H349.7z M352.8,94.1
				c1,0,1.9-0.4,2.6-1.1c0.7-0.7,1.1-1.6,1.1-2.6c0-1-0.4-1.9-1.1-2.6c-0.7-0.7-1.6-1.1-2.6-1.1h-3.1v7.3H352.8z M377.6,82.6
				c1.5,1.5,2.2,3.3,2.2,5.4c0,2.1-0.7,3.9-2.2,5.4c-1.5,1.5-3.3,2.2-5.4,2.2c-2.1,0-3.9-0.7-5.4-2.2c-1.5-1.5-2.2-3.3-2.2-5.4
				c0-2.1,0.7-3.9,2.2-5.4c1.5-1.5,3.3-2.2,5.4-2.2C374.3,80.3,376.1,81.1,377.6,82.6z M372.2,81.6c-1.7,0-3.2,0.6-4.5,1.9
				c-1.2,1.2-1.9,2.7-1.9,4.5c0,1.7,0.6,3.2,1.9,4.5c1.2,1.2,2.7,1.9,4.5,1.9c1.7,0,3.2-0.6,4.5-1.9c1.2-1.2,1.9-2.7,1.9-4.5
				c0-1.7-0.6-3.2-1.9-4.5C375.5,82.3,374,81.6,372.2,81.6z M386.3,95.4l4.7-8.2l-3.9-6.7h1.5l3.1,5.4l3.2-5.4h1.5l-3.9,6.7l4.7,8.2
				h-1.5l-4-6.9l-4,6.9H386.3z M412,80.5v1.3h-6.4v5.5h6.4v1.3h-6.4v5.5h6.4v1.3h-7.7V80.5H412z M424.1,87.4
				c-1.1-0.4-1.9-0.8-2.5-1.5c-0.6-0.6-1-1.4-1-2.3c0-0.9,0.3-1.7,1-2.3c0.6-0.6,1.4-1,2.3-1c0.9,0,1.7,0.3,2.3,1
				c0.4,0.3,0.6,0.8,0.8,1.4l-1.2,0.5c-0.2-0.4-0.3-0.7-0.6-0.9c-0.4-0.4-0.9-0.6-1.4-0.6c-0.6,0-1,0.2-1.4,0.6s-0.6,0.9-0.6,1.4
				c0,0.6,0.2,1,0.6,1.4c0.4,0.4,0.9,0.7,1.6,1c1.2,0.4,2.2,1,3,1.8c0.9,0.9,1.3,1.9,1.3,3.2c0,1.3-0.4,2.3-1.3,3.2
				c-0.9,0.9-1.9,1.3-3.2,1.3c-1.3,0-2.3-0.4-3.2-1.3c-0.7-0.7-1.1-1.6-1.3-2.7l1.2-0.4c0.1,0.9,0.4,1.7,1,2.2
				c0.6,0.6,1.4,0.9,2.3,0.9c0.9,0,1.7-0.3,2.3-0.9c0.6-0.6,0.9-1.4,0.9-2.3c0-0.9-0.3-1.6-0.9-2.3
				C425.6,88.2,424.9,87.8,424.1,87.4z"/>
		</g>
	</g>
	<g>
		<g opacity="0.2">
			<path fill="#69643C" d="M9.6,55.6c-2,0.9-3.7,1.2-5,0.7c-1.4-0.4-2.2-1.8-2.5-4c-0.3-2.3,0-5.6,1-10c1-4.4,2.8-10.2,5.5-17.3
				c-1.6,0.4-2.9,0.6-4,0.5c-1.1-0.1-1.9-0.4-2.5-1c-0.6-0.5-1-1.3-1.1-2.2c-0.1-0.9,0-2,0.4-3.2c0-0.4,0.1-0.8,0.4-1
				c0.3-0.3,0.6-0.4,0.9-0.4c0.3,0,0.6,0,0.8,0.2c0.2,0.2,0.3,0.5,0.1,0.9c-0.1,0.2-0.2,0.5-0.3,0.9c-0.1,0.4-0.2,0.8-0.2,1.3
				c0,0.4,0,0.9,0.2,1.3c0.1,0.4,0.4,0.7,0.9,0.9c0.5,0.2,1.1,0.2,2,0.1c0.9-0.1,2-0.5,3.4-1.2c1.1-3.7,2.3-6.9,3.6-9.7
				c1.3-2.8,2.7-5,4.1-6.9c1.4-1.8,2.8-3.2,4.1-4.1C22.7,0.5,24,0,25,0c1.1,0,2,0.4,2.7,1.3c0.7,0.9,1.2,2.2,1.3,4
				c0.1,1.3-0.1,2.5-0.7,3.8c-0.6,1.3-1.3,2.5-2.3,3.8c-1,1.3-2,2.4-3.2,3.6c-1.2,1.1-2.3,2.2-3.5,3.2c-1.1,1-2.1,1.8-3,2.6
				c-0.9,0.8-1.5,1.4-1.9,1.8c-1.4,4.5-2.7,8.3-3.7,11.4c-1,3.1-1.8,5.7-2.4,7.8c-0.6,2.1-1.1,3.7-1.3,4.9c-0.3,1.2-0.4,2.1-0.4,2.7
				c0,0.6,0.2,1,0.4,1.2c0.3,0.2,0.6,0.3,1,0.4c0.7,0.1,1.6,0,2.7-0.4c1.1-0.4,2.3-0.9,3.7-1.6c1.3-0.7,2.7-1.6,4.2-2.6
				c1.5-1,2.9-2,4.2-3.2c1.4-1.1,2.6-2.2,3.8-3.4c1.2-1.2,2.1-2.3,2.9-3.3c0.2-0.3,0.4-0.5,0.7-0.5c0.3-0.1,0.5-0.1,0.8,0
				c0.2,0.1,0.4,0.2,0.5,0.4c0.1,0.2,0.2,0.5,0.1,0.9c-0.7,1.3-1.8,2.7-3.3,4.3C26.8,44.5,25,46,23,47.5c-2,1.5-4.2,3-6.5,4.4
				C14.1,53.3,11.8,54.6,9.6,55.6z M26.7,5.3c-0.1-1.1-0.3-1.7-0.7-1.9c-0.4-0.2-0.9,0-1.6,0.6c-0.6,0.6-1.3,1.4-2.1,2.5
				c-0.8,1.1-1.5,2.4-2.2,3.7c-0.7,1.4-1.4,2.8-2.1,4.3c-0.7,1.5-1.2,2.9-1.6,4.2c1.2-0.8,2.5-1.7,3.7-2.9c1.3-1.2,2.4-2.3,3.3-3.6
				c1-1.2,1.8-2.5,2.4-3.7C26.5,7.4,26.8,6.3,26.7,5.3z"/>
			<path fill="#69643C" d="M30.2,57c-1.5-0.3-2.7-0.7-3.5-1.3c-0.8-0.6-1.3-1.3-1.5-2.4c-0.2-1-0.1-2.3,0.1-3.8
				c0.3-1.6,0.8-3.5,1.4-5.8c0.6-2.3,1.4-5.1,2.3-8.3c0.9-3.2,1.8-6.9,2.8-11.2c0.3-0.8,0.7-1.2,1.2-1.3c0.5-0.1,1,0,1.4,0.2
				c0.4,0.3,0.8,0.7,1.1,1.2c0.3,0.6,0.3,1.1,0.2,1.7c-0.8,3.3-1.7,6.5-2.7,9.6c-1,3.2-1.8,6-2.4,8.5c-0.6,2.5-0.9,4.6-0.9,6.2
				c0,1.6,0.6,2.5,1.9,2.7c0.9-0.2,1.8-0.7,2.9-1.5c1.1-0.8,2.2-1.7,3.3-2.7c1.1-1,2.2-2.1,3.3-3.3c1.1-1.2,2-2.2,2.8-3.3
				c0.8-1,1.5-1.9,2.1-2.7c0.6-0.8,0.9-1.3,1.1-1.5c0.5-0.4,0.9-0.6,1.4-0.4c0.5,0.2,0.6,0.7,0.6,1.5c-0.4,0.6-1,1.5-1.9,2.6
				c-0.9,1.1-1.9,2.3-3,3.7c-1.2,1.3-2.4,2.7-3.7,4c-1.3,1.4-2.6,2.6-3.9,3.7c-1.3,1.1-2.5,2.1-3.6,2.8C31.9,56.7,31,57,30.2,57z
				 M34.1,13c0.3-0.8,0.7-1.2,1.3-1.4c0.6-0.2,1.1-0.1,1.6,0.1c0.5,0.2,0.9,0.7,1.2,1.3c0.3,0.7,0.3,1.4,0.1,2.4
				c-0.2,0.8-0.5,1.3-1.1,1.5C36.6,17,36,17,35.4,16.7c-0.6-0.3-1-0.7-1.4-1.4C33.7,14.7,33.7,13.9,34.1,13z"/>
			<path fill="#69643C" d="M49.1,56.6c-1.4,0-2.5-0.3-3.3-1c-0.8-0.7-1.3-1.6-1.6-2.8c-0.3-1.2-0.4-2.6-0.3-4.2
				c0.1-1.6,0.3-3.3,0.7-5.1c0.4-1.9,0.9-3.9,1.5-5.9c0.6-2,1.2-4,1.8-5.9c0.6-1.9,1.2-3.6,1.7-5.3c0.5-1.6,1-3,1.3-4.1l-6-0.1
				c-0.4,0-0.7-0.1-0.9-0.4c-0.2-0.2-0.2-0.5-0.2-0.8c0.1-0.3,0.2-0.6,0.5-0.9c0.3-0.3,0.7-0.5,1.3-0.7h6l4.7-14.8
				c0.3-0.7,0.7-1.2,1.3-1.4C58.1,3,58.7,3,59.3,3.2c0.6,0.2,1.1,0.5,1.5,1c0.4,0.5,0.5,1.1,0.3,1.8l-4.4,13.5h6.6
				c0.3,0,0.5,0.1,0.7,0.3c0.2,0.2,0.3,0.5,0.3,0.9c0,0.3-0.1,0.7-0.3,1c-0.2,0.3-0.6,0.5-1.2,0.6L56,22.3c-0.5,1.7-1.1,3.5-1.7,5.4
				c-0.6,1.9-1.3,3.8-1.9,5.7c-0.6,1.9-1.2,3.7-1.8,5.6c-0.6,1.8-1.1,3.6-1.5,5.2c-0.4,1.6-0.8,3-1,4.3c-0.2,1.3-0.3,2.4-0.3,3.3
				c0,0.9,0.2,1.6,0.5,2.1c0.3,0.5,0.9,0.7,1.6,0.7c1.4-0.1,2.6-0.5,3.8-1.2c1.2-0.7,2.3-1.5,3.4-2.4s2-2,2.9-3.2
				c0.9-1.2,1.7-2.3,2.4-3.5c1-1.6,1.7-3,2.4-4.4c0.6-1.3,1-2.2,1.3-2.8c0.2-0.4,0.4-0.6,0.7-0.7c0.3-0.1,0.6-0.1,0.9,0
				c0.3,0.1,0.5,0.4,0.6,0.8c0.1,0.4,0.1,1-0.1,1.7c-0.2,0.4-0.6,1.2-1.2,2.4c-0.6,1.3-1.4,2.7-2.5,4.4c-0.8,1.3-1.7,2.6-2.8,3.8
				c-1.1,1.3-2.2,2.5-3.5,3.5c-1.3,1-2.7,1.9-4.2,2.6C52.5,56.3,50.9,56.6,49.1,56.6z"/>
			<path fill="#69643C" d="M67.1,56.6c-1.4,0-2.5-0.3-3.3-1c-0.8-0.7-1.3-1.6-1.6-2.8c-0.3-1.2-0.4-2.6-0.3-4.2
				c0.1-1.6,0.3-3.3,0.7-5.1c0.4-1.9,0.9-3.9,1.5-5.9c0.6-2,1.2-4,1.8-5.9c0.6-1.9,1.2-3.6,1.7-5.3c0.5-1.6,1-3,1.3-4.1l-6-0.1
				c-0.4,0-0.7-0.1-0.9-0.4c-0.2-0.2-0.2-0.5-0.2-0.8c0.1-0.3,0.2-0.6,0.5-0.9c0.3-0.3,0.7-0.5,1.3-0.7h6l4.7-14.8
				c0.3-0.7,0.7-1.2,1.3-1.4C76.1,3,76.7,3,77.3,3.2c0.6,0.2,1.1,0.5,1.5,1c0.4,0.5,0.5,1.1,0.3,1.8l-4.4,13.5h6.6
				c0.3,0,0.5,0.1,0.7,0.3c0.2,0.2,0.3,0.5,0.3,0.9c0,0.3-0.1,0.7-0.3,1c-0.2,0.3-0.6,0.5-1.2,0.6L74,22.3c-0.5,1.7-1.1,3.5-1.7,5.4
				c-0.6,1.9-1.3,3.8-1.9,5.7c-0.6,1.9-1.2,3.7-1.8,5.6c-0.6,1.8-1.1,3.6-1.5,5.2c-0.4,1.6-0.8,3-1,4.3c-0.2,1.3-0.3,2.4-0.3,3.3
				c0,0.9,0.2,1.6,0.5,2.1c0.3,0.5,0.9,0.7,1.6,0.7c1.4-0.1,2.6-0.5,3.8-1.2c1.2-0.7,2.3-1.5,3.4-2.4c1.1-1,2-2,2.9-3.2
				c0.9-1.2,1.7-2.3,2.4-3.5c1-1.6,1.7-3,2.4-4.4c0.6-1.3,1-2.2,1.3-2.8c0.2-0.4,0.4-0.6,0.7-0.7c0.3-0.1,0.6-0.1,0.9,0
				c0.3,0.1,0.5,0.4,0.6,0.8c0.1,0.4,0.1,1-0.1,1.7c-0.2,0.4-0.6,1.2-1.2,2.4c-0.6,1.3-1.4,2.7-2.5,4.4c-0.8,1.3-1.7,2.6-2.8,3.8
				c-1.1,1.3-2.2,2.5-3.5,3.5c-1.3,1-2.7,1.9-4.2,2.6C70.5,56.3,68.9,56.6,67.1,56.6z"/>
			<path fill="#69643C" d="M87.7,55.6c-2,0.9-3.7,1.2-5,0.7c-1.4-0.4-2.2-1.8-2.5-4c-0.3-2.3,0-5.6,1-10c1-4.4,2.8-10.2,5.5-17.3
				c-1.6,0.4-2.9,0.6-4,0.5c-1.1-0.1-1.9-0.4-2.5-1c-0.6-0.5-1-1.3-1.1-2.2c-0.1-0.9,0-2,0.4-3.2c0-0.4,0.1-0.8,0.4-1
				c0.3-0.3,0.6-0.4,0.9-0.4c0.3,0,0.6,0,0.8,0.2c0.2,0.2,0.3,0.5,0.1,0.9c-0.1,0.2-0.2,0.5-0.3,0.9c-0.1,0.4-0.2,0.8-0.2,1.3
				c0,0.4,0,0.9,0.2,1.3c0.1,0.4,0.4,0.7,0.9,0.9c0.5,0.2,1.1,0.2,2,0.1c0.9-0.1,2-0.5,3.4-1.2c1.1-3.7,2.3-6.9,3.6-9.7
				c1.3-2.8,2.7-5,4.1-6.9c1.4-1.8,2.8-3.2,4.1-4.1c1.3-0.9,2.5-1.4,3.6-1.4c1.1,0,2,0.4,2.7,1.3c0.7,0.9,1.2,2.2,1.3,4
				c0.1,1.3-0.1,2.5-0.7,3.8c-0.6,1.3-1.3,2.5-2.3,3.8c-1,1.3-2,2.4-3.2,3.6c-1.2,1.1-2.3,2.2-3.5,3.2c-1.1,1-2.1,1.8-3,2.6
				c-0.9,0.8-1.5,1.4-1.9,1.8c-1.4,4.5-2.7,8.3-3.7,11.4c-1,3.1-1.8,5.7-2.4,7.8c-0.6,2.1-1.1,3.7-1.3,4.9c-0.3,1.2-0.4,2.1-0.4,2.7
				c0,0.6,0.2,1,0.4,1.2c0.3,0.2,0.6,0.3,1,0.4c0.7,0.1,1.6,0,2.7-0.4c1.1-0.4,2.3-0.9,3.7-1.6c1.3-0.7,2.7-1.6,4.2-2.6
				c1.5-1,2.9-2,4.2-3.2c1.4-1.1,2.6-2.2,3.8-3.4c1.2-1.2,2.1-2.3,2.9-3.3c0.2-0.3,0.4-0.5,0.7-0.5c0.3-0.1,0.5-0.1,0.8,0
				c0.2,0.1,0.4,0.2,0.5,0.4c0.1,0.2,0.2,0.5,0.1,0.9c-0.7,1.3-1.8,2.7-3.3,4.3c-1.5,1.5-3.3,3.1-5.3,4.6c-2,1.5-4.2,3-6.5,4.4
				C92.3,53.3,90,54.6,87.7,55.6z M104.9,5.3c-0.1-1.1-0.3-1.7-0.7-1.9c-0.4-0.2-0.9,0-1.6,0.6c-0.6,0.6-1.3,1.4-2.1,2.5
				c-0.8,1.1-1.5,2.4-2.2,3.7c-0.7,1.4-1.4,2.8-2.1,4.3s-1.2,2.9-1.6,4.2c1.2-0.8,2.5-1.7,3.7-2.9c1.3-1.2,2.4-2.3,3.3-3.6
				c1-1.2,1.8-2.5,2.4-3.7C104.6,7.4,104.9,6.3,104.9,5.3z"/>
			<path fill="#69643C" d="M110.8,56.3c-2-0.2-3.6-0.6-4.7-1.4c-1.2-0.8-2-1.7-2.4-2.9c-0.5-1.2-0.7-2.4-0.6-3.9
				c0.1-1.4,0.4-2.9,0.8-4.4c0.5-1.5,1.1-3,1.8-4.4c0.8-1.5,1.6-2.8,2.4-4c0.6-1,1.3-2.1,2.2-3.2c0.9-1.1,1.9-2.2,2.9-3.3
				c1.1-1.1,2.2-2,3.3-2.9c1.2-0.9,2.3-1.5,3.4-2c1.1-0.5,2.2-0.6,3.1-0.5c1,0.1,1.8,0.6,2.5,1.5c0.6,0.8,0.8,1.7,0.7,2.7
				c-0.2,1-0.6,2.1-1.3,3.3c-0.7,1.2-1.6,2.3-2.7,3.5c-1.1,1.2-2.3,2.4-3.6,3.5c-1.3,1.2-2.7,2.3-4.1,3.3c-1.4,1.1-2.8,2-4.1,2.8
				c-0.9,2.2-1.3,4-1.3,5.4c0,1.4,0.3,2.5,0.9,3.2c0.6,0.8,1.4,1.2,2.5,1.4c1.1,0.2,2.2,0.1,3.4-0.1c1.2-0.2,2.5-0.6,3.8-1.2
				c1.3-0.6,2.4-1.2,3.5-1.8c2.2-1.7,4-3.3,5.2-4.7c1.3-1.4,2.2-2.7,2.9-3.7c0.7-1.1,1.1-2,1.4-2.7c0.3-0.7,0.6-1.2,0.9-1.6
				c0.2-0.4,0.4-0.6,0.6-0.7c0.2-0.1,0.4-0.1,0.6,0c0.2,0.1,0.3,0.3,0.4,0.5c0.1,0.2,0.2,0.5,0.1,0.7c-1.6,2.9-3.2,5.4-4.8,7.5
				c-1.7,2.2-3.4,4-5.4,5.4c-1.9,1.5-4.1,2.6-6.5,3.3C116.4,55.9,113.8,56.3,110.8,56.3z M123.6,27c-0.4-0.5-0.9-0.6-1.6-0.4
				c-0.7,0.3-1.5,0.8-2.4,1.5c-0.9,0.8-1.8,1.7-2.7,2.8c-0.9,1.1-1.8,2.2-2.6,3.4c-0.8,1.2-1.5,2.3-2.1,3.4c-0.6,1.1-0.9,2-1.1,2.7
				c0.7-0.3,1.6-0.7,2.5-1.3c1-0.6,1.9-1.3,3-2.1c1-0.8,2-1.7,3-2.6c1-0.9,1.8-1.8,2.4-2.7s1.2-1.7,1.5-2.5
				C123.8,28.3,123.9,27.6,123.6,27z"/>
			<path fill="#69643C" d="M162.6,1.7c0-0.1,0.3-0.2,0.9-0.3c0.5,0,0.9,0,1,0c0,0,0.1,0,0.2,0.1c0.1,0.1,0.2,0.2,0.2,0.2
				c0,0.1-0.2,0.4-0.5,0.8c-0.4,0.4-0.6,0.6-0.6,0.6c-0.1,0-0.2,0.1-0.3,0.1c-0.1,0.1-0.1,0.2-0.2,0.2c-0.1,0.1-0.2,0.1-0.3,0.1
				c-0.2,0.1-0.4,0.3-0.5,0.7c-0.1,0.4-0.1,1.1-0.1,2.2c0,0.5,0,1.1,0,1.8c0,0.7,0,1.2,0,1.6c0,0.4,0.1,1.4,0.2,2.9
				c0.1,1.5,0.1,3.1,0.1,4.7c0.1,3.9,0.2,5.9,0.3,6c0.1,0.1,0.1,0.1-0.1,0.1c-0.1,0.1-0.1,0.2,0,0.3c0.1,0.1,0.2,0.9,0.3,2.3
				c0,1,0,2,0.1,3.2c0,1.1,0.1,2.2,0.2,3.2c0.1,1,0.1,1.8,0.2,2.5c0.1,0.7,0.1,1,0.2,1c0,0.6,0,1.3,0,2c0,0.8,0.1,1.8,0.1,3.2
				c0.1,1.3,0.1,3.1,0.2,5.1c0,1.4,0,2.7,0.1,3.9c0,1.2,0.1,1.8,0.1,2l0.1,0.6l0.3,0.1c0.2,0,0.6,0,1.3-0.1c0.7-0.1,1-0.2,1-0.3
				c0.1-0.1,0.5-0.2,1.2-0.3c0.7-0.1,1.5-0.1,2.6-0.1c1.2,0,2.3,0,3.2-0.1c0.9-0.1,1.4-0.2,1.4-0.4c0,0,0,0,0.1,0
				c0.1,0,0.4-0.2,0.8-0.6c0.4-0.4,0.7-0.8,0.9-1.2c0-0.1,0.1-0.3,0.3-0.5c0.1,0,0.2-0.2,0.4-0.5c0.1-0.3,0.2-0.5,0.3-0.6
				c0-0.1,0-0.2,0.1-0.3c0.1,0,0.1-0.1,0.1-0.3c0,0,0.1-0.3,0.3-0.7c0.2-0.4,0.4-0.7,0.4-0.7c0.1-0.3,0.2-0.6,0.4-0.8
				c0.1-0.2,0.2-0.3,0.3-0.5c0.1-0.2,0.1-0.2,0.2-0.2c0-0.1,0.1-0.3,0.2-0.5c0,0,0-0.1,0.1-0.2c0.1-0.1,0.2-0.2,0.3-0.3l0.3-0.2
				l0.4,0.4c0.1,0.1,0.2,0.3,0.2,0.4s0,0.3,0,0.5c0,0.3,0,0.5,0,0.6c-0.3,0-0.5,1.2-0.5,3.5c-0.1,0.6-0.2,1.3-0.3,2.2
				c-0.1,0.1-0.1,0.2-0.2,0.4c-0.1,0.2-0.2,0.3-0.3,0.5c-0.1,0.5-0.2,0.8-0.4,0.8c0,0-0.1,0.1-0.1,0.3v0.2h-0.5
				c-0.1,0-0.3,0.1-0.5,0.1c0,0.1-0.3,0.1-0.8,0.2c-0.6,0-1.2,0.1-2,0.1c-1.5,0.1-2.8,0.3-3.7,0.3c-0.9,0.1-1.4,0.1-1.4,0.2
				c-0.1,0.1-0.7,0.3-1.6,0.4c-0.9,0.1-2.3,0.2-4,0.3c-2.1,0-3.4,0-4,0.1c-0.6,0.1-0.9,0.2-0.9,0.3c-0.3,0.1-0.5,0.1-0.6,0.1
				c-0.1,0-0.3,0-0.4-0.1s-0.2-0.1-0.2-0.2c0,0-0.1-0.1-0.1-0.1c-0.3,0-0.4-0.1-0.4-0.4c0.1-0.3,0.3-0.5,0.6-0.7
				c0.1,0,0.3-0.1,0.5-0.3c0.2-0.1,0.4-0.3,0.5-0.4l0.5-0.5v-4.4c0-1.2,0-2.7-0.1-4.5c-0.1,0-0.1-0.6-0.2-1.7
				c-0.1-1.1-0.1-2.3-0.2-3.8c-0.1-1.5-0.1-2.9-0.2-4.3c-0.1-1.3-0.1-2.2-0.2-2.6c0-0.4,0-0.9,0-1.3c0-0.4,0-0.8,0-1.1
				c0-0.2,0-0.3-0.1-0.5c0-0.2-0.1-0.3-0.1-0.4c-0.1,0-0.1-0.1-0.2-0.3c-0.1-0.2-0.1-0.5-0.1-0.7c-0.2-2.6-0.3-4.5-0.4-5.7
				c-0.1-1.2-0.2-1.8-0.2-1.8c0,0,0-0.2,0-0.5c0-0.2,0-0.6-0.1-1.3c-0.1-0.7-0.1-1.4-0.2-2.2s-0.1-1.5-0.2-2.1c-0.1-0.6-0.1-1-0.1-1
				c-0.1,0-0.2-0.4-0.3-1.3c-0.2-1.3-0.4-2.5-0.5-3.4c-0.1-0.9-0.2-1.4-0.3-1.5C157,6.1,157,5.9,157,5.7c0-0.2,0-0.3-0.1-0.5
				c-0.1-0.2-0.1-0.3-0.1-0.4c-0.1,0-0.2,0-0.4-0.1c-0.2,0-0.3-0.1-0.5-0.1l-0.7-0.1L155,4c-0.1-0.3-0.2-0.6-0.1-0.8
				c0-0.2,0.1-0.4,0.3-0.5c0.1-0.1,0.2-0.2,0.3-0.3c0,0,0.3,0,0.8-0.1c0.5-0.1,1-0.1,1.6-0.2c0.6-0.1,1.3-0.1,1.9-0.2
				c0.7-0.1,1.2-0.1,1.7-0.1C161.7,1.8,162.1,1.8,162.6,1.7z"/>
			<path fill="#69643C" d="M200.4,2.2c0-0.1,0.1-0.2,0.4-0.2c0.3-0.1,0.7-0.2,1.2-0.3c0.4,0,1-0.1,1.7-0.1c0.7,0,1.4-0.1,2.1-0.1
				c0.7,0,1.3,0,1.8,0c0.5,0,0.8,0.1,0.9,0.1c0.1,0.1,0,0.2-0.3,0.4c-0.2,0.2-0.5,0.3-0.7,0.4c-0.3,0-0.7,0.1-1,0.3L206.1,3v2.9
				c0,0.8,0,1.4,0.1,1.9c0,0.5,0.1,0.8,0.1,0.9c0.1,0,0.1,0.7,0.2,2c0.1,1.3,0.1,3,0.1,4.9c0.1,1.9,0.1,3.7,0.2,5.4
				c0.1,1.6,0.1,2.7,0.1,3.2c0,0.5,0,1.7,0.1,3.4c0.1,1.8,0.1,3.7,0.1,5.8c0.1,2.1,0.1,3.9,0.1,5.3c0,1.5,0.1,2.2,0.2,2.2
				c0,2.1,0,3.9,0,5.4c0,1.6,0,2.9,0.1,4c0.1,1,0.1,1.7,0.2,1.9c0.2,0.8,0.7,1.4,1.3,1.5c0.2,0,0.7-0.1,1.2-0.4
				c0.6-0.2,0.9-0.5,1.1-0.6c0.1-0.1,0.3-0.3,0.5-0.3c0.1,0,0.3-0.3,0.4-0.9c0.1-0.6,0.1-1.2,0.1-1.9c0-0.9,0-1.5,0-1.7
				c0.2-0.5,0.7-0.5,1.5-0.1l0.5,0.3V49c0,0.3,0,0.6,0,1c-0.2,0-0.3,0.3-0.5,0.9c-0.2,0.7-0.4,1.2-0.7,1.5c-0.1,0.1-0.2,0.3-0.4,0.5
				c-0.1,0.2-0.2,0.4-0.3,0.5c-0.3,0.3-0.5,0.5-0.8,0.8c-0.3,0.2-0.6,0.4-1,0.6c-0.2,0-0.3,0.1-0.5,0.3c0,0.1-0.3,0.2-1,0.3
				c-0.6,0.1-1.3,0.2-1.9,0.2c-0.6,0-1.1,0-1.4-0.1c-0.3-0.1-0.6-0.3-1-0.5c-0.2-0.1-0.4-0.5-0.6-1c-0.2-0.5-0.4-0.9-0.4-1.2
				c0-0.5-0.2-0.4-0.7,0.5c-0.3,0.3-0.6,0.7-0.9,1c-0.3,0.3-0.6,0.5-1,0.6c-0.3,0-0.5,0.1-0.5,0.3c0,0.1-0.3,0.2-0.8,0.3
				c-0.6,0.1-1.2,0.2-1.8,0.2c-0.7,0-1.4-0.1-2.2-0.2c-0.8-0.1-1.2-0.3-1.2-0.5c0,0-0.3-0.1-0.9-0.3c-0.3-0.1-0.5-0.2-0.7-0.3
				c-0.2-0.1-0.4-0.2-0.5-0.4c-0.4-0.3-0.6-0.6-0.7-0.8c-0.2-0.1-0.3-0.4-0.5-0.9c-0.1-0.5-0.3-1-0.3-1.5c0-0.3-0.1-0.6-0.3-0.8
				c-0.3-1.5-0.4-2.8-0.5-3.9c-0.2-1-0.3-1.9-0.4-2.6c-0.1-0.7-0.2-1.1-0.3-1.1c0-0.1-0.1-1-0.2-2.6c-0.1-1.7-0.3-3.8-0.6-6.2
				c0-0.7,0-1.4-0.1-1.9s-0.1-0.9-0.2-1c-0.1-0.7-0.1-1.2-0.2-1.7c-0.1-1.2-0.2-2.5-0.3-3.9c-0.1-1.4-0.2-2.7-0.3-3.9
				s-0.2-2.2-0.3-3.1c-0.1-0.8-0.1-1.2-0.2-1.2c-0.1-0.2-0.1-0.5-0.1-0.9c0-0.1,0-0.6-0.1-1.4c0-0.8-0.1-1.6-0.3-2.5
				c-0.1-0.8-0.2-1.8-0.2-3c0-1.2,0-2.1,0-2.7V3.7l-0.5-0.1c-0.1,0-0.3,0-0.7-0.1c-0.3-0.1-0.7-0.1-1-0.1c-0.5,0-0.9,0-1,0
				c-0.1,0-0.3-0.2-0.3-0.5c0,0,0.2-0.1,0.4-0.1c0.3,0,0.6-0.1,0.9-0.2s0.7-0.1,1-0.2c0.3,0,0.6-0.1,0.8-0.1c0.1,0,0.4,0,0.7-0.1
				c0-0.1,0.2-0.1,0.6-0.2c0.4,0,0.9-0.1,1.4-0.1c0.5,0,1.1-0.1,1.6-0.1s1,0,1.2,0c0.7,0.1,1,0.3,1,0.7c0,0.3-0.3,0.5-1,0.5
				c-0.4,0-0.6,0.1-0.7,0.3c0,0.5,0,0.9,0.1,1.2c0,0.3,0,0.8,0.1,1.5c0.1,0.7,0.1,1.4,0.1,2c0.1,1.8,0.1,3.4,0.2,4.8
				c0.1,1.4,0.2,2.1,0.3,2.1c0.1,0.1,0.3,0.9,0.4,2.3c0.1,1.4,0.3,3.5,0.4,6.3c0.1,1.4,0.2,2.7,0.2,3.7c0.1,1,0.2,1.6,0.3,1.7
				c0.1,4.1,0.3,8,0.5,11.7c0,3,0.1,5.3,0.2,6.9c0.1,1.6,0.3,2.3,0.5,2.3c0.1,0.1,0.2,0.3,0.2,0.3c0,0.2,0,0.3,0,0.4
				c0,0.1,0,0.3,0,0.4c0.2,0.7,0.5,1.2,0.6,1.5c0.2,0.3,0.3,0.5,0.5,0.7c0.1,0.1,0.2,0.2,0.2,0.3c0.1,0.1,0.2,0.2,0.3,0.2
				c0,0.2,0.2,0.3,0.6,0.5c0.4,0.1,0.8,0.3,1.1,0.3c0.3,0.1,0.8,0,1.3-0.2c0.6-0.2,1-0.5,1.4-0.8c0.2-0.2,0.3-0.3,0.5-0.3
				c0.1,0,0.4-0.3,0.7-0.8c0.1-0.2,0.3-0.5,0.4-0.7c0.1-0.2,0.2-0.4,0.3-0.5c0.1,0,0.2-0.3,0.4-0.9c0.2-0.6,0.3-1.2,0.4-1.6
				c0-0.3,0.1-0.6,0.3-0.8c0.1-0.6,0.2-1.2,0.3-1.7c0-0.6,0-1.3,0-2.1c0-0.8-0.1-2.1-0.1-3.8c0-1.2,0-2.2-0.1-3
				c-0.1-0.8-0.1-1.3-0.1-1.4c-0.1,0-0.1-0.3-0.2-0.9c-0.1-0.6-0.1-1.3-0.2-2.3c-0.1-1-0.1-2.1-0.2-3.3c-0.1-1.3-0.1-2.6-0.1-3.9
				c-0.1-0.8-0.1-1.7-0.2-2.5c-0.1-0.9-0.1-1.7-0.2-2.4c-0.1-0.7-0.1-1.3-0.2-1.8c-0.1-0.5-0.1-0.7-0.1-0.7c0-2.5,0-4.6,0-6.4
				c0-1.8,0-3.4-0.1-4.9c-0.1-1.5-0.1-2.4-0.1-2.8l-0.1-1.2h-1c-0.5,0-1,0-1.3,0c-0.3-0.1-0.4-0.2-0.4-0.3c0-0.1,0.1-0.2,0.2-0.2
				C200.1,2.3,200.3,2.2,200.4,2.2z"/>
			<path fill="#69643C" d="M235.7,1.2c-0.1,0-0.2-0.1-0.3-0.2s-0.1-0.2-0.1-0.3V0.5h2.4l4.2-0.1c0,0.4,0,0.7-0.3,0.8
				c-0.3,0.2-0.9,0.4-1.9,0.5c0,0.3,0,1-0.1,1.9c0,0.9-0.1,1.8-0.1,2.7c0,1,0,2.2-0.1,3.4c-0.1,0-0.1,0.3-0.2,1
				c-0.1,0.6-0.1,1.4-0.1,2.2c0,0.9,0,2-0.1,3.3c-0.1,1.3-0.1,2.4-0.2,3.4c-0.1,1-0.1,2.2-0.2,3.7c0,1.4-0.1,2.7-0.1,3.7
				c-0.1,2.6-0.2,4-0.3,4.1c-0.1,0-0.1,0,0,0c0.1,0,0.2,0.1,0.3,0.3c0,0.1-0.1,0.1-0.3,0.1c-0.1,0.7-0.2,1.3-0.2,1.9
				c0,1.1,0,2.4-0.1,3.9s-0.1,2.9-0.2,4.3c-0.1,1.4-0.2,2.5-0.2,3.5c-0.1,1-0.2,1.5-0.2,1.5c-0.1,0.9-0.2,1.7-0.2,2.3
				c-0.1,0.6-0.1,1.3-0.1,1.9c0,0.6,0,1.2,0,1.5c0,0.3,0,0.8-0.1,1.2c0,0.5-0.1,1-0.1,1.4c-0.1,0.4-0.1,0.8-0.2,1.2
				c-0.1,0.3-0.1,0.5-0.1,0.6c-0.1,0.2-0.1,0.4-0.1,0.6l-0.1,0.5l-0.3-0.1c-0.1,0-0.2,0-0.3-0.1c-0.1,0-0.2-0.1-0.2-0.1
				c-0.1,0-0.2-0.1-0.4-0.3c-0.1,0-0.4-0.1-0.7-0.3c-0.3-0.2-0.6-0.4-0.8-0.6c-0.1-0.1-0.3-0.2-0.6-0.4c-0.1-0.1-0.3-0.2-0.5-0.5
				c-0.1-0.4-0.2-0.7-0.4-0.8c-0.2-0.6-0.4-1.1-0.6-1.6c-0.1-0.5-0.3-0.9-0.4-1c0,0-0.1-0.6-0.4-1.6c-0.1-0.4-0.3-0.7-0.4-1
				c-0.1-0.3-0.2-0.5-0.2-0.6c-0.1-0.6-0.3-1.1-0.4-1.5c-0.1-0.4-0.3-0.7-0.3-1c-0.1-0.3-0.1-0.5-0.2-0.6c-0.1-0.5-0.3-0.9-0.4-1.2
				c-0.1-0.7-0.2-1.2-0.4-1.3c-0.2-0.6-0.4-1.1-0.4-1.5c-0.1-0.4-0.3-0.7-0.3-1c-0.1-0.3-0.1-0.4-0.2-0.4c-0.1-0.1-0.2-0.9-0.5-2.4
				c-0.1-0.2-0.2-0.6-0.3-1.1c-0.1,0-0.2-0.3-0.2-0.7c-0.1-0.4-0.2-0.9-0.3-1.4c-0.1-0.4-0.3-0.9-0.3-1.2c-0.1-0.4-0.1-0.6-0.2-0.6
				c0,0,0-0.2-0.1-0.5c-0.1-0.3-0.2-0.7-0.3-1.1c-0.1-0.4-0.1-0.7-0.2-1c-0.1-0.3-0.1-0.5-0.1-0.6c-0.1,0-0.2-0.4-0.4-1.2
				c-0.2-0.8-0.3-1.5-0.4-2c-0.1-0.3-0.1-0.5-0.3-0.6c-0.2-0.8-0.3-1.6-0.4-2.2c-0.1-0.6-0.3-1.1-0.4-1.5c-0.1-0.4-0.2-0.7-0.2-0.7
				c-0.1-1-0.3-1.9-0.4-2.6c-0.1-0.7-0.2-1.3-0.3-1.8c-0.1-0.5-0.1-0.8-0.1-0.9c-0.1,0-0.1-0.2-0.2-0.6c-0.1-0.4-0.1-0.9-0.2-1.5
				c-0.1-0.5-0.3-1-0.3-1.5c-0.1-0.4-0.1-0.7-0.2-0.7c-0.1,0-0.1-0.1-0.1-0.4v-0.4l-0.1,0.4c0,0.3,0,1.6,0,3.9
				c0,0.9,0.1,2.2,0.1,3.8c0,1.6,0,3.1,0,4.5v5.2h0.1l0.3,0.1v7c0,4.7-0.1,7.1-0.1,7c-0.1,0.1-0.1,0.4-0.2,1.2
				c-0.1,0.7-0.1,1.6-0.1,2.5c0,0.9-0.1,1.8-0.1,2.7c0,0.9,0,1.4,0.1,1.7c0.1,0.7,0.2,1,0.3,1c0,0.1,0.1,0.2,0.2,0.3
				c0.1,0.1,0.1,0.2,0.2,0.4c0,0.1,0,0.3,0.1,0.4c0.1,0.1,0.2,0.2,0.2,0.3c0.2,0.1,0.4,0.3,0.5,0.4c0.4,0.2,0.7,0.3,1,0.4
				c0.8,0.4,1.2,0.8,1.2,1.3c0.1,0.4-0.5,0.5-1.7,0.4c-0.2,0-0.7,0-1.4-0.1c-0.7,0-1.4-0.1-2.1-0.1c-1.1-0.1-1.9-0.1-2.3-0.2
				c-0.4,0-0.7-0.1-0.7-0.2c-0.1-0.1-0.1-0.2-0.1-0.2c0,0,0.2-0.1,0.5-0.1c0.1,0,0.2-0.1,0.4-0.2c0.1-0.1,0.2-0.1,0.3-0.2
				c0,0,0.1,0,0.3-0.1c0.1-0.1,0.3-0.2,0.4-0.3c0.1-0.1,0.3-0.2,0.4-0.4c0.2-0.1,0.2-0.2,0.2-0.3c0.2-0.2,0.3-0.5,0.4-1
				c0.1-0.5,0.1-0.9,0.1-1.3c0-0.2,0.1-0.4,0.2-0.7c0,0,0.1-0.4,0.1-1.2c0-0.8,0.1-1.7,0.1-2.8c0-1.1,0.1-2.2,0.1-3.4
				c0-1.2,0-2.1,0-2.9c0-0.8,0-2-0.1-3.6c-0.1-1.6-0.1-3.2-0.1-4.6c0-2,0-3.4,0-4.2c0-0.8,0-1.2-0.1-1.2c-0.1,0-0.2-0.2-0.2-0.4
				c0-0.2,0.1-0.3,0.2-0.4c0.1,0,0.1,0,0,0c-0.1,0-0.1-0.2-0.2-0.6c0-0.4-0.1-0.8-0.1-1.3c0-0.5,0-0.9,0.1-1.3
				c0-0.4,0.1-0.6,0.2-0.7c0.1,0,0.1,0,0,0c-0.1,0-0.2-0.2-0.2-0.3c0-0.2,0-0.2,0.1-0.2c0.1,0,0.2-0.3,0.2-0.9c0-0.6,0-1-0.1-1
				c-0.1,0-0.1-0.5-0.2-1.6c-0.1-1.1-0.1-2.4-0.1-4.1c-0.1-2.7-0.2-4.9-0.4-6.6c-0.2-1.7-0.3-2.6-0.3-2.7c-0.1-0.1-0.2-0.4-0.2-0.8
				l-0.1-0.8L218,2.8c-0.2-0.1-0.4-0.2-0.5-0.3c-0.2-0.1-0.4-0.2-0.6-0.3c-0.5-0.2-0.5-0.5,0-0.8c0.1-0.1,0.5-0.1,1.2-0.2
				c0.7-0.1,1.5-0.1,2.3-0.1c0.8,0,1.6,0,2.3,0c0.7,0,1.2,0,1.4,0.1c0.9,0.3,0.8,0.4-0.4,0.4h-1.1l-0.1,0.5c0,0.3,0.1,0.8,0.3,1.5
				c0.2,0.6,0.3,1,0.4,1c0,0.1,0.1,0.2,0.2,0.4s0.1,0.4,0.2,0.6c0.1,0.3,0.2,0.6,0.4,1c0.1,0.1,0.3,0.6,0.6,1.6
				c0.1,0.5,0.2,0.9,0.3,1.2c0.1,0.3,0.1,0.5,0.1,0.6c0.1,0.1,0.3,0.5,0.4,1.3c0.2,0.8,0.4,1.3,0.5,1.3c0,0.1,0,0.2,0.1,0.5
				c0.1,0.3,0.1,0.6,0.2,1c0.1,0.4,0.2,0.7,0.2,1c0.1,0.3,0.1,0.5,0.1,0.6c0.1,0.1,0.1,0.2,0.1,0.3c0.1,0,0.2,0.1,0.3,0.2
				c0,0.5,0.2,1.2,0.4,2c0.2,0.8,0.3,1.2,0.3,1.2c0.1,0,0.2,0.1,0.3,0.4c0,0.7,0.2,1.4,0.4,2c0.2,0.7,0.3,1,0.4,1
				c0,0.1,0.1,0.2,0.1,0.3c-0.1,0.1,0,0.3,0,0.6c0.1,0.3,0.1,0.6,0.2,0.9c0.1,0.3,0.2,0.7,0.3,1.1c0,0.1,0.1,0.3,0.2,0.6
				c0.1,0.3,0.2,0.6,0.3,1c0.1,0.4,0.2,0.7,0.3,1c0.1,0.3,0.2,0.4,0.2,0.4c0,0.1,0,0.3,0.1,0.5c0.1,0.3,0.2,0.6,0.3,0.9
				c0,0.4,0.2,0.9,0.4,1.5c0,0.1,0,0.2,0.1,0.6c0.1,0.3,0.2,0.7,0.3,1.2c0.1,0.4,0.2,0.8,0.3,1.2c0.1,0.4,0.1,0.6,0.1,0.7
				c0,0.1,0,0.2,0.1,0.3c0.1,0,0.1,0.1,0.1,0.1c0,0,0.1,0.1,0.2,0.4c0.1,0.2,0.1,0.5,0.2,0.8c0.3,0.7,0.4,1.1,0.4,1.2
				c0,0.1,0,0.2,0.1,0.6c0.1,0.3,0.2,0.7,0.3,1.1c0.1,0.4,0.2,0.8,0.3,1.1s0.1,0.6,0.1,0.7c0,0.2,0,0.4,0,0.4c0,0,0.1,0.1,0.2,0.4
				c0.1,0.2,0.1,0.5,0.2,0.8c0.2,1.3,0.3,2.1,0.4,2.6c0.1,0.4,0.2,0.7,0.2,0.7c0.1,0.4,0.1,0.7,0.1,0.9c0.3,1.2,0.5,1.1,0.5-0.2
				c0.1-0.4,0.1-0.7,0.1-0.9c0.1-0.6,0.1-1.3,0.2-2.2c0-0.9,0.1-2,0.2-3.6c0.1-1.5,0.2-3.5,0.3-5.9c0-1,0-2.2,0.1-3.7
				c0.1-1.2,0.2-2.2,0.2-3c0-0.8,0.1-1.6,0.1-2.5c0-0.8,0.1-1.5,0.1-2c0-0.4,0-1.1,0-2.2c0-1.1,0-2.2,0.1-3.3c0-1.2,0.1-2.5,0.2-3.9
				s0.1-2.5,0.1-3.2c0-0.8,0-1.4,0.1-2c0-0.6,0.1-0.9,0.2-0.9c0-0.8,0-1.5,0-2.1c0-1.4,0-2.1,0-2.1c-0.1,0-0.2,0-0.3-0.1
				c0-0.2-0.1-0.6-0.2-1C237,2.3,236.9,2,236.7,2c-0.1,0-0.2-0.1-0.3-0.1c-0.1,0-0.2-0.1-0.2-0.1c-0.1,0-0.1-0.1-0.2-0.3
				C235.9,1.3,235.8,1.2,235.7,1.2z"/>
			<path fill="#69643C" d="M260.3,1.3c0.1-0.2,0.2-0.5,0.3-0.7c0.1-0.2,0.1-0.4,0.2-0.4c0.1,0,0.3-0.1,0.4,0c0.1,0,0.2,0.1,0.2,0.2
				c0,0.3,0.1,0.5,0.2,0.5c0.1,0.5,0.1,0.9,0.1,1.3c0,0.4,0,0.9-0.1,1.5c-0.1,0-0.1,0.2-0.2,0.5c-0.1,0.3-0.1,0.7-0.1,1.2
				c0,0.5-0.1,1-0.1,1.5c0,0.5,0,1,0.1,1.4c0,1.1,0,1.9,0,2.4c-0.1,0.5-0.2,0.9-0.4,1.1c-0.4,0.3-0.7,0.4-1,0.1
				c-0.1-0.1-0.3-0.4-0.4-0.8c-0.1-0.4-0.2-0.7-0.2-0.9c0-0.1-0.1-0.1-0.3-0.1c0,0,0-0.1,0-0.3c0,0,0-0.2-0.1-0.4
				c-0.1-0.2-0.2-0.5-0.3-0.8c-0.1-0.3-0.2-0.6-0.3-0.8c-0.1-0.2-0.1-0.4-0.1-0.4c-0.1,0-0.2-0.2-0.3-0.6c-0.1-0.3-0.1-0.7-0.1-1.1
				c0-0.2,0-0.4,0-0.6c0-0.2,0-0.4-0.1-0.4c-0.2-0.4-0.5-0.8-1-1.1c-0.4-0.4-0.8-0.6-1-0.5c-0.2,0-0.4,0.1-0.7,0.1
				c-0.3,0.1-0.5,0.2-0.6,0.3c-0.2,0.1-0.6,0.3-1.1,0.5c-0.6,0.2-0.9,0.3-1,0.3c-0.2,0-0.4,0.1-0.4,0.2c0,0.1,0,0.3-0.1,0.4
				c-0.1,0.1-0.3,0.4-0.5,0.8c-0.2,0.4-0.3,0.7-0.4,1c0,0.2-0.1,0.4-0.3,0.5c-0.1,0-0.2,0.4-0.3,1.2c-0.1,0.8-0.2,1.5-0.3,2
				c-0.1,0.5-0.1,0.9-0.2,1c-0.1,0-0.1,0.6-0.1,1.8c0,1.2,0,2.5,0,4c0,1.4,0,2.7,0,3.9c0,1.2,0,1.8,0.1,1.8c0.1,0.1,0.2,0.5,0.2,1
				c0,0.4,0,0.9,0.1,1.5c0.1,0.6,0.1,1.1,0.2,1.6c0.1,0.5,0.2,0.9,0.2,1.2c0.1,0.3,0.2,0.5,0.2,0.5c0,0.1,0,0.3,0.1,0.8
				c0,0.4,0.1,0.9,0.2,1.5c0.1,1.4,0.2,2.5,0.4,3.2c0.1,0.7,0.2,1.1,0.3,1.1c0,0,0,0,0.1,0.1c0,0.1,0.1,0.3,0.1,0.5
				c0,0.4,0.1,1,0.3,1.7c0.1,0.7,0.3,1,0.3,1c0,0.1,0.2,0.4,0.4,1c0.2,0.6,0.3,1,0.3,1.2c0,0,0.1,0.1,0.2,0.2
				c0.1,0.2,0.1,0.3,0.2,0.5c0.1,0.4,0.2,0.8,0.4,1.1c0.1,0.3,0.2,0.4,0.3,0.4c0,0.1,0,0.2,0.1,0.4c0,0.2,0.1,0.4,0.3,0.7
				c0,0.3,0.2,0.7,0.4,1.2c0,0,0.1,0.1,0.2,0.2c0.1,0.1,0.2,0.3,0.3,0.4c0.1,0.2,0.2,0.4,0.4,0.6c0.1,0.2,0.2,0.3,0.3,0.3
				c0,0.1,0,0.2,0.1,0.4c0.1,0.2,0.1,0.3,0.1,0.5c0,0.1,0.1,0.3,0.2,0.4c0.1,0.1,0.1,0.2,0.2,0.2c0,0.1,0.1,0.2,0.2,0.4
				c0.1,0.2,0.1,0.3,0.2,0.5c0,0.1,0.1,0.3,0.2,0.5c0.1,0.2,0.2,0.4,0.4,0.5c0,0.1,0.1,0.2,0.2,0.2c0.1,0.1,0.1,0.1,0.2,0.1
				c0,0.1,0.2,0.2,0.6,0.4c0.4,0.2,0.6,0.4,0.7,0.5c0,0.1,0.2,0.1,0.7,0.2s0.9,0.1,1.3,0c0.4,0,0.7,0,1-0.1c0.3,0,0.5-0.1,0.6-0.3
				c0,0,0-0.1,0.1-0.1c0.2,0,0.5-0.3,0.9-0.7c0.4-0.4,0.6-0.6,0.6-0.7c0-0.1,0.1-0.3,0.3-0.4c0,0,0.1-0.1,0.2-0.2
				c0.1-0.1,0.2-0.3,0.3-0.4c0.2-0.3,0.4-0.5,0.4-0.5c0,0,0.2-0.3,0.4-1c0.2-0.6,0.3-1.1,0.3-1.4c0,0,0-0.2-0.1-0.5
				c-0.1-0.3-0.1-0.5-0.2-0.7c-0.1-0.4-0.2-0.7-0.3-1c0-0.1,0-0.2,0-0.3c-0.1,0-0.2-0.1-0.2-0.2s0-0.2,0.1-0.3
				c0.1,0,0.2-0.2,0.4-0.5l0.1-0.4l0.9-0.1l0.7-0.1l0.1,0.3c0.2,0.2,0.3,0.7,0.3,1.6c0,0.9-0.1,1.7-0.3,2.6
				c-0.2,0.8-0.4,1.2-0.5,1.3c0,0.1-0.1,0.4-0.4,1.1c-0.1,0.5-0.3,0.9-0.5,1.2c-0.2,0.3-0.4,0.6-0.7,0.9c-0.1,0.1-0.3,0.2-0.4,0.3
				c-0.1,0.1-0.2,0.2-0.2,0.2c-0.1,0.1-0.3,0.2-0.5,0.3c-0.2,0.1-0.3,0.2-0.4,0.4c-0.3,0.1-0.5,0.2-0.5,0.3c0,0.1-0.1,0.1-0.3,0.2
				c-0.2,0.1-0.4,0.1-0.7,0.2c-0.2,0.1-0.4,0.3-0.7,0.4c0,0.1-0.1,0.1-0.4,0.2c-0.3,0.1-0.6,0.2-0.9,0.3c-1.1,0.3-2.3,0.3-3.4,0.2
				c-1.1-0.1-1.8-0.4-2.2-0.7c-0.2-0.2-0.4-0.3-0.5-0.3c-0.1,0-0.1,0-0.2-0.1c-0.1-0.1-0.2-0.2-0.3-0.2c-0.1-0.1-0.2-0.2-0.4-0.3
				c-0.1,0-0.3-0.1-0.4-0.4c-0.1-0.1-0.2-0.2-0.4-0.2c-0.1,0.1-0.2,0-0.4-0.3c-0.2-0.2-0.5-0.5-0.8-0.8c-0.3-0.3-0.6-0.6-0.8-0.9
				c-0.2-0.3-0.3-0.4-0.3-0.5c-0.1-0.2-0.1-0.3-0.3-0.4c-0.1,0-0.2-0.2-0.3-0.3s-0.2-0.4-0.2-0.6c-0.1-0.2-0.2-0.4-0.3-0.7
				c-0.1,0-0.1-0.2-0.2-0.3c-0.1-0.2-0.2-0.4-0.3-0.6c-0.1-0.4-0.2-0.7-0.2-0.9c-0.1,0-0.2-0.3-0.4-0.9c-0.2-0.6-0.3-1-0.3-1.2
				c0-0.1-0.1-0.3-0.3-0.4c-0.1,0-0.2-0.2-0.3-0.5c-0.1-0.3-0.2-0.6-0.2-1c-0.1-0.3-0.3-0.6-0.3-0.9c-0.1-0.3-0.1-0.4-0.2-0.5
				c-0.1-0.5-0.2-0.9-0.3-1.3c-0.1-0.3-0.3-0.6-0.3-0.9c-0.1-0.3-0.1-0.4-0.2-0.4c-0.1,0-0.1,0-0.1-0.1c0-0.1,0-0.3-0.1-0.6
				c-0.1-0.3-0.1-0.7-0.2-1c-0.1-0.4-0.2-0.8-0.3-1.4c-0.2-0.1-0.3-0.5-0.4-1.3c-0.1-0.7-0.2-2.2-0.3-4.4c-0.1-0.5-0.2-0.9-0.3-1
				c-0.1,0-0.1-0.5-0.1-1.5c0-1,0-2.1,0-3.3c0-1.2,0-2.3,0.1-3.3c0-1,0.1-1.5,0.1-1.5c0,0,0.1,0,0.1-0.1c0-0.1,0-0.2,0-0.2
				c0-0.1,0-0.4,0.1-0.9c0.1-0.5,0.2-1,0.2-1.5c0.1-0.5,0.2-1,0.3-1.5c0.1-0.4,0.1-0.7,0.1-0.7c0,0,0.1-0.1,0.2-0.3
				c0.1-0.2,0.1-0.4,0.2-0.7c0.2-1.3,0.4-2,0.6-2c0-0.1,0.3-0.8,0.6-2c0.1-0.1,0.2-0.2,0.3-0.3c-0.1-0.1,0-0.4,0.3-0.8
				c0.2-0.4,0.4-0.7,0.5-0.7c0,0,0.1-0.1,0.1-0.3c0-0.2,0.2-0.4,0.3-0.7c0.2-0.3,0.3-0.5,0.5-0.6c0.1,0,0.2-0.1,0.2-0.3
				c-0.1,0,0.1-0.3,0.5-0.7c0.4-0.4,0.7-0.6,0.7-0.6c0,0,0.1,0,0.2-0.1c0.1-0.1,0.2-0.2,0.3-0.3c0.1-0.1,0.2-0.2,0.4-0.2
				c0.2-0.1,0.3-0.3,0.4-0.4c0.3-0.1,0.5-0.2,0.7-0.2c0-0.1,0.4-0.3,1-0.4c0.6-0.1,1.3-0.2,2.1-0.2l1.4-0.1l1.1,0.3
				c0.3,0.1,0.6,0.2,0.9,0.3c0.3,0.1,0.4,0.2,0.5,0.2C259.8,2.6,260.1,2.3,260.3,1.3z"/>
			<path fill="#69643C" d="M271.9,1.9c1.1,0,2.2,0,3.1-0.1c1-0.1,1.4-0.2,1.4-0.3c0,0,0.3-0.1,0.9-0.1h0.8l0.1,0.3
				c0,0.2,0,0.4-0.1,0.6c-0.1,0.1-0.2,0.3-0.4,0.4c-0.2,0.1-0.6,0.2-1.2,0.4l-0.5,0.1v1.1c0,0.3,0,0.6,0,1c0.1,0,0.1,0.4,0.2,1.1
				c0,0.7,0.1,1.7,0.1,2.9c0,1.3,0,2.3-0.1,3c-0.1,0.7-0.1,1.1-0.2,1.1c0,0,0,0.3,0,0.9c0,0.2,0,0.5,0,0.8c0.1,0,0.1,0.6,0.1,1.8
				c0,1.2,0.1,2.6,0.1,4.3c0,1.7,0,3.2,0.1,4.5c0,1.3,0.1,2,0.1,2.2l0.1,0.6l0.6,0.1c0.2,0,0.5,0,1,0s0.8-0.1,1.2-0.1
				c0.4-0.1,0.8-0.1,1.1-0.2c0.3-0.1,0.5-0.1,0.5-0.2c1.1-0.1,2.1-0.1,2.9-0.1c1-0.1,1.7-0.1,2.2-0.1c0.5,0,0.8-0.1,1-0.1l0.5-0.3
				l-0.1-0.5c0-0.1,0-0.9-0.1-2.4c0-1.5-0.1-3.2-0.1-5.1c-0.1-3.5-0.2-5.9-0.2-7.2c-0.1-1.3-0.2-1.9-0.3-2c-0.1-0.8-0.1-1.6-0.1-2.2
				c-0.1-0.7-0.1-1.3-0.1-1.7c0-0.4-0.1-0.6-0.1-0.6s-0.2,0-0.5,0c-0.2,0-0.5,0.1-0.8,0.1c-1.1,0.2-1.6,0.1-1.5-0.3
				c0-0.1,0-0.3,0-0.4c0,0,0.1,0,0.3,0c0.1,0,0.3-0.1,0.4-0.3c0-0.1,0-0.2,0.1-0.2c0.1,0,0.2-0.1,0.3-0.1c0.2,0,0.3-0.1,0.3-0.1
				c0-0.1,0.1-0.1,0.4-0.2c0.3,0,0.6-0.1,1-0.1c0.3-0.1,0.7-0.1,1.1-0.2c0.4-0.1,0.7-0.1,0.9-0.2c0.2,0,0.5,0,1-0.1
				c0.4,0,0.9,0,1.3,0s0.8,0,1.2,0c0.4,0,0.6,0.1,0.7,0.1c0.3,0.1,0.4,0.3,0.4,0.6v0.4L292,4.7c-0.1,0.1-0.3,0.1-0.5,0.2
				c-0.2,0.1-0.3,0.1-0.5,0.1c-0.1,0-0.2,0-0.3,0.1c-0.1,0.1-0.1,0.1-0.1,0.2c0,0.1,0,0.2-0.1,0.3h-0.3l0.1,1.2c0,0.4,0,0.8,0.1,1.3
				c0,0.1,0.1,0.5,0.2,1.4c0.1,0.9,0.2,1.8,0.3,2.9c0.1,1.1,0.2,2.1,0.3,3.1c0.1,1,0.1,1.6,0.1,1.8c0,0.3,0,0.5,0,0.5
				c0.1,0,0.1,0.2,0.2,0.6c0.1,0.4,0.1,0.9,0.1,1.5c0.4,5.6,0.6,8.4,0.7,8.5c0,0.1,0.1,0.4,0.1,1.1c0.1,0.7,0.2,1.5,0.2,2.4
				c0.1,0.9,0.2,1.9,0.3,2.9c0.1,1,0.2,1.8,0.2,2.4c0.1,0.4,0.1,0.8,0.1,1.1c0,0.3,0.1,0.4,0.1,0.4c0.1,1.3,0.1,2.3,0.1,3.2
				c0,0.9,0,1.8,0.1,2.7c0,0.9,0.1,1.6,0.2,2c0.1,0.4,0.1,0.8,0.2,1.3c0.1,0.4,0.1,0.7,0.1,0.9c0.1,0.1,0.1,0.3,0.1,0.5
				c0,0.2,0.1,0.2,0.1,0.2c0,0,0,0.2,0,0.4c0,0.2,0,0.4,0,0.4c-0.1,0-0.1,0.1-0.2,0.2c0,0.1-0.1,0.2-0.1,0.4c0,0.4,0.1,0.6,0.1,0.6
				c0.1,0,0.1,0.1,0.2,0.1c0.1,0.1,0.1,0.2,0.1,0.3c0.1,0.4,0.2,0.7,0.4,0.9c0.2,0.2,0.6,0.3,1.1,0.5c0.3,0.1,0.6,0.1,0.7,0.1
				c0.1,0,0.1,0.1,0.1,0.1c0,0.3-0.8,0.6-2.3,0.7c-0.9,0-1.3,0.1-1.4,0.3c-0.1,0-0.1,0-0.1,0.1c0,0.1-0.1,0.1-0.1,0.1s-0.3,0-0.5,0
				s-0.6,0-0.8,0.1c-0.3,0.1-0.6,0.3-1,0.3c-0.3,0.1-0.6,0.1-0.8,0.1c-0.2,0-0.4,0-0.6,0.1c-0.2,0.1-0.3,0.1-0.3,0.2s-0.3,0.1-1,0.1
				c-0.7,0-1.1-0.1-1.2-0.2c-0.2-0.2-0.3-0.3-0.3-0.3c0.1-0.1,0.3-0.2,0.5-0.4c0.3-0.2,0.6-0.4,1-0.7c0.2-0.1,0.4-0.2,0.6-0.3
				c0.2-0.1,0.3-0.2,0.3-0.3c0,0,0-0.4,0-1c0-0.6,0-1.2-0.1-1.9c0-0.7-0.1-1.6-0.1-2.7c-0.1,0.1-0.1-0.1-0.2-0.5
				c-0.1-0.4-0.1-0.9-0.1-1.6c0-0.5,0-1.3-0.1-2.3c0-1-0.1-1.9-0.2-2.8c-0.1-0.8-0.1-1.8-0.2-2.8c-0.1-1-0.1-1.9-0.1-2.5
				c0-0.5,0-1-0.1-1.4c-0.1-0.4-0.1-0.6-0.2-0.6c0-0.1,0-0.2,0-0.4c0-0.2,0-0.4,0-0.6c0-0.3,0-0.6-0.1-1c0-0.4-0.1-0.8-0.1-1.2
				l-0.1-1.4h-1.4c-0.9,0-1.3,0.1-1.4,0.3c-0.3,0-0.6,0-0.8,0c-0.4,0-1,0-1.8,0.1c-0.7,0.1-1.5,0.2-2.2,0.3
				c-0.7,0.1-1.4,0.2-1.9,0.3c-0.5,0.1-0.8,0.2-0.8,0.2c0,0.1-0.1,0.1-0.3,0.1h-0.4v7.8c0,3.9,0,6.7-0.1,8.6
				c-0.1,1.9-0.2,2.8-0.3,2.8c0,0.5,0,1,0,1.4c0,0.9,0,1.3,0,1.4c0.1,0,0.2,0.1,0.3,0.3c-0.1,0.2,0,0.5,0.2,0.9
				c0.2,0.4,0.4,0.6,0.5,0.6c0.1,0.1,0.2,0.3,0.4,0.6c0.1,0.3,0.1,0.6,0.1,0.6c0,0.1-0.2,0.1-0.5,0.1s-0.7,0-1.1,0
				c-0.5,0-1.1,0-1.7,0.1c-0.2,0.2-0.8,0.3-1.8,0.3l-1.7,0.1l-0.3-0.4l-0.3-0.3l0.3-0.3c0.3-0.1,0.4-0.3,0.4-0.4
				c0.9-0.4,1.5-0.6,1.8-0.7c0.1,0,0.2,0,0.4-0.1c0-0.1,0-0.1,0-0.1s0-0.1,0.1-0.1h0.3v-4.1c-0.1-1.2-0.1-2.2-0.1-3
				c0-0.8-0.1-1.3-0.1-1.3c-0.1-7.2-0.1-13.8-0.1-19.9l-0.1-19.9l-0.3-0.7c-0.1-0.2-0.2-0.5-0.3-0.9c0-0.1-0.1-0.1-0.4-0.1
				c-0.3,0-0.6,0-1,0L269.5,3V2.6c-0.1-0.3,0-0.5,0.3-0.6C270.1,1.9,270.8,1.9,271.9,1.9z"/>
			<path fill="#69643C" d="M303.7,3.7c1.7-0.1,3.1-0.2,4.2-0.3c1.1-0.1,1.6-0.3,1.6-0.4c0.5-0.1,1-0.1,1.5-0.1
				c0.4,0,0.9,0.1,1.5,0.1c0,0.1,0.1,0.1,0.3,0.2c0.2,0.1,0.4,0.1,0.6,0.1c0.6,0.1,1.3,0.2,2,0.4c0.7,0.2,1.2,0.4,1.3,0.5
				c0.2,0.2,0.4,0.3,0.6,0.3c0.3,0.1,0.6,0.4,1,0.9c0.4,0.5,0.7,1,0.9,1.5c0.1,0.2,0.2,0.5,0.3,0.7c0.1,0.2,0.2,0.4,0.2,0.5
				c0,0.1,0,0.1,0,0.1s0,0.1,0.1,0.1c0.1,0,0.2,0.3,0.3,0.9c0.1,0.5,0.2,1.2,0.3,2c0.1,0.8,0.2,1.6,0.3,2.5c0.1,0.9,0.1,1.7,0.1,2.4
				c0,0.6,0,1.3-0.1,2c-0.1,0.7-0.1,1.3-0.2,1.9c-0.1,0.6-0.2,1.1-0.3,1.5c-0.1,0.4-0.2,0.6-0.3,0.7c-0.1,0.1-0.3,0.4-0.4,0.9
				c-0.3,0.6-0.5,0.9-0.6,1c-0.2,0.2-0.4,0.6-0.7,1.2c-0.1,0.1-0.3,0.4-0.7,0.9c-0.4,0.4-0.9,0.8-1.4,1.2c-0.1,0.1-0.2,0.2-0.4,0.3
				c-0.2,0.1-0.4,0.2-0.5,0.3c-1,0.4-0.9,0.6,0.3,0.7c1.5,0.1,2.4,0.4,2.9,0.9c0.1,0.2,0.3,0.3,0.4,0.3c0.1,0,0.3,0.2,0.7,0.7
				c0.4,0.5,0.6,0.7,0.6,0.8c0,0.2,0.1,0.3,0.3,0.5c0.2,0.1,0.3,0.3,0.3,0.4c0,0.2,0.1,0.3,0.3,0.3c0.1,0,0.3,0.3,0.6,0.7
				c0.1,0.3,0.3,0.6,0.4,0.8c0.1,0.1,0.2,0.2,0.3,0.4c0.1,0.2,0.2,0.4,0.3,0.6c0.3,0.5,0.4,0.8,0.4,1c0.1,0,0.1,0.1,0.2,0.3
				s0.1,0.4,0.2,0.6l0.3,0.9v3.1c0,1.3,0,2.2,0,2.8c0,0.6-0.1,1.1-0.3,1.6c-0.1,0.4-0.2,0.8-0.3,1.3c-0.1,0.2-0.3,0.6-0.4,1.2
				c-0.3,0.6-0.5,1-0.6,1.2c-0.1,0.2-0.3,0.4-0.4,0.8c-0.1,0.1-0.1,0.2-0.2,0.4c-0.1,0.2-0.1,0.3-0.2,0.4c-0.1,0.2-0.4,0.6-0.9,1.1
				c-0.4,0.5-0.7,0.7-0.8,0.7c-0.1,0-0.3,0-0.4,0.3c-0.2,0.1-0.6,0.3-1.1,0.6c-0.5,0.2-0.8,0.3-1,0.3c-0.2,0.1-0.3,0.1-0.3,0.1
				c0.1,0.1-0.2,0.3-0.8,0.4c-0.6,0.1-1.4,0.2-2.5,0.4c-0.5,0-1,0-1.4,0.1c-0.4,0.1-0.6,0.1-0.7,0.2c-0.1,0.1-0.7,0.2-2,0.3
				c-1.2,0.1-2.5,0.2-3.9,0.2H303v-0.6c0-0.3,0-0.5,0-0.6c0.1,0,0.2-0.1,0.2-0.4v-0.4l0.3,0.1c0.2,0.1,0.5,0,0.8-0.2
				c0.3-0.2,0.5-0.4,0.6-0.6c0-0.2,0-0.6,0-1.2c0-0.5,0-1.1-0.1-1.7c0-0.6,0-1.2,0-1.7c0-0.5,0-0.9,0-1.2c0-0.3,0-0.8-0.1-1.6
				c0-0.8-0.1-1.6-0.1-2.5c0-2.1-0.1-3.2-0.3-3.3c-0.1,0-0.1-0.1,0-0.1c0.3-0.2,0.4-0.3,0.2-0.3c-0.1-0.1-0.1-0.3-0.2-0.7
				c0-0.4-0.1-1-0.2-1.6c0-1.6-0.1-3.4-0.2-5.6c-0.1-2.2-0.2-4.3-0.3-6.3c-0.1-2-0.2-3.7-0.3-5.1c-0.1-1.4-0.2-2.1-0.2-2.1
				c0-0.1,0-0.5-0.1-1.4c-0.1-0.9-0.1-1.9-0.1-3.1c-0.1-1.3-0.1-2.4-0.2-3.5c0-1-0.1-1.7-0.1-1.9l-0.1-0.9l-0.9-0.3
				c-0.2,0-0.5-0.1-0.7-0.2c-0.2-0.1-0.4-0.2-0.5-0.3c-0.3-0.1-0.5-0.2-0.6-0.3c0,0-0.1-0.1-0.3-0.4c-0.1-0.1,0-0.4,0.1-0.7
				c0.1-0.3,0.3-0.6,0.5-0.6c0.1,0,0.5,0,1.2-0.1C301.9,3.8,302.8,3.7,303.7,3.7z M313.1,4.4c0,0-0.1-0.1-0.3-0.3
				c-0.1-0.1-0.6-0.2-1.3-0.2c-1.7,0-2.5,0.1-2.5,0.2c0,0.2-0.2,0.3-0.5,0.3c-0.1,0-0.3,0-0.6,0.1c-0.2,0.1-0.4,0.1-0.6,0.2
				l-0.6,0.3l0.1,0.9c0,0.3,0,1.1,0.1,2.5c0.1,1.4,0.1,2.9,0.2,4.5s0.2,3.6,0.3,6c0,0,0.1,0.4,0.2,1.1c0.1,0.7,0.2,1.5,0.3,2.5
				c0.1,0.9,0.2,1.9,0.3,2.8c0.1,0.9,0.2,1.6,0.2,2.1c0,0.9,0.1,1.4,0.3,1.6s0.6,0.2,1.4,0.2c0.5-0.1,1.1-0.2,1.8-0.3
				c0.7-0.1,1-0.3,1-0.4c0,0,0.1-0.1,0.4-0.3c0.3-0.1,0.5-0.3,0.6-0.4c0-0.2,0.1-0.3,0.3-0.3c0.1,0,0.5-0.2,0.9-0.7
				c0.5-0.5,0.8-0.9,1-1.2c0.1-0.3,0.3-0.6,0.4-0.7c0,0,0.1-0.1,0.2-0.3c0.1-0.2,0.2-0.4,0.3-0.7c0.1-0.3,0.2-0.5,0.2-0.8
				c0.1-0.3,0.1-0.5,0.1-0.6c0-0.2,0.1-0.3,0.1-0.3c0.1,0,0.3-0.4,0.3-1.3s0.1-1.7,0.1-2.6c0-0.4,0-0.9,0-1.5c0-0.5,0-1-0.1-1.5
				c-0.1-0.5-0.1-0.9-0.2-1.2c-0.1-0.3-0.1-0.5-0.2-0.5c0-0.1-0.1-0.3-0.1-0.4c0-0.1,0-0.4-0.1-0.9c-0.1-0.4-0.2-0.9-0.3-1.3
				c-0.1-0.4-0.2-1-0.4-1.7c-0.2-0.2-0.3-0.4-0.3-0.8c-0.2-0.4-0.5-1.1-0.9-1.9c-0.1,0-0.2-0.1-0.3-0.3c-0.1-0.2-0.5-0.6-1-1
				C313.6,4.6,313.2,4.4,313.1,4.4z M314.6,30.5c-0.1,0-0.4-0.1-0.9-0.3c-0.1,0-0.4-0.1-0.8-0.1c-0.4,0-0.7-0.1-1.1-0.1
				c-0.4,0-0.7,0-1.1,0s-0.6,0-0.7,0c-0.1,0.1-0.3,0.1-0.6,0.1c-0.2,0-0.4,0.1-0.6,0.3l-0.3,0.3v0.9c0,0.6,0,0.9,0,1
				c0.1,0,0.2,0.5,0.3,1.6c0.1,1,0.2,2.3,0.4,3.8c0.1,1.5,0.3,2.8,0.4,3.8c0.1,1,0.2,1.6,0.2,1.6c0,0.1,0,0.6,0.1,1.6
				c0.1,1,0.1,2.1,0.2,3.5c0.1,1.3,0.3,2.5,0.3,3.5c0.1,1,0.1,1.5,0.2,1.6c0,0,0.3,0,0.7,0c0.5,0,1-0.1,1.5-0.2
				c0.5-0.1,1-0.2,1.5-0.3c0.5-0.1,0.7-0.2,0.7-0.3c0.1,0,0.1,0,0.1-0.1c0,0,0.1-0.1,0.1-0.1c0.3,0.1,0.6,0,1-0.1s0.6-0.4,0.7-0.6
				c0.1-0.2,0.3-0.4,0.4-0.6c0.1-0.1,0.2-0.2,0.3-0.5c0.1-0.3,0.2-0.5,0.3-0.8c0.1-0.3,0.2-0.6,0.3-0.9c0.1-0.3,0.1-0.5,0.1-0.6
				c0-0.2,0.1-0.3,0.1-0.3c0.1,0,0.3-0.4,0.4-1.2c0.1-0.8,0.2-1.8,0.2-2.9c0.1-0.7,0.1-1.4,0-2c-0.1-0.6-0.1-1.3-0.2-2
				c-0.1-0.5-0.1-1-0.2-1.4s-0.1-0.6-0.2-0.6c-0.1-0.5-0.2-0.8-0.3-1c-0.1-0.6-0.2-1.2-0.4-1.7c-0.2-0.6-0.4-0.9-0.5-1.1
				c-0.1-0.1-0.3-0.5-0.6-0.9c-0.1-0.3-0.3-0.5-0.4-0.6c0,0,0,0,0-0.1c0-0.1-0.2-0.3-0.5-0.7c-0.3-0.4-0.6-0.7-0.8-0.9
				C314.8,30.8,314.6,30.6,314.6,30.5z"/>
			<path fill="#69643C" d="M336.5,2c0-0.2,0.1-0.3,0.4-0.4c0.2,0,0.6,0,1.2,0l1-0.1l-0.7,0.7c-0.2,0-0.6,0.1-1.2,0.4
				c-0.7,0.3-1.1,0.5-1.4,0.6c-0.1,0.2-0.2,0.3-0.3,0.3c-0.1,0-0.2,0-0.2,0c-0.1,0-0.3,0.1-0.6,0.4s-0.5,0.6-0.7,0.9
				c-0.2,0.3-0.5,0.7-0.6,1c-0.2,0.3-0.3,0.6-0.3,0.7c0,0.2,0,0.3,0,0.4c-0.1,0-0.2,0.3-0.3,0.9c-0.1,0.6-0.2,1.3-0.3,2.2
				c-0.1,0.9-0.2,1.8-0.2,2.8c0,1-0.1,1.8-0.1,2.6c0,0.5,0,1.2-0.1,1.9c-0.2,0-0.3,2.2-0.3,6.6c0,1.8,0,4,0.1,6.6
				c0.1,0,0.1,0.5,0.1,1.4c0,1,0.1,2.1,0.2,3.4c0,1.2,0,2.4,0.1,3.5s0.1,2.2,0.2,3.1c0.1,0.9,0.2,1.6,0.3,2.2
				c0.1,0.5,0.2,0.8,0.3,0.8c0-0.1,0,0,0.1,0.3c0.1,0.3,0.1,0.6,0.1,0.9c0,0.5,0,1.1,0.1,1.8c0.1,0.7,0.1,1.4,0.3,2
				c0.1,0.7,0.2,1.2,0.4,1.7c0.1,0.5,0.2,0.7,0.3,0.7c0-0.1,0,0,0.1,0.3c0.1,0.3,0.2,0.5,0.4,0.8c0.1,0.4,0.2,0.8,0.3,1.2
				c0.1,0,0.2,0.1,0.3,0.2c0.1,0.1,0.3,0.2,0.4,0.3c0.2,0.2,0.7,0.4,1.4,0.6c0.7,0.1,1.3,0.1,1.8,0c0.5,0,0.8-0.1,0.9-0.3
				c0-0.1,0.1-0.2,0.2-0.3c0.1-0.1,0.3-0.2,0.5-0.3c0.1-0.1,0.3-0.3,0.4-0.4c0.1-0.1,0.2-0.2,0.2-0.3c0-0.2,0.1-0.3,0.3-0.5
				c0.1-0.1,0.2-0.2,0.3-0.3c0.1-0.1,0.2-0.3,0.2-0.4c0.2-0.3,0.3-0.6,0.5-0.9c0-0.1,0.1-0.2,0.2-0.3c0.1-0.1,0.3-0.3,0.4-0.4
				c0.1-0.1,0.1-0.2,0.2-0.5c0.1-0.2,0.2-0.5,0.3-0.8c0.1-0.2,0.2-0.5,0.2-0.7c0.1-0.2,0.2-0.3,0.3-0.3c0.1-0.5,0.2-1,0.3-1.3
				c0.1-0.4,0.2-0.7,0.3-1.1c0.1-0.3,0.1-0.6,0.1-0.7c0-0.1,0-0.1,0.1-0.1c0,0,0.1-0.1,0.1-0.2c0.1,0,0.2-0.5,0.4-1.4
				c0.1-0.9,0.2-2,0.3-3.3c0.1-1.3,0.2-2.7,0.2-4.1c0.1-1.4,0.1-2.7,0.1-3.7c0-1.4,0.1-2.2,0.3-2.2c0-1,0-1.9,0-2.8
				c0-0.8,0-1.9,0-3.1c-0.1,0-0.2-0.2-0.2-0.7c0-0.4-0.1-1-0.1-1.6c0-0.6,0-1.5-0.1-2.4c-0.1-1-0.2-1.9-0.3-2.9s-0.2-1.7-0.3-2.4
				c-0.1-0.7-0.2-1-0.2-1c-0.1-0.1-0.2-0.3-0.3-0.7c-0.1-0.4-0.2-0.9-0.2-1.4c-0.1-0.5-0.3-1.2-0.5-1.9c-0.1-0.1-0.2-0.1-0.2-0.2
				c0-0.1-0.1-0.2-0.1-0.3V9.4l-1.2,0.2c-0.4,0-0.7,0-1,0.1c-0.3,0.1-0.4,0.1-0.4,0.2c-0.4,0.1-0.8,0.1-1,0.1c-0.4,0-0.7,0-1-0.1
				c-0.3-0.1-0.4-0.1-0.4-0.2c-0.1,0-0.2,0-0.3,0c-0.2,0-0.5-0.1-1-0.4c-0.5-0.3-0.7-0.5-0.7-0.7c-0.3-0.2-0.4-0.4-0.5-0.5l-0.5-0.5
				L336,7c0-0.3,0.1-0.6,0.3-0.9c0.1-0.3,0.2-0.6,0.3-0.7c0.1-0.2,0.4-0.5,0.8-0.8c0.4-0.3,0.7-0.4,1-0.4c0.2,0,0.3,0,0.3-0.2
				c0-0.1,0.5-0.2,1.4-0.1c0.9,0,1.4,0,1.4,0.1c0,0.2,0.1,0.3,0.3,0.4c0.1,0,0.3,0.2,0.8,0.5c0.4,0.4,0.7,0.6,0.8,0.7
				c0,0.1,0.2,0.4,0.5,0.7l0.5,0.7l0.4-0.2c0.3,0,0.5-0.1,0.5-0.3c0.1,0,0.2-0.1,0.4-0.2c0.2-0.1,0.4-0.2,0.7-0.3
				c0.5-0.3,0.8-0.5,0.9-0.6c0.2-0.1,0.5-0.4,1-0.7c0.5-0.3,0.9-0.6,1-0.7c0.2-0.2,0.3-0.3,0.5-0.3c0.1,0,0.1,0,0.2,0
				c0.1,0,0.1,0.1,0,0.1c-0.1,0.2-0.3,0.5-0.7,1c-0.4,0.5-0.6,0.7-0.7,0.7c-0.1,0-0.4,0.1-0.7,0.4c-0.3,0.3-0.7,0.6-1.1,0.9
				c-0.4,0.3-0.7,0.6-1,0.9c-0.3,0.3-0.4,0.5-0.4,0.6c0,0.1,0,0.3,0.1,0.6c0.1,0.3,0.2,0.6,0.3,1c0.1,0.3,0.2,0.6,0.4,0.9
				c0.1,0.3,0.4,0.9,0.8,1.8c0.1,0.4,0.2,0.8,0.4,1.2c0,0.1,0.1,0.3,0.2,0.7c0.1,0.4,0.3,0.8,0.4,1.2c0.1,0.4,0.3,0.9,0.4,1.3
				c0.1,0.4,0.2,0.8,0.2,1.3c0.1,0,0.1,0.1,0.1,0.4s0.1,0.5,0.2,0.9c0,0.4,0,1,0.1,1.8c0.1,0.8,0.1,1.7,0.2,2.5
				c0.1,1.7,0.2,3.5,0.2,5.6c0,2.1,0,3.8-0.1,5.1c-0.1,0.5-0.2,1.2-0.3,2c-0.1,0.8-0.1,1.5-0.2,2.1c0,0.7,0,1.3-0.1,1.8
				s-0.1,0.8-0.2,0.8c0,0.2,0,0.3,0,0.5c-0.1,0.2-0.2,0.6-0.3,1.1c-0.1,0.5-0.2,1.1-0.4,1.7c-0.1,0.6-0.2,1.1-0.3,1.6
				c-0.1,0.5-0.1,0.7-0.1,0.7c-0.1,0-0.2,0.1-0.3,0.4c-0.1,0.2-0.2,0.5-0.3,0.7c-0.2,0.7-0.3,1.1-0.5,1.2c-0.1,0.2-0.4,0.7-0.7,1.4
				c-0.2,0.4-0.3,0.7-0.5,1c-0.1,0.3-0.3,0.5-0.3,0.6c-0.1,0.2-0.3,0.4-0.6,0.6c0,0.1-0.2,0.4-0.7,0.9c-0.5,0.5-0.9,0.9-1.4,1.3
				c-0.2,0.2-0.4,0.4-0.8,0.6c-0.4,0.2-0.7,0.4-0.9,0.5c-0.2,0-0.3,0.1-0.4,0.4c0,0.1-0.3,0.2-1,0.4c-0.7,0.2-1.3,0.3-1.9,0.3
				c-0.6,0-1.2-0.1-1.8-0.3c-0.5-0.2-0.9-0.4-1.2-0.6c-0.2-0.2-0.6-0.5-1.2-1c-0.5-0.4-0.9-0.7-1.1-0.9c-0.1,0-0.2-0.1-0.4-0.3
				c-0.2-0.2-0.5-0.5-0.7-0.7c-0.2-0.3-0.5-0.6-0.7-0.8c-0.2-0.3-0.3-0.4-0.4-0.5c0-0.2-0.1-0.3-0.3-0.3c-0.1,0.1-0.2,0-0.4-0.4
				c-0.1-0.4-0.3-0.8-0.3-1.3c-0.1-0.2-0.2-0.6-0.3-1c-0.1,0-0.2-0.2-0.3-0.5c-0.1-0.3-0.2-0.8-0.2-1.3c-0.2-0.4-0.3-0.8-0.4-1.2
				c-0.1-0.3-0.2-0.5-0.3-0.5c-0.1-0.1-0.2-0.5-0.3-1.2c-0.1-0.7-0.2-1.6-0.3-2.7c-0.1-1-0.2-2.1-0.3-3.2c-0.1-1.1-0.1-2,0-2.8
				c0-0.3-0.1-0.7-0.2-1.2c-0.1,0-0.2-0.3-0.2-0.8c-0.1-0.5-0.1-1.1-0.1-1.8c-0.1-0.7-0.1-1.5-0.1-2.5s0-1.9,0-2.9
				c0-0.9,0.1-1.7,0.1-2.3c0.1-0.7,0.2-1,0.3-1c0-0.1,0-0.2,0.1-0.4c0.1-0.2,0.1-0.4,0.1-0.7c0-0.4,0-1.1,0.1-2
				c0.1-0.9,0.1-1.7,0.2-2.6c0.1-0.9,0.2-1.6,0.3-2.3c0.1-0.6,0.2-1,0.3-1c0.2-0.2,0.3-0.7,0.5-1.4c0.3-0.9,0.5-1.4,0.5-1.4
				c0.1-0.2,0.4-0.8,0.7-1.8c0.1-0.4,0.2-0.9,0.5-1.4c0.1,0,0.2-0.1,0.3-0.3c0.1-0.2,0.3-0.5,0.4-0.7c0.1-0.2,0.1-0.5,0.2-0.7
				c0.1-0.2,0.2-0.3,0.3-0.3c0.2-0.2,0.4-0.4,0.5-0.7c0.1-0.1,0.3-0.3,0.4-0.4c0.1-0.1,0.2-0.2,0.3-0.2c0.9-0.8,1.5-1.4,1.9-1.7
				c0.1-0.1,0.5-0.4,1.2-0.6c0.6-0.3,1.1-0.4,1.2-0.4C336.4,2.2,336.4,2.1,336.5,2z M341.8,5.6c-0.1,0-0.3,0-0.5-0.2
				c-0.1-0.1-0.3-0.1-0.5-0.2c-0.3,0-0.5-0.1-0.8-0.1c-0.3,0-0.5,0-0.7,0c-0.2,0-0.3,0.1-0.3,0.2c-0.1,0.1-0.3,0.2-0.3,0.2
				c-0.3,0-0.5,0.1-0.7,0.4c-0.2,0.2-0.3,0.5-0.3,0.9c0,0.7,0.2,1.2,0.7,1.4c0.5,0.2,1.2,0.3,2.3,0.2c0.8-0.1,1.5-0.2,2-0.4
				c0.5-0.2,0.8-0.3,0.8-0.5c0-0.1,0-0.2-0.1-0.4c-0.1-0.2-0.3-0.4-0.4-0.7c-0.2-0.2-0.3-0.4-0.5-0.6C342,5.7,341.9,5.6,341.8,5.6z"
				/>
			<path fill="#69643C" d="M384.2,23.8c0.7,0.2,1.1,0,1.5-0.6c2.4-3.8,4.8-7.6,7.2-11.4c0.8-1.3,1.6-2.5,2.3-3.8
				c-0.3-0.3-0.6-0.5-0.9-0.7c-0.3,0.4-0.5,0.7-0.7,1c-2.6,3.6-5.2,7.1-7.8,10.7c-0.2,0.2-0.3,0.5-0.5,0.7c-0.1,0.1-0.3,0.1-0.5,0.1
				c0-0.2-0.1-0.4-0.1-0.6c0.1-0.3,0.3-0.5,0.5-0.7c2.5-3.8,5-7.6,7.6-11.4c0.5-0.7,0.3-1-0.5-1.3c-0.2,0.3-0.5,0.7-0.7,1
				c-2.6,3.5-5.3,7-7.9,10.5c-0.2,0.3-0.4,0.5-0.6,0.8c-0.1,0.1-0.4,0.1-0.4,0c-0.1-0.1-0.1-0.3-0.1-0.5c0.1-0.3,0.3-0.6,0.5-0.8
				c2.6-3.7,5.2-7.5,7.9-11.2c0.1-0.2,0.2-0.4,0.4-0.7c-0.3-0.2-0.6-0.4-0.8-0.5c-3.4,4-6.5,8.3-9.9,12.2c-0.2-0.1-0.3-0.3-0.5-0.4
				c3.1-4.2,6.2-8.5,9.3-12.7c-0.5-0.4-0.8-0.6-1.1-0.8c-0.2,0.2-0.4,0.3-0.5,0.5c-3.7,4.5-7.4,9-11,13.6c-0.2,0.3-0.3,0.9-0.1,1.2
				c0.7,1.2,1.5,2.4,2.3,3.7c-0.9,0.8-1.2,2.4-2.6,2.1c-0.3,0.8-0.4,1.5-0.8,2c-1.3,1.6-2.6,3.2-3.9,4.9c-0.3-0.4-0.4-1-0.4-1.9
				c-0.1-1.4-0.2-2.9-0.5-4.3c-1.2-5.2-3.9-9.5-7.2-13.4c-2.4-2.8-5-5.3-8.3-7c-0.5-0.3-1.2-0.1-1.8-0.2c0.1,0.6,0.2,1.2,0.4,1.7
				c5,8.4,10.1,16.7,15.2,25.1c0.4,0.6,0.9,1.2,1,2c-0.3,0.3-0.5,0.6-0.8,0.9c-4.6,5.7-9.2,11.3-13.9,17c-0.9,1.1-1.1,2.2-0.3,3.5
				c1,1.8,3.5,1.9,4.7,0.2c0.6-0.8,1.2-1.7,1.7-2.5c3.5-5.3,6.9-10.6,10.4-15.9c0.2,0.4,0.4,0.7,0.6,1.1c3.1,5.9,6.3,11.8,9.4,17.7
				c0.7,1.3,2,1.7,3.3,1.2c1.4-0.5,2.3-2.9,1.5-4c-4.1-5.9-8.3-11.7-12.4-17.6c-0.2-0.3-0.5-0.6-0.7-1c1.2-1.8,2.3-3.5,3.5-5.3
				c0.5-0.8,0.9-2,2.3-1.7c-0.9-1.8,0.7-2.5,1-3.6C381.7,22.9,382.9,23.3,384.2,23.8z M362.1,12.8c-1.1-1.5-1.2-1.5-2.9-0.8
				c-1.4-2.3-2.8-4.6-4.2-7c3.8,0.9,12.6,11.8,13.5,16.5C366.4,18.8,364.3,15.8,362.1,12.8z M358.1,51.6c-0.8-0.7-0.9-1.3-0.4-2.1
				c4.2-5.2,8.4-10.4,12.6-15.6c0.1,0,0.2,0,0.2,0C366.4,39.8,362.3,45.7,358.1,51.6z M375,36.9c2.5,3.7,5.1,7.3,7.6,11
				c0.5,0.7,1,1.4,1.5,2.1c0.5,0.7,0.4,1.3-0.3,2c-3.1-5-6.1-10-9.1-15C374.8,37,374.9,37,375,36.9z M377.8,17.5
				c-0.1-0.2-0.1-0.7,0-0.9c1.6-2,3.1-3.9,4.7-5.8c0.1,0.1,0.1,0.1,0.2,0.2c-1.3,1.8-2.6,3.6-4,5.5c2.2,1.8,4.3,3.5,6.4,5.1
				c-0.3,1-0.8,1.2-1.7,0.9C380.9,21.6,379.1,19.8,377.8,17.5z"/>
			<path fill="#69643C" d="M426.2,56c-2,0.9-3.7,1.2-5,0.7c-1.4-0.4-2.2-1.8-2.5-4c-0.3-2.3,0-5.6,1-10c1-4.4,2.8-10.2,5.5-17.3
				c-1.6,0.4-2.9,0.6-4,0.5s-1.9-0.4-2.5-1c-0.6-0.5-1-1.3-1.1-2.2c-0.1-0.9,0-2,0.4-3.2c0-0.4,0.1-0.8,0.4-1
				c0.3-0.3,0.6-0.4,0.9-0.4c0.3,0,0.6,0,0.8,0.2c0.2,0.2,0.3,0.5,0.1,0.9c-0.1,0.2-0.2,0.5-0.3,0.9c-0.1,0.4-0.2,0.8-0.2,1.3
				c0,0.4,0,0.9,0.2,1.3c0.1,0.4,0.4,0.7,0.9,0.9c0.5,0.2,1.1,0.2,2,0.1c0.9-0.1,2-0.5,3.4-1.2c1.1-3.7,2.3-6.9,3.6-9.7
				c1.3-2.8,2.7-5,4.1-6.9c1.4-1.8,2.8-3.2,4.1-4.1c1.3-0.9,2.5-1.4,3.6-1.4c1.1,0,2,0.4,2.7,1.3c0.7,0.9,1.2,2.2,1.3,4
				c0.1,1.3-0.1,2.5-0.7,3.8c-0.6,1.3-1.3,2.5-2.3,3.8c-1,1.3-2,2.4-3.2,3.6c-1.2,1.1-2.3,2.2-3.5,3.2c-1.1,1-2.1,1.8-3,2.6
				c-0.9,0.8-1.5,1.4-1.9,1.8c-1.4,4.5-2.7,8.3-3.7,11.4c-1,3.1-1.8,5.7-2.4,7.8c-0.6,2.1-1.1,3.7-1.3,4.9c-0.3,1.2-0.4,2.1-0.4,2.7
				c0,0.6,0.2,1,0.4,1.2c0.3,0.2,0.6,0.3,1,0.4c0.7,0.1,1.6,0,2.7-0.4c1.1-0.4,2.3-0.9,3.7-1.6c1.3-0.7,2.7-1.6,4.2-2.6
				c1.5-1,2.9-2,4.2-3.2c1.4-1.1,2.6-2.2,3.8-3.4c1.2-1.2,2.1-2.3,2.9-3.3c0.2-0.3,0.4-0.5,0.7-0.5c0.3-0.1,0.5-0.1,0.8,0
				c0.2,0.1,0.4,0.2,0.5,0.4c0.1,0.2,0.2,0.5,0.1,0.9c-0.7,1.3-1.8,2.7-3.3,4.3c-1.5,1.5-3.3,3.1-5.3,4.6c-2,1.5-4.2,3-6.5,4.4
				C430.8,53.7,428.5,54.9,426.2,56z M443.4,5.7c-0.1-1.1-0.3-1.7-0.7-1.9c-0.4-0.2-0.9,0-1.6,0.6c-0.6,0.6-1.3,1.4-2.1,2.5
				c-0.8,1.1-1.5,2.4-2.2,3.7c-0.7,1.4-1.4,2.8-2.1,4.3c-0.7,1.5-1.2,2.9-1.6,4.2c1.2-0.8,2.5-1.7,3.7-2.9c1.3-1.2,2.4-2.3,3.3-3.6
				c1-1.2,1.8-2.5,2.4-3.7C443.1,7.7,443.4,6.6,443.4,5.7z"/>
			<path fill="#69643C" d="M447.4,56.4c-1.5-0.5-2.6-1.3-3.4-2.4c-0.8-1.1-1.2-2.4-1.4-3.8c-0.2-1.5-0.1-3,0.1-4.7
				c0.3-1.7,0.8-3.3,1.5-5c1.1-2.8,2.4-5.2,3.9-7.3c1.5-2.1,3-3.8,4.6-5.2c1.6-1.4,3-2.5,4.5-3.2c1.4-0.7,2.6-1.1,3.6-1.1
				c0.7-0.2,1.3-0.1,1.8,0.2c0.6,0.3,1,0.7,1.4,1.3c0.4,0.6,0.6,1.2,0.8,1.9c0.2,0.7,0.2,1.4,0.1,2.1c0.5-0.5,0.9-1.2,1.2-2.1
				c0.3-0.9,0.7-1.6,1.1-2.4c0.2-0.4,0.5-0.6,0.8-0.7c0.3-0.1,0.6,0,1,0.1c0.3,0.2,0.6,0.4,0.9,0.8c0.3,0.4,0.5,0.8,0.6,1.3
				c-1.9,5.3-3.4,9.7-4.7,13.1c-1.2,3.4-2.2,6.2-2.8,8.2c-0.6,2-0.9,3.4-1,4.2c0,0.8,0.3,1.3,0.9,1.3c1-0.2,2.1-0.6,3.3-1.4
				c1.2-0.8,2.4-1.7,3.6-2.8c1.2-1.1,2.3-2.3,3.4-3.5c1.1-1.3,2.1-2.5,3-3.6c0.5-0.7,1-1.3,1.3-1.8c0.4-0.6,0.7-1.1,1-1.5
				c0.7,0,1.1,0.2,1.2,0.6c0.1,0.4,0.1,0.8-0.1,1.2c-0.3,0.4-0.7,0.8-1.1,1.3c-0.4,0.5-0.8,1-1.3,1.6c-1,1.2-2.2,2.6-3.5,4.1
				c-1.3,1.5-2.6,2.9-4.1,4.1c-1.5,1.3-3,2.4-4.6,3.3c-1.6,0.9-3.2,1.4-4.7,1.6c-0.9,0.2-1.5,0-2-0.6c-0.5-0.6-0.8-1.4-0.9-2.4
				c-0.1-1-0.1-2,0-3.1c0.1-1.1,0.3-2,0.6-2.7c-0.4,0.5-1,1.3-1.8,2.3c-0.8,1-1.6,2-2.6,3c-1,1-2,1.8-3.1,2.6
				C449.5,56.3,448.4,56.6,447.4,56.4z M461.3,27.2c-0.5-0.2-1.2,0.1-2.2,0.8c-1,0.7-2.1,1.7-3.3,3c-1.2,1.3-2.4,2.8-3.6,4.6
				c-1.2,1.8-2.3,3.6-3.2,5.4c-0.7,1.4-1.2,2.8-1.6,4.2c-0.4,1.4-0.6,2.7-0.7,3.8c-0.1,1.2,0,2.2,0.3,3c0.3,0.8,0.7,1.3,1.3,1.6
				c0.5,0.2,1.3-0.2,2.4-1.2c1.1-1,2.3-2.3,3.6-4c1.3-1.7,2.6-3.6,3.8-5.7c1.3-2.1,2.3-4.2,3.1-6.2c0.8-2,1.3-3.9,1.4-5.6
				C462.8,29.3,462.3,28,461.3,27.2z"/>
			<path fill="#69643C" d="M491.7,48.6c-0.6,1.3-1.3,2.4-2.2,3.5c-0.9,1.1-1.9,1.9-3,2.7c-1.1,0.7-2.3,1.3-3.5,1.6
				c-1.2,0.4-2.3,0.4-3.4,0.3c-1.1-0.2-2-0.6-2.8-1.4c-0.8-0.7-1.4-1.8-1.8-3.3c-0.2-1.6-0.1-3.3,0.3-5.2c0.4-1.9,1-3.8,1.8-5.8
				c0.7-1.7,1.6-3.3,2.5-4.9c1-1.6,2-3.1,3.1-4.4c1.1-1.4,2.3-2.5,3.5-3.5c1.2-1,2.4-1.7,3.7-2.2c1.2-0.5,2.4-0.6,3.6-0.4
				c1.2,0.2,2.2,0.8,3.2,1.8l6.7-22.9c0.2-0.6,0.6-1.1,1-1.4c0.4-0.3,0.9-0.4,1.3-0.3c0.5,0.1,0.9,0.3,1.2,0.7
				c0.3,0.4,0.5,0.9,0.6,1.6c-1.8,6.7-3.5,12.9-5,18.6c-1.6,5.7-2.8,10.7-3.9,15c-0.3,1.2-0.6,2.5-0.8,3.9c-0.2,1.4-0.4,2.8-0.5,4.1
				c-0.1,1.3-0.1,2.6-0.1,3.8c0,1.2,0.2,2.2,0.4,3c0.3,0.8,0.7,1.4,1.2,1.7c0.5,0.3,1.2,0.3,2.1,0c0.9-0.4,1.8-1,2.7-1.9
				s1.7-1.9,2.6-3.1c0.8-1.2,1.6-2.4,2.4-3.6c0.8-1.3,1.4-2.4,2.1-3.5c0.6-1.1,1.1-2.1,1.6-2.9c0.4-0.8,0.8-1.4,1-1.7
				c0.5-0.1,0.8,0,1,0.2c0.2,0.3,0.2,0.8,0,1.5c-0.8,1.1-1.6,2.5-2.6,4.2c-1,1.8-2,3.5-3.2,5.3c-1.2,1.8-2.4,3.4-3.7,4.8
				c-1.3,1.4-2.7,2.3-4.2,2.7c-2.9,0.2-5-0.6-6.4-2.2C492.7,53.5,491.9,51.3,491.7,48.6z M490.7,28.3c-1,0.7-1.9,1.6-2.8,2.6
				c-0.9,1-1.7,2.1-2.5,3.3c-0.8,1.2-1.5,2.4-2.1,3.7c-0.6,1.3-1.1,2.6-1.6,3.8c-0.5,1.5-0.8,2.9-1,4.3c-0.2,1.4-0.3,2.7-0.1,3.8
				c0.1,1.1,0.5,2.1,1,2.9c0.5,0.8,1.3,1.3,2.2,1.5c0.7,0.1,1.5-0.3,2.4-1.2c0.9-0.9,1.8-2,2.7-3.5c0.9-1.5,1.8-3.1,2.7-4.9
				c0.9-1.8,1.6-3.7,2.2-5.5c0.6-1.7,1-3.4,1.3-5c0.3-1.6,0.4-3,0.3-4.1c-0.1-0.5-0.4-0.9-0.7-1.3c-0.4-0.3-0.8-0.5-1.2-0.7
				c-0.4-0.1-0.9-0.1-1.4-0.1C491.5,28,491.1,28.1,490.7,28.3z"/>
			<path fill="#69643C" d="M525.5,45.8c-0.6,0.9-1.3,2-2.2,3.3c-0.9,1.3-1.9,2.5-3.1,3.7c-1.2,1.2-2.5,2.2-3.9,3
				c-1.5,0.8-3,1.1-4.7,1c-0.9-0.2-1.5-0.7-1.9-1.7c-0.4-1-0.6-2.2-0.6-3.7c0-1.5,0.1-3.1,0.3-4.9c0.3-1.8,0.6-3.7,1-5.6
				c0.4-1.9,0.9-3.7,1.4-5.6c0.5-1.8,1-3.5,1.5-5c0.5-1.5,0.9-2.7,1.3-3.7c0.4-1,0.7-1.6,0.9-1.8c0.2-0.4,0.6-0.8,1-1
				c0.4-0.2,0.8-0.3,1.3-0.3c0.4,0,0.8,0.2,1.2,0.4c0.4,0.3,0.6,0.6,0.7,1.1c-2.1,5.9-3.7,10.7-4.7,14.4c-1,3.7-1.7,6.6-2,8.7
				c-0.3,2.1-0.3,3.5,0,4.3c0.3,0.8,0.7,1.1,1.1,1c0.9-0.1,1.7-0.4,2.6-0.9c0.9-0.5,1.7-1.2,2.6-2.2c0.9-1,1.8-2.3,2.7-4
				c1-1.6,2-3.7,3-6.1c1.1-2.4,2-4.9,2.7-7.4c0.7-2.6,1.4-5.3,2.1-8.2c0.1-0.5,0.4-0.8,1-1.1c0.5-0.2,1.1-0.3,1.7-0.2
				c0.6,0.1,1.1,0.3,1.6,0.7c0.5,0.4,0.7,1.1,0.7,1.9l-5.3,28c1-0.6,2.1-1.3,3.3-2.1c1.1-0.8,2.2-1.8,3.3-2.8c1.1-1,2.1-2,3.1-3.1
				c1-1.1,1.9-2,2.7-3c0.8-0.9,1.5-1.8,2-2.5c0.6-0.7,0.9-1.3,1.1-1.6c0.5-0.3,0.9-0.5,1.3-0.4c0.4,0,0.6,0.1,0.8,0.4
				c0.2,0.2,0.3,0.5,0.3,0.9c0,0.3-0.1,0.6-0.2,0.9c-2.5,3.2-4.7,5.7-6.6,7.6c-1.8,1.9-3.4,3.4-4.8,4.6c-1.4,1.2-2.6,2.2-3.7,2.9
				c-1.1,0.7-2.1,1.5-3.2,2.4c-0.4,4.2-0.9,7.7-1.5,10.5c-0.7,2.8-1.4,5.2-2.3,6.9c-0.9,1.8-1.8,3.1-2.8,4.1c-1,0.9-2.1,1.5-3.3,1.9
				c-1.1,0.3-2.3,0.5-3.5,0.4c-1.2-0.1-2.3-0.2-3.4-0.5c-0.4-0.1-1.1-0.3-2-0.7c-0.9-0.4-1.7-0.9-2.3-1.7c-0.7-0.8-1.1-1.7-1.2-2.9
				c-0.1-1.2,0.3-2.7,1.3-4.5c1-1.8,2.7-3.9,5.1-6.3c2.4-2.4,5.9-5.2,10.4-8.4L525.5,45.8z M512.3,79c1.5,0.4,2.8,0.2,3.9-0.4
				c1.1-0.6,2.1-1.5,2.9-2.6c0.8-1.2,1.5-2.5,2-4c0.5-1.5,0.9-3,1.3-4.5c0.3-1.5,0.6-2.8,0.8-4c0.2-1.2,0.4-2.1,0.5-2.7
				c-0.9,0.4-2,1.2-3.3,2.1c-1.3,1-2.6,2.1-3.8,3.4c-1.3,1.3-2.5,2.6-3.5,3.9c-1.1,1.4-1.9,2.6-2.4,3.8c-0.5,1.2-0.7,2.2-0.5,3.1
				C510.2,78.1,510.9,78.7,512.3,79z"/>
		</g>
		<g>
			<g>
				<g>
					<path fill="#BEB3A9" d="M8.6,55.6c-2,0.9-3.7,1.2-5,0.7c-1.4-0.4-2.2-1.8-2.5-4c-0.3-2.3,0-5.6,1-10c1-4.4,2.8-10.2,5.5-17.3
						c-1.6,0.4-2.9,0.6-4,0.5c-1.1-0.1-1.9-0.4-2.5-1c-0.6-0.5-1-1.3-1.1-2.2c-0.1-0.9,0-2,0.4-3.2c0-0.4,0.1-0.8,0.4-1
						c0.3-0.3,0.6-0.4,0.9-0.4c0.3,0,0.6,0,0.8,0.2c0.2,0.2,0.3,0.5,0.1,0.9c-0.1,0.2-0.2,0.5-0.3,0.9c-0.1,0.4-0.2,0.8-0.2,1.3
						c0,0.4,0,0.9,0.2,1.3c0.1,0.4,0.4,0.7,0.9,0.9c0.5,0.2,1.1,0.2,2,0.1c0.9-0.1,2-0.5,3.4-1.2c1.1-3.7,2.3-6.9,3.6-9.7
						c1.3-2.8,2.7-5,4.1-6.9c1.4-1.8,2.8-3.2,4.1-4.1C21.7,0.5,23,0,24,0c1.1,0,2,0.4,2.7,1.3c0.7,0.9,1.2,2.2,1.3,4
						c0.1,1.3-0.1,2.5-0.7,3.8c-0.6,1.3-1.3,2.5-2.3,3.8c-1,1.3-2,2.4-3.2,3.6c-1.2,1.1-2.3,2.2-3.5,3.2c-1.1,1-2.1,1.8-3,2.6
						c-0.9,0.8-1.5,1.4-1.9,1.8c-1.4,4.5-2.7,8.3-3.7,11.4c-1,3.1-1.8,5.7-2.4,7.8c-0.6,2.1-1.1,3.7-1.3,4.9
						c-0.3,1.2-0.4,2.1-0.4,2.7c0,0.6,0.2,1,0.4,1.2c0.3,0.2,0.6,0.3,1,0.4c0.7,0.1,1.6,0,2.7-0.4c1.1-0.4,2.3-0.9,3.7-1.6
						c1.3-0.7,2.7-1.6,4.2-2.6c1.5-1,2.9-2,4.2-3.2c1.4-1.1,2.6-2.2,3.8-3.4c1.2-1.2,2.1-2.3,2.9-3.3c0.2-0.3,0.4-0.5,0.7-0.5
						c0.3-0.1,0.5-0.1,0.8,0c0.2,0.1,0.4,0.2,0.5,0.4c0.1,0.2,0.2,0.5,0.1,0.9c-0.7,1.3-1.8,2.7-3.3,4.3C25.8,44.4,24,46,22,47.5
						c-2,1.5-4.2,3-6.5,4.4C13.1,53.3,10.8,54.5,8.6,55.6z M25.7,5.3c-0.1-1.1-0.3-1.7-0.7-1.9c-0.4-0.2-0.9,0-1.6,0.6
						c-0.6,0.6-1.3,1.4-2.1,2.5c-0.8,1.1-1.5,2.4-2.2,3.7c-0.7,1.4-1.4,2.8-2.1,4.3c-0.7,1.5-1.2,2.9-1.6,4.2
						c1.2-0.8,2.5-1.7,3.7-2.9c1.3-1.2,2.4-2.3,3.3-3.6c1-1.2,1.8-2.5,2.4-3.7C25.5,7.4,25.8,6.3,25.7,5.3z"/>
					<path fill="#BEB3A9" d="M29.2,57c-1.5-0.3-2.7-0.7-3.5-1.3c-0.8-0.6-1.3-1.3-1.5-2.4c-0.2-1-0.1-2.3,0.1-3.8
						c0.3-1.6,0.8-3.5,1.4-5.8c0.6-2.3,1.4-5.1,2.3-8.3c0.9-3.2,1.8-6.9,2.8-11.2c0.3-0.8,0.7-1.2,1.2-1.3c0.5-0.1,1,0,1.4,0.2
						c0.4,0.3,0.8,0.7,1.1,1.2c0.3,0.6,0.3,1.1,0.2,1.7c-0.8,3.3-1.7,6.5-2.7,9.6c-1,3.2-1.8,6-2.4,8.5c-0.6,2.5-0.9,4.6-0.9,6.2
						c0,1.6,0.6,2.5,1.9,2.7c0.9-0.2,1.8-0.7,2.9-1.5c1.1-0.8,2.2-1.7,3.3-2.7c1.1-1,2.2-2.1,3.3-3.3c1.1-1.2,2-2.2,2.8-3.3
						c0.8-1,1.5-1.9,2.1-2.7c0.6-0.8,0.9-1.3,1.1-1.5c0.5-0.4,0.9-0.6,1.4-0.4c0.5,0.2,0.6,0.7,0.6,1.5c-0.4,0.6-1,1.5-1.9,2.6
						c-0.9,1.1-1.9,2.3-3,3.7c-1.2,1.3-2.4,2.7-3.7,4c-1.3,1.4-2.6,2.6-3.9,3.7c-1.3,1.1-2.5,2.1-3.6,2.8C30.9,56.7,30,57,29.2,57z
						 M33.1,13c0.3-0.8,0.7-1.2,1.3-1.4c0.6-0.2,1.1-0.1,1.6,0.1c0.5,0.2,0.9,0.7,1.2,1.3c0.3,0.7,0.3,1.4,0.1,2.4
						c-0.2,0.8-0.5,1.3-1.1,1.5C35.6,17,35,17,34.4,16.7c-0.6-0.3-1-0.7-1.4-1.4C32.7,14.7,32.7,13.9,33.1,13z"/>
					<path fill="#BEB3A9" d="M48.1,56.6c-1.4,0-2.5-0.3-3.3-1c-0.8-0.7-1.3-1.6-1.6-2.8c-0.3-1.2-0.4-2.6-0.3-4.2
						c0.1-1.6,0.3-3.3,0.7-5.1c0.4-1.9,0.9-3.9,1.5-5.9c0.6-2,1.2-4,1.8-5.9c0.6-1.9,1.2-3.6,1.7-5.3c0.5-1.6,1-3,1.3-4.1l-6-0.1
						c-0.4,0-0.7-0.1-0.9-0.4c-0.2-0.2-0.2-0.5-0.2-0.8c0.1-0.3,0.2-0.6,0.5-0.9c0.3-0.3,0.7-0.5,1.3-0.7h6l4.7-14.8
						c0.3-0.7,0.7-1.2,1.3-1.4C57.1,3,57.7,3,58.3,3.1c0.6,0.2,1.1,0.5,1.5,1c0.4,0.5,0.5,1.1,0.3,1.8l-4.4,13.5h6.6
						c0.3,0,0.5,0.1,0.7,0.3c0.2,0.2,0.3,0.5,0.3,0.9c0,0.3-0.1,0.7-0.3,1c-0.2,0.3-0.6,0.5-1.2,0.6L55,22.3
						c-0.5,1.7-1.1,3.5-1.7,5.4c-0.6,1.9-1.3,3.8-1.9,5.7c-0.6,1.9-1.2,3.7-1.8,5.6c-0.6,1.8-1.1,3.6-1.5,5.2c-0.4,1.6-0.8,3-1,4.3
						c-0.2,1.3-0.3,2.4-0.3,3.3c0,0.9,0.2,1.6,0.5,2.1c0.3,0.5,0.9,0.7,1.6,0.7c1.4-0.1,2.6-0.5,3.8-1.2c1.2-0.7,2.3-1.5,3.4-2.4
						c1.1-1,2-2,2.9-3.2c0.9-1.2,1.7-2.3,2.4-3.5c1-1.6,1.7-3,2.4-4.4c0.6-1.3,1-2.2,1.3-2.8c0.2-0.4,0.4-0.6,0.7-0.7
						c0.3-0.1,0.6-0.1,0.9,0c0.3,0.1,0.5,0.4,0.6,0.8c0.1,0.4,0.1,1-0.1,1.7c-0.2,0.4-0.6,1.2-1.2,2.4c-0.6,1.3-1.4,2.7-2.5,4.4
						c-0.8,1.3-1.7,2.6-2.8,3.8c-1.1,1.3-2.2,2.5-3.5,3.5c-1.3,1-2.7,1.9-4.2,2.6C51.5,56.3,49.9,56.6,48.1,56.6z"/>
					<path fill="#BEB3A9" d="M66.1,56.6c-1.4,0-2.5-0.3-3.3-1c-0.8-0.7-1.3-1.6-1.6-2.8c-0.3-1.2-0.4-2.6-0.3-4.2
						c0.1-1.6,0.3-3.3,0.7-5.1c0.4-1.9,0.9-3.9,1.5-5.9c0.6-2,1.2-4,1.8-5.9c0.6-1.9,1.2-3.6,1.7-5.3c0.5-1.6,1-3,1.3-4.1l-6-0.1
						c-0.4,0-0.7-0.1-0.9-0.4c-0.2-0.2-0.2-0.5-0.2-0.8c0.1-0.3,0.2-0.6,0.5-0.9c0.3-0.3,0.7-0.5,1.3-0.7h6l4.7-14.8
						c0.3-0.7,0.7-1.2,1.3-1.4C75.1,3,75.7,3,76.3,3.1c0.6,0.2,1.1,0.5,1.5,1c0.4,0.5,0.5,1.1,0.3,1.8l-4.4,13.5h6.6
						c0.3,0,0.5,0.1,0.7,0.3c0.2,0.2,0.3,0.5,0.3,0.9c0,0.3-0.1,0.7-0.3,1c-0.2,0.3-0.6,0.5-1.2,0.6L73,22.3
						c-0.5,1.7-1.1,3.5-1.7,5.4c-0.6,1.9-1.3,3.8-1.9,5.7c-0.6,1.9-1.2,3.7-1.8,5.6c-0.6,1.8-1.1,3.6-1.5,5.2c-0.4,1.6-0.8,3-1,4.3
						s-0.3,2.4-0.3,3.3c0,0.9,0.2,1.6,0.5,2.1c0.3,0.5,0.9,0.7,1.6,0.7c1.4-0.1,2.6-0.5,3.8-1.2c1.2-0.7,2.3-1.5,3.4-2.4
						c1.1-1,2-2,2.9-3.2c0.9-1.2,1.7-2.3,2.4-3.5c1-1.6,1.7-3,2.4-4.4c0.6-1.3,1-2.2,1.3-2.8c0.2-0.4,0.4-0.6,0.7-0.7
						c0.3-0.1,0.6-0.1,0.9,0c0.3,0.1,0.5,0.4,0.6,0.8c0.1,0.4,0.1,1-0.1,1.7c-0.2,0.4-0.6,1.2-1.2,2.4c-0.6,1.3-1.4,2.7-2.5,4.4
						c-0.8,1.3-1.7,2.6-2.8,3.8c-1.1,1.3-2.2,2.5-3.5,3.5c-1.3,1-2.7,1.9-4.2,2.6C69.5,56.3,67.9,56.6,66.1,56.6z"/>
					<path fill="#BEB3A9" d="M86.7,55.6c-2,0.9-3.7,1.2-5,0.7c-1.4-0.4-2.2-1.8-2.5-4c-0.3-2.3,0-5.6,1-10c1-4.4,2.8-10.2,5.5-17.3
						c-1.6,0.4-2.9,0.6-4,0.5c-1.1-0.1-1.9-0.4-2.5-1c-0.6-0.5-1-1.3-1.1-2.2c-0.1-0.9,0-2,0.4-3.2c0-0.4,0.1-0.8,0.4-1
						c0.3-0.3,0.6-0.4,0.9-0.4c0.3,0,0.6,0,0.8,0.2c0.2,0.2,0.3,0.5,0.1,0.9c-0.1,0.2-0.2,0.5-0.3,0.9c-0.1,0.4-0.2,0.8-0.2,1.3
						c0,0.4,0,0.9,0.2,1.3c0.1,0.4,0.4,0.7,0.9,0.9c0.5,0.2,1.1,0.2,2,0.1c0.9-0.1,2-0.5,3.4-1.2c1.1-3.7,2.3-6.9,3.6-9.7
						c1.3-2.8,2.7-5,4.1-6.9c1.4-1.8,2.8-3.2,4.1-4.1c1.3-0.9,2.5-1.4,3.6-1.4c1.1,0,2,0.4,2.7,1.3c0.7,0.9,1.2,2.2,1.3,4
						c0.1,1.3-0.1,2.5-0.7,3.8c-0.6,1.3-1.3,2.5-2.3,3.8c-1,1.3-2,2.4-3.2,3.6c-1.2,1.1-2.3,2.2-3.5,3.2c-1.1,1-2.1,1.8-3,2.6
						c-0.9,0.8-1.5,1.4-1.9,1.8c-1.4,4.5-2.7,8.3-3.7,11.4c-1,3.1-1.8,5.7-2.4,7.8c-0.6,2.1-1.1,3.7-1.3,4.9
						c-0.3,1.2-0.4,2.1-0.4,2.7c0,0.6,0.2,1,0.4,1.2c0.3,0.2,0.6,0.3,1,0.4c0.7,0.1,1.6,0,2.7-0.4c1.1-0.4,2.3-0.9,3.7-1.6
						c1.3-0.7,2.7-1.6,4.2-2.6c1.5-1,2.9-2,4.2-3.2c1.4-1.1,2.6-2.2,3.8-3.4c1.2-1.2,2.1-2.3,2.9-3.3c0.2-0.3,0.4-0.5,0.7-0.5
						c0.3-0.1,0.5-0.1,0.8,0c0.2,0.1,0.4,0.2,0.5,0.4c0.1,0.2,0.2,0.5,0.1,0.9c-0.7,1.3-1.8,2.7-3.3,4.3c-1.5,1.5-3.3,3.1-5.3,4.6
						c-2,1.5-4.2,3-6.5,4.4C91.3,53.3,89,54.5,86.7,55.6z M103.9,5.3c-0.1-1.1-0.3-1.7-0.7-1.9c-0.4-0.2-0.9,0-1.6,0.6
						c-0.6,0.6-1.3,1.4-2.1,2.5c-0.8,1.1-1.5,2.4-2.2,3.7c-0.7,1.4-1.4,2.8-2.1,4.3s-1.2,2.9-1.6,4.2c1.2-0.8,2.5-1.7,3.7-2.9
						c1.3-1.2,2.4-2.3,3.3-3.6c1-1.2,1.8-2.5,2.4-3.7C103.6,7.4,103.9,6.3,103.9,5.3z"/>
					<path fill="#BEB3A9" d="M109.8,56.3c-2-0.2-3.6-0.6-4.7-1.4c-1.2-0.8-2-1.7-2.4-2.9c-0.5-1.2-0.7-2.4-0.6-3.9
						c0.1-1.4,0.4-2.9,0.8-4.4c0.5-1.5,1.1-3,1.8-4.4c0.8-1.5,1.6-2.8,2.4-4c0.6-1,1.3-2.1,2.2-3.2c0.9-1.1,1.9-2.2,2.9-3.3
						c1.1-1.1,2.2-2,3.3-2.9c1.2-0.9,2.3-1.5,3.4-2c1.1-0.5,2.2-0.6,3.1-0.5c1,0.1,1.8,0.6,2.5,1.5c0.6,0.8,0.8,1.7,0.7,2.7
						c-0.2,1-0.6,2.1-1.3,3.3c-0.7,1.2-1.6,2.3-2.7,3.5c-1.1,1.2-2.3,2.4-3.6,3.5c-1.3,1.2-2.7,2.3-4.1,3.3c-1.4,1.1-2.8,2-4.1,2.8
						c-0.9,2.2-1.3,4-1.3,5.4c0,1.4,0.3,2.5,0.9,3.2c0.6,0.8,1.4,1.2,2.5,1.4c1.1,0.2,2.2,0.1,3.4-0.1c1.2-0.2,2.5-0.6,3.8-1.2
						c1.3-0.6,2.4-1.2,3.5-1.8c2.2-1.7,4-3.3,5.2-4.7c1.3-1.4,2.2-2.7,2.9-3.7c0.7-1.1,1.1-2,1.4-2.7c0.3-0.7,0.6-1.2,0.9-1.6
						c0.2-0.4,0.4-0.6,0.6-0.7c0.2-0.1,0.4-0.1,0.6,0c0.2,0.1,0.3,0.3,0.4,0.5c0.1,0.2,0.2,0.5,0.1,0.7c-1.6,2.9-3.2,5.4-4.8,7.5
						c-1.7,2.2-3.4,4-5.4,5.4c-1.9,1.5-4.1,2.6-6.5,3.3C115.4,55.9,112.8,56.3,109.8,56.3z M122.6,27c-0.4-0.5-0.9-0.6-1.6-0.4
						c-0.7,0.3-1.5,0.8-2.4,1.5c-0.9,0.8-1.8,1.7-2.7,2.8c-0.9,1.1-1.8,2.2-2.6,3.4c-0.8,1.2-1.5,2.3-2.1,3.4
						c-0.6,1.1-0.9,2-1.1,2.7c0.7-0.3,1.6-0.7,2.5-1.3c1-0.6,1.9-1.3,3-2.1c1-0.8,2-1.7,3-2.6c1-0.9,1.8-1.8,2.4-2.7
						s1.2-1.7,1.5-2.5C122.8,28.2,122.9,27.5,122.6,27z"/>
				</g>
				<g>
					<path fill="#BEB3A9" d="M161.6,1.7c0-0.1,0.3-0.2,0.9-0.3c0.5,0,0.9,0,1,0c0,0,0.1,0,0.2,0.1c0.1,0.1,0.2,0.2,0.2,0.2
						c0,0.1-0.2,0.4-0.5,0.8c-0.4,0.4-0.6,0.6-0.6,0.6c-0.1,0-0.2,0.1-0.3,0.1c-0.1,0.1-0.1,0.2-0.2,0.2c-0.1,0.1-0.2,0.1-0.3,0.1
						c-0.2,0.1-0.4,0.3-0.5,0.7c-0.1,0.4-0.1,1.1-0.1,2.2c0,0.5,0,1.1,0,1.8c0,0.7,0,1.2,0,1.6c0,0.4,0.1,1.4,0.2,2.9
						c0.1,1.5,0.1,3.1,0.1,4.7c0.1,3.9,0.2,5.9,0.3,6c0.1,0.1,0.1,0.1-0.1,0.1c-0.1,0.1-0.1,0.2,0,0.3c0.1,0.1,0.2,0.9,0.3,2.3
						c0,1,0,2,0.1,3.2c0,1.1,0.1,2.2,0.2,3.2c0.1,1,0.1,1.8,0.2,2.5c0.1,0.7,0.1,1,0.2,1c0,0.6,0,1.3,0,2c0,0.8,0.1,1.8,0.1,3.2
						c0.1,1.3,0.1,3.1,0.2,5.1c0,1.4,0,2.7,0.1,3.9c0,1.2,0.1,1.8,0.1,2l0.1,0.6l0.3,0.1c0.2,0,0.6,0,1.3-0.1c0.7-0.1,1-0.2,1-0.3
						c0.1-0.1,0.5-0.2,1.2-0.3c0.7-0.1,1.5-0.1,2.6-0.1c1.2,0,2.3,0,3.2-0.1c0.9-0.1,1.4-0.2,1.4-0.4c0,0,0,0,0.1,0
						c0.1,0,0.4-0.2,0.8-0.6c0.4-0.4,0.7-0.8,0.9-1.2c0-0.1,0.1-0.3,0.3-0.5c0.1,0,0.2-0.2,0.4-0.5c0.1-0.3,0.2-0.5,0.3-0.6
						c0-0.1,0-0.2,0.1-0.3c0.1,0,0.1-0.1,0.1-0.3c0,0,0.1-0.3,0.3-0.7c0.2-0.4,0.4-0.7,0.4-0.7c0.1-0.3,0.2-0.6,0.4-0.8
						c0.1-0.2,0.2-0.3,0.3-0.5c0.1-0.2,0.1-0.2,0.2-0.2c0-0.1,0.1-0.3,0.2-0.5c0,0,0-0.1,0.1-0.2c0.1-0.1,0.2-0.2,0.3-0.3l0.3-0.2
						l0.4,0.4c0.1,0.1,0.2,0.3,0.2,0.4s0,0.3,0,0.5c0,0.3,0,0.5,0,0.6c-0.3,0-0.5,1.2-0.5,3.5c-0.1,0.6-0.2,1.3-0.3,2.2
						c-0.1,0.1-0.1,0.2-0.2,0.4c-0.1,0.2-0.2,0.3-0.3,0.5c-0.1,0.5-0.2,0.8-0.4,0.8c0,0-0.1,0.1-0.1,0.3v0.2h-0.5
						c-0.1,0-0.3,0.1-0.5,0.1c0,0.1-0.3,0.1-0.8,0.2c-0.6,0-1.2,0.1-2,0.1c-1.5,0.1-2.8,0.3-3.7,0.3c-0.9,0.1-1.4,0.1-1.4,0.2
						c-0.1,0.1-0.7,0.3-1.6,0.4c-0.9,0.1-2.3,0.2-4,0.3c-2.1,0-3.4,0-4,0.1c-0.6,0.1-0.9,0.2-0.9,0.3c-0.3,0.1-0.5,0.1-0.6,0.1
						c-0.1,0-0.3,0-0.4-0.1s-0.2-0.1-0.2-0.2c0,0-0.1-0.1-0.1-0.1c-0.3,0-0.4-0.1-0.4-0.4c0.1-0.3,0.3-0.5,0.6-0.7
						c0.1,0,0.3-0.1,0.5-0.3c0.2-0.1,0.4-0.3,0.5-0.4l0.5-0.5v-4.4c0-1.2,0-2.7-0.1-4.5c-0.1,0-0.1-0.6-0.2-1.7
						c-0.1-1.1-0.1-2.3-0.2-3.8c-0.1-1.5-0.1-2.9-0.2-4.3c-0.1-1.3-0.1-2.2-0.2-2.6c0-0.4,0-0.9,0-1.3c0-0.4,0-0.8,0-1.1
						c0-0.2,0-0.3-0.1-0.5c0-0.2-0.1-0.3-0.1-0.4c-0.1,0-0.1-0.1-0.2-0.3c-0.1-0.2-0.1-0.5-0.1-0.7c-0.2-2.6-0.3-4.5-0.4-5.7
						c-0.1-1.2-0.2-1.8-0.2-1.8c0,0,0-0.2,0-0.5c0-0.2,0-0.6-0.1-1.3c-0.1-0.7-0.1-1.4-0.2-2.2c-0.1-0.8-0.1-1.5-0.2-2.1
						c-0.1-0.6-0.1-1-0.1-1c-0.1,0-0.2-0.4-0.3-1.3c-0.2-1.3-0.4-2.5-0.5-3.4c-0.1-0.9-0.2-1.4-0.3-1.5C156,6.1,156,5.9,156,5.7
						c0-0.2,0-0.3-0.1-0.5c-0.1-0.2-0.1-0.3-0.1-0.4c-0.1,0-0.2,0-0.4-0.1c-0.2,0-0.3-0.1-0.5-0.1l-0.7-0.1L154,4
						c-0.1-0.3-0.2-0.6-0.1-0.8c0-0.2,0.1-0.4,0.3-0.5c0.1-0.1,0.2-0.2,0.3-0.3c0,0,0.3,0,0.8-0.1c0.5-0.1,1-0.1,1.6-0.2
						c0.6-0.1,1.3-0.1,1.9-0.2c0.7-0.1,1.2-0.1,1.7-0.1C160.7,1.8,161.1,1.8,161.6,1.7z"/>
					<path fill="#BEB3A9" d="M199.4,2.2c0-0.1,0.1-0.2,0.4-0.2c0.3-0.1,0.7-0.2,1.2-0.3c0.4,0,1-0.1,1.7-0.1c0.7,0,1.4-0.1,2.1-0.1
						c0.7,0,1.3,0,1.8,0c0.5,0,0.8,0.1,0.9,0.1c0.1,0.1,0,0.2-0.3,0.4c-0.2,0.2-0.5,0.3-0.7,0.4c-0.3,0-0.7,0.1-1,0.3L205.1,3v2.9
						c0,0.8,0,1.4,0.1,1.9c0,0.5,0.1,0.8,0.1,0.9c0.1,0,0.1,0.7,0.2,2c0.1,1.3,0.1,3,0.1,4.9c0.1,1.9,0.1,3.7,0.2,5.4
						c0.1,1.6,0.1,2.7,0.1,3.2c0,0.5,0,1.7,0.1,3.4c0.1,1.8,0.1,3.7,0.1,5.8c0.1,2.1,0.1,3.9,0.1,5.3c0,1.5,0.1,2.2,0.2,2.2
						c0,2.1,0,3.9,0,5.4c0,1.6,0,2.9,0.1,4c0.1,1,0.1,1.7,0.2,1.9c0.2,0.8,0.7,1.4,1.3,1.5c0.2,0,0.7-0.1,1.2-0.4
						c0.6-0.2,0.9-0.5,1.1-0.6c0.1-0.1,0.3-0.3,0.5-0.3c0.1,0,0.3-0.3,0.4-0.9c0.1-0.6,0.1-1.2,0.1-1.9c0-0.9,0-1.5,0-1.7
						c0.2-0.5,0.7-0.5,1.5-0.1l0.5,0.3V49c0,0.3,0,0.6,0,1c-0.2,0-0.3,0.3-0.5,0.9c-0.2,0.7-0.4,1.2-0.7,1.5
						c-0.1,0.1-0.2,0.3-0.4,0.5c-0.1,0.2-0.2,0.4-0.3,0.5c-0.3,0.3-0.5,0.5-0.8,0.8c-0.3,0.2-0.6,0.4-1,0.6c-0.2,0-0.3,0.1-0.5,0.3
						c0,0.1-0.3,0.2-1,0.3c-0.6,0.1-1.3,0.2-1.9,0.2c-0.6,0-1.1,0-1.4-0.1c-0.3-0.1-0.6-0.3-1-0.5c-0.2-0.1-0.4-0.5-0.6-1
						c-0.2-0.5-0.4-0.9-0.4-1.2c0-0.5-0.2-0.4-0.7,0.5c-0.3,0.3-0.6,0.7-0.9,1c-0.3,0.3-0.6,0.5-1,0.6c-0.3,0-0.5,0.1-0.5,0.3
						c0,0.1-0.3,0.2-0.8,0.3c-0.6,0.1-1.2,0.2-1.8,0.2c-0.7,0-1.4-0.1-2.2-0.2c-0.8-0.1-1.2-0.3-1.2-0.5c0,0-0.3-0.1-0.9-0.3
						c-0.3-0.1-0.5-0.2-0.7-0.3c-0.2-0.1-0.4-0.2-0.5-0.4c-0.4-0.3-0.6-0.6-0.7-0.8c-0.2-0.1-0.3-0.4-0.5-0.9
						c-0.1-0.5-0.3-1-0.3-1.5c0-0.3-0.1-0.6-0.3-0.8c-0.3-1.5-0.4-2.8-0.5-3.9c-0.2-1-0.3-1.9-0.4-2.6c-0.1-0.7-0.2-1.1-0.3-1.1
						c0-0.1-0.1-1-0.2-2.6c-0.1-1.7-0.3-3.8-0.6-6.2c0-0.7,0-1.4-0.1-1.9s-0.1-0.9-0.2-1c-0.1-0.7-0.1-1.2-0.2-1.7
						c-0.1-1.2-0.2-2.5-0.3-3.9c-0.1-1.4-0.2-2.7-0.3-3.9c-0.1-1.2-0.2-2.2-0.3-3.1c-0.1-0.8-0.1-1.2-0.2-1.2
						c-0.1-0.2-0.1-0.5-0.1-0.9c0-0.1,0-0.6-0.1-1.4c0-0.8-0.1-1.6-0.3-2.5c-0.1-0.8-0.2-1.8-0.2-3c0-1.2,0-2.1,0-2.7V3.6l-0.5-0.1
						c-0.1,0-0.3,0-0.7-0.1c-0.3-0.1-0.7-0.1-1-0.1c-0.5,0-0.9,0-1,0c-0.1,0-0.3-0.2-0.3-0.5c0,0,0.2-0.1,0.4-0.1
						c0.3,0,0.6-0.1,0.9-0.2s0.7-0.1,1-0.2c0.3,0,0.6-0.1,0.8-0.1c0.1,0,0.4,0,0.7-0.1c0-0.1,0.2-0.1,0.6-0.2c0.4,0,0.9-0.1,1.4-0.1
						c0.5,0,1.1-0.1,1.6-0.1s1,0,1.2,0c0.7,0.1,1,0.3,1,0.7c0,0.3-0.3,0.5-1,0.5c-0.4,0-0.6,0.1-0.7,0.3c0,0.5,0,0.9,0.1,1.2
						c0,0.3,0,0.8,0.1,1.5c0.1,0.7,0.1,1.4,0.1,2c0.1,1.8,0.1,3.4,0.2,4.8c0.1,1.4,0.2,2.1,0.3,2.1c0.1,0.1,0.3,0.9,0.4,2.3
						c0.1,1.4,0.3,3.5,0.4,6.3c0.1,1.4,0.2,2.7,0.2,3.7c0.1,1,0.2,1.6,0.3,1.7c0.1,4.1,0.3,8,0.5,11.7c0,3,0.1,5.3,0.2,6.9
						c0.1,1.6,0.3,2.3,0.5,2.3c0.1,0.1,0.2,0.3,0.2,0.3c0,0.2,0,0.3,0,0.4c0,0.1,0,0.3,0,0.4c0.2,0.7,0.5,1.2,0.6,1.5
						c0.2,0.3,0.3,0.5,0.5,0.7c0.1,0.1,0.2,0.2,0.2,0.3c0.1,0.1,0.2,0.2,0.3,0.2c0,0.2,0.2,0.3,0.6,0.5c0.4,0.1,0.8,0.3,1.1,0.3
						c0.3,0.1,0.8,0,1.3-0.2c0.6-0.2,1-0.5,1.4-0.8c0.2-0.2,0.3-0.3,0.5-0.3c0.1,0,0.4-0.3,0.7-0.8c0.1-0.2,0.3-0.5,0.4-0.7
						c0.1-0.2,0.2-0.4,0.3-0.5c0.1,0,0.2-0.3,0.4-0.9c0.2-0.6,0.3-1.2,0.4-1.6c0-0.3,0.1-0.6,0.3-0.8c0.1-0.6,0.2-1.2,0.3-1.7
						c0-0.6,0-1.3,0-2.1c0-0.8-0.1-2.1-0.1-3.8c0-1.2,0-2.2-0.1-3c-0.1-0.8-0.1-1.3-0.1-1.4c-0.1,0-0.1-0.3-0.2-0.9
						c-0.1-0.6-0.1-1.3-0.2-2.3c-0.1-1-0.1-2.1-0.2-3.3c-0.1-1.3-0.1-2.6-0.1-3.9c-0.1-0.8-0.1-1.7-0.2-2.5
						c-0.1-0.9-0.1-1.7-0.2-2.4c-0.1-0.7-0.1-1.3-0.2-1.8c-0.1-0.5-0.1-0.7-0.1-0.7c0-2.5,0-4.6,0-6.4c0-1.8,0-3.4-0.1-4.9
						c-0.1-1.5-0.1-2.4-0.1-2.8l-0.1-1.2h-1c-0.5,0-1,0-1.3,0c-0.3-0.1-0.4-0.2-0.4-0.3c0-0.1,0.1-0.2,0.2-0.2
						C199.1,2.3,199.3,2.2,199.4,2.2z"/>
					<path fill="#BEB3A9" d="M234.7,1.1c-0.1,0-0.2-0.1-0.3-0.2s-0.1-0.2-0.1-0.3V0.5h2.4l4.2-0.1c0,0.4,0,0.7-0.3,0.8
						c-0.3,0.2-0.9,0.4-1.9,0.5c0,0.3,0,1-0.1,1.9c0,0.9-0.1,1.8-0.1,2.7c0,1,0,2.2-0.1,3.4c-0.1,0-0.1,0.3-0.2,1
						c-0.1,0.6-0.1,1.4-0.1,2.2c0,0.9,0,2-0.1,3.3c-0.1,1.3-0.1,2.4-0.2,3.4c-0.1,1-0.1,2.2-0.2,3.7c0,1.4-0.1,2.7-0.1,3.7
						c-0.1,2.6-0.2,4-0.3,4.1c-0.1,0-0.1,0,0,0c0.1,0,0.2,0.1,0.3,0.3c0,0.1-0.1,0.1-0.3,0.1c-0.1,0.7-0.2,1.3-0.2,1.9
						c0,1.1,0,2.4-0.1,3.9c-0.1,1.5-0.1,2.9-0.2,4.3c-0.1,1.4-0.2,2.5-0.2,3.5c-0.1,1-0.2,1.5-0.2,1.5c-0.1,0.9-0.2,1.7-0.2,2.3
						c-0.1,0.6-0.1,1.3-0.1,1.9c0,0.6,0,1.2,0,1.5c0,0.3,0,0.8-0.1,1.2c0,0.5-0.1,1-0.1,1.4c-0.1,0.4-0.1,0.8-0.2,1.2
						c-0.1,0.3-0.1,0.5-0.1,0.6c-0.1,0.2-0.1,0.4-0.1,0.6l-0.1,0.5l-0.3-0.1c-0.1,0-0.2,0-0.3-0.1c-0.1,0-0.2-0.1-0.2-0.1
						c-0.1,0-0.2-0.1-0.4-0.3c-0.1,0-0.4-0.1-0.7-0.3c-0.3-0.2-0.6-0.4-0.8-0.6c-0.1-0.1-0.3-0.2-0.6-0.4c-0.1-0.1-0.3-0.2-0.5-0.5
						c-0.1-0.4-0.2-0.7-0.4-0.8c-0.2-0.6-0.4-1.1-0.6-1.6c-0.1-0.5-0.3-0.9-0.4-1c0,0-0.1-0.6-0.4-1.6c-0.1-0.4-0.3-0.7-0.4-1
						c-0.1-0.3-0.2-0.5-0.2-0.6c-0.1-0.6-0.3-1.1-0.4-1.5c-0.1-0.4-0.3-0.7-0.3-1c-0.1-0.3-0.1-0.5-0.2-0.6
						c-0.1-0.5-0.3-0.9-0.4-1.2c-0.1-0.7-0.2-1.2-0.4-1.3c-0.2-0.6-0.4-1.1-0.4-1.5c-0.1-0.4-0.3-0.7-0.3-1
						c-0.1-0.3-0.1-0.4-0.2-0.4c-0.1-0.1-0.2-0.9-0.5-2.4c-0.1-0.2-0.2-0.6-0.3-1.1c-0.1,0-0.2-0.3-0.2-0.7
						c-0.1-0.4-0.2-0.9-0.3-1.4c-0.1-0.4-0.3-0.9-0.3-1.2c-0.1-0.4-0.1-0.6-0.2-0.6c0,0,0-0.2-0.1-0.5c-0.1-0.3-0.2-0.7-0.3-1.1
						c-0.1-0.4-0.1-0.7-0.2-1c-0.1-0.3-0.1-0.5-0.1-0.6c-0.1,0-0.2-0.4-0.4-1.2c-0.2-0.8-0.3-1.5-0.4-2c-0.1-0.3-0.1-0.5-0.3-0.6
						c-0.2-0.8-0.3-1.6-0.4-2.2c-0.1-0.6-0.3-1.1-0.4-1.5c-0.1-0.4-0.2-0.7-0.2-0.7c-0.1-1-0.3-1.9-0.4-2.6
						c-0.1-0.7-0.2-1.3-0.3-1.8c-0.1-0.5-0.1-0.8-0.1-0.9c-0.1,0-0.1-0.2-0.2-0.6c-0.1-0.4-0.1-0.9-0.2-1.5c-0.1-0.5-0.3-1-0.3-1.5
						c-0.1-0.4-0.1-0.7-0.2-0.7c-0.1,0-0.1-0.1-0.1-0.4v-0.4l-0.1,0.4c0,0.3,0,1.6,0,3.9c0,0.9,0.1,2.2,0.1,3.8c0,1.6,0,3.1,0,4.5
						v5.2h0.1l0.3,0.1v7c0,4.7-0.1,7.1-0.1,7c-0.1,0.1-0.1,0.4-0.2,1.2c-0.1,0.7-0.1,1.6-0.1,2.5c0,0.9-0.1,1.8-0.1,2.7
						c0,0.9,0,1.4,0.1,1.7c0.1,0.7,0.2,1,0.3,1c0,0.1,0.1,0.2,0.2,0.3c0.1,0.1,0.1,0.2,0.2,0.4c0,0.1,0,0.3,0.1,0.4
						c0.1,0.1,0.2,0.2,0.2,0.3c0.2,0.1,0.4,0.3,0.5,0.4c0.4,0.2,0.7,0.3,1,0.4c0.8,0.4,1.2,0.8,1.2,1.3c0.1,0.4-0.5,0.5-1.7,0.4
						c-0.2,0-0.7,0-1.4-0.1c-0.7,0-1.4-0.1-2.1-0.1c-1.1-0.1-1.9-0.1-2.3-0.2c-0.4,0-0.7-0.1-0.7-0.2c-0.1-0.1-0.1-0.2-0.1-0.2
						c0,0,0.2-0.1,0.5-0.1c0.1,0,0.2-0.1,0.4-0.2c0.1-0.1,0.2-0.1,0.3-0.2c0,0,0.1,0,0.3-0.1c0.1-0.1,0.3-0.2,0.4-0.3
						c0.1-0.1,0.3-0.2,0.4-0.4c0.2-0.1,0.2-0.2,0.2-0.3c0.2-0.2,0.3-0.5,0.4-1c0.1-0.5,0.1-0.9,0.1-1.3c0-0.2,0.1-0.4,0.2-0.7
						c0,0,0.1-0.4,0.1-1.2c0-0.8,0.1-1.7,0.1-2.8c0-1.1,0.1-2.2,0.1-3.4c0-1.2,0-2.1,0-2.9c0-0.8,0-2-0.1-3.6
						c-0.1-1.6-0.1-3.2-0.1-4.6c0-2,0-3.4,0-4.2c0-0.8,0-1.2-0.1-1.2c-0.1,0-0.2-0.2-0.2-0.4s0.1-0.3,0.2-0.4c0.1,0,0.1,0,0,0
						c-0.1,0-0.1-0.2-0.2-0.6c0-0.4-0.1-0.8-0.1-1.3c0-0.5,0-0.9,0.1-1.3c0-0.4,0.1-0.6,0.2-0.7c0.1,0,0.1,0,0,0
						c-0.1,0-0.2-0.2-0.2-0.3c0-0.2,0-0.2,0.1-0.2c0.1,0,0.2-0.3,0.2-0.9c0-0.6,0-1-0.1-1c-0.1,0-0.1-0.5-0.2-1.6
						c-0.1-1.1-0.1-2.4-0.1-4.1c-0.1-2.7-0.2-4.9-0.4-6.6c-0.2-1.7-0.3-2.6-0.3-2.7c-0.1-0.1-0.2-0.4-0.2-0.8l-0.1-0.8L217,2.8
						c-0.2-0.1-0.4-0.2-0.5-0.3c-0.2-0.1-0.4-0.2-0.6-0.3c-0.5-0.2-0.5-0.5,0-0.8c0.1-0.1,0.5-0.1,1.2-0.2c0.7-0.1,1.5-0.1,2.3-0.1
						c0.8,0,1.6,0,2.3,0c0.7,0,1.2,0,1.4,0.1c0.9,0.3,0.8,0.4-0.4,0.4h-1.1l-0.1,0.5c0,0.3,0.1,0.8,0.3,1.5c0.2,0.6,0.3,1,0.4,1
						c0,0.1,0.1,0.2,0.2,0.4s0.1,0.4,0.2,0.6c0.1,0.3,0.2,0.6,0.4,1c0.1,0.1,0.3,0.6,0.6,1.6c0.1,0.5,0.2,0.9,0.3,1.2
						c0.1,0.3,0.1,0.5,0.1,0.6c0.1,0.1,0.3,0.5,0.4,1.3c0.2,0.8,0.4,1.3,0.5,1.3c0,0.1,0,0.2,0.1,0.5c0.1,0.3,0.1,0.6,0.2,1
						c0.1,0.4,0.2,0.7,0.2,1c0.1,0.3,0.1,0.5,0.1,0.6c0.1,0.1,0.1,0.2,0.1,0.3c0.1,0,0.2,0.1,0.3,0.2c0,0.5,0.2,1.2,0.4,2
						c0.2,0.8,0.3,1.2,0.3,1.2c0.1,0,0.2,0.1,0.3,0.4c0,0.7,0.2,1.4,0.4,2c0.2,0.7,0.3,1,0.4,1c0,0.1,0.1,0.2,0.1,0.3
						c-0.1,0.1,0,0.3,0,0.6c0.1,0.3,0.1,0.6,0.2,0.9c0.1,0.3,0.2,0.7,0.3,1.1c0,0.1,0.1,0.3,0.2,0.6c0.1,0.3,0.2,0.6,0.3,1
						c0.1,0.4,0.2,0.7,0.3,1c0.1,0.3,0.2,0.4,0.2,0.4c0,0.1,0,0.3,0.1,0.5c0.1,0.3,0.2,0.6,0.3,0.9c0,0.4,0.2,0.9,0.4,1.5
						c0,0.1,0,0.2,0.1,0.6c0.1,0.3,0.2,0.7,0.3,1.2c0.1,0.4,0.2,0.8,0.3,1.2c0.1,0.4,0.1,0.6,0.1,0.7c0,0.1,0,0.2,0.1,0.3
						c0.1,0,0.1,0.1,0.1,0.1c0,0,0.1,0.1,0.2,0.4c0.1,0.2,0.1,0.5,0.2,0.8c0.3,0.7,0.4,1.1,0.4,1.2c0,0.1,0,0.2,0.1,0.6
						c0.1,0.3,0.2,0.7,0.3,1.1c0.1,0.4,0.2,0.8,0.3,1.1c0.1,0.4,0.1,0.6,0.1,0.7c0,0.2,0,0.4,0,0.4c0,0,0.1,0.1,0.2,0.4
						c0.1,0.2,0.1,0.5,0.2,0.8c0.2,1.3,0.3,2.1,0.4,2.6c0.1,0.4,0.2,0.7,0.2,0.7c0.1,0.4,0.1,0.7,0.1,0.9c0.3,1.2,0.5,1.1,0.5-0.2
						c0.1-0.4,0.1-0.7,0.1-0.9c0.1-0.6,0.1-1.3,0.2-2.2c0-0.9,0.1-2,0.2-3.6c0.1-1.5,0.2-3.5,0.3-5.9c0-1,0-2.2,0.1-3.7
						c0.1-1.2,0.2-2.2,0.2-3c0-0.8,0.1-1.6,0.1-2.5c0-0.8,0.1-1.5,0.1-2c0-0.4,0-1.1,0-2.2c0-1.1,0-2.2,0.1-3.3
						c0-1.2,0.1-2.5,0.2-3.9s0.1-2.5,0.1-3.2c0-0.8,0-1.4,0.1-2c0-0.6,0.1-0.9,0.2-0.9c0-0.8,0-1.5,0-2.1c0-1.4,0-2.1,0-2.1
						c-0.1,0-0.2,0-0.3-0.1c0-0.2-0.1-0.6-0.2-1c-0.2-0.4-0.3-0.6-0.4-0.7c-0.1,0-0.2-0.1-0.3-0.1c-0.1,0-0.2-0.1-0.2-0.1
						c-0.1,0-0.1-0.1-0.2-0.3C234.9,1.3,234.8,1.2,234.7,1.1z"/>
					<path fill="#BEB3A9" d="M259.3,1.3c0.1-0.2,0.2-0.5,0.3-0.7c0.1-0.2,0.1-0.4,0.2-0.4c0.1,0,0.3-0.1,0.4,0
						c0.1,0,0.2,0.1,0.2,0.2c0,0.3,0.1,0.5,0.2,0.5c0.1,0.5,0.1,0.9,0.1,1.3c0,0.4,0,0.9-0.1,1.5c-0.1,0-0.1,0.2-0.2,0.5
						c-0.1,0.3-0.1,0.7-0.1,1.2c0,0.5-0.1,1-0.1,1.5c0,0.5,0,1,0.1,1.4c0,1.1,0,1.9,0,2.4c-0.1,0.5-0.2,0.9-0.4,1.1
						c-0.4,0.3-0.7,0.4-1,0.1c-0.1-0.1-0.3-0.4-0.4-0.8c-0.1-0.4-0.2-0.7-0.2-0.9c0-0.1-0.1-0.1-0.3-0.1c0,0,0-0.1,0-0.3
						c0,0,0-0.2-0.1-0.4c-0.1-0.2-0.2-0.5-0.3-0.8c-0.1-0.3-0.2-0.6-0.3-0.8c-0.1-0.2-0.1-0.4-0.1-0.4c-0.1,0-0.2-0.2-0.3-0.6
						c-0.1-0.3-0.1-0.7-0.1-1.1c0-0.2,0-0.4,0-0.6c0-0.2,0-0.4-0.1-0.4c-0.2-0.4-0.5-0.8-1-1.1c-0.4-0.4-0.8-0.6-1-0.5
						c-0.2,0-0.4,0.1-0.7,0.1c-0.3,0.1-0.5,0.2-0.6,0.3c-0.2,0.1-0.6,0.3-1.1,0.5c-0.6,0.2-0.9,0.3-1,0.3c-0.2,0-0.4,0.1-0.4,0.2
						c0,0.1,0,0.3-0.1,0.4c-0.1,0.1-0.3,0.4-0.5,0.8c-0.2,0.4-0.3,0.7-0.4,1c0,0.2-0.1,0.4-0.3,0.5c-0.1,0-0.2,0.4-0.3,1.2
						c-0.1,0.8-0.2,1.5-0.3,2c-0.1,0.5-0.1,0.9-0.2,1c-0.1,0-0.1,0.6-0.1,1.8c0,1.2,0,2.5,0,4c0,1.4,0,2.7,0,3.9
						c0,1.2,0,1.8,0.1,1.8c0.1,0.1,0.2,0.5,0.2,1c0,0.4,0,0.9,0.1,1.5c0.1,0.6,0.1,1.1,0.2,1.6c0.1,0.5,0.2,0.9,0.2,1.2
						c0.1,0.3,0.2,0.5,0.2,0.5c0,0.1,0,0.3,0.1,0.8c0,0.4,0.1,0.9,0.2,1.5c0.1,1.4,0.2,2.5,0.4,3.2c0.1,0.7,0.2,1.1,0.3,1.1
						c0,0,0,0,0.1,0.1c0,0.1,0.1,0.3,0.1,0.5c0,0.4,0.1,1,0.3,1.7c0.1,0.7,0.3,1,0.3,1c0,0.1,0.2,0.4,0.4,1c0.2,0.6,0.3,1,0.3,1.2
						c0,0,0.1,0.1,0.2,0.2c0.1,0.2,0.1,0.3,0.2,0.5c0.1,0.4,0.2,0.8,0.4,1.1c0.1,0.3,0.2,0.4,0.3,0.4c0,0.1,0,0.2,0.1,0.4
						c0,0.2,0.1,0.4,0.3,0.7c0,0.3,0.2,0.7,0.4,1.2c0,0,0.1,0.1,0.2,0.2c0.1,0.1,0.2,0.3,0.3,0.4c0.1,0.2,0.2,0.4,0.4,0.6
						c0.1,0.2,0.2,0.3,0.3,0.3c0,0.1,0,0.2,0.1,0.4c0.1,0.2,0.1,0.3,0.1,0.5c0,0.1,0.1,0.3,0.2,0.4c0.1,0.1,0.1,0.2,0.2,0.2
						c0,0.1,0.1,0.2,0.2,0.4c0.1,0.2,0.1,0.3,0.2,0.5c0,0.1,0.1,0.3,0.2,0.5c0.1,0.2,0.2,0.4,0.4,0.5c0,0.1,0.1,0.2,0.2,0.2
						c0.1,0.1,0.1,0.1,0.2,0.1c0,0.1,0.2,0.2,0.6,0.4c0.4,0.2,0.6,0.4,0.7,0.5c0,0.1,0.2,0.1,0.7,0.2s0.9,0.1,1.3,0
						c0.4,0,0.7,0,1-0.1c0.3,0,0.5-0.1,0.6-0.3c0,0,0-0.1,0.1-0.1c0.2,0,0.5-0.3,0.9-0.7c0.4-0.4,0.6-0.6,0.6-0.7
						c0-0.1,0.1-0.3,0.3-0.4c0,0,0.1-0.1,0.2-0.2c0.1-0.1,0.2-0.3,0.3-0.4c0.2-0.3,0.4-0.5,0.4-0.5c0,0,0.2-0.3,0.4-1
						c0.2-0.6,0.3-1.1,0.3-1.4c0,0,0-0.2-0.1-0.5c-0.1-0.3-0.1-0.5-0.2-0.7c-0.1-0.4-0.2-0.7-0.3-1c0-0.1,0-0.2,0-0.3
						c-0.1,0-0.2-0.1-0.2-0.2s0-0.2,0.1-0.3c0.1,0,0.2-0.2,0.4-0.5l0.1-0.4l0.9-0.1l0.7-0.1l0.1,0.3c0.2,0.2,0.3,0.7,0.3,1.6
						c0,0.9-0.1,1.7-0.3,2.6c-0.2,0.8-0.4,1.2-0.5,1.3c0,0.1-0.1,0.4-0.4,1.1c-0.1,0.5-0.3,0.9-0.5,1.2c-0.2,0.3-0.4,0.6-0.7,0.9
						c-0.1,0.1-0.3,0.2-0.4,0.3c-0.1,0.1-0.2,0.2-0.2,0.2c-0.1,0.1-0.3,0.2-0.5,0.3c-0.2,0.1-0.3,0.2-0.4,0.4
						c-0.3,0.1-0.5,0.2-0.5,0.3c0,0.1-0.1,0.1-0.3,0.2c-0.2,0.1-0.4,0.1-0.7,0.2c-0.2,0.1-0.4,0.3-0.7,0.4c0,0.1-0.1,0.1-0.4,0.2
						c-0.3,0.1-0.6,0.2-0.9,0.3c-1.1,0.3-2.3,0.3-3.4,0.2c-1.1-0.1-1.8-0.4-2.2-0.7c-0.2-0.2-0.4-0.3-0.5-0.3c-0.1,0-0.1,0-0.2-0.1
						c-0.1-0.1-0.2-0.2-0.3-0.2c-0.1-0.1-0.2-0.2-0.4-0.3c-0.1,0-0.3-0.1-0.4-0.4c-0.1-0.1-0.2-0.2-0.4-0.2c-0.1,0.1-0.2,0-0.4-0.3
						c-0.2-0.2-0.5-0.5-0.8-0.8c-0.3-0.3-0.6-0.6-0.8-0.9c-0.2-0.3-0.3-0.4-0.3-0.5c-0.1-0.2-0.1-0.3-0.3-0.4
						c-0.1,0-0.2-0.2-0.3-0.3S249,48.2,249,48c-0.1-0.2-0.2-0.4-0.3-0.7c-0.1,0-0.1-0.2-0.2-0.3c-0.1-0.2-0.2-0.4-0.3-0.6
						c-0.1-0.4-0.2-0.7-0.2-0.9c-0.1,0-0.2-0.3-0.4-0.9c-0.2-0.6-0.3-1-0.3-1.2c0-0.1-0.1-0.3-0.3-0.4c-0.1,0-0.2-0.2-0.3-0.5
						c-0.1-0.3-0.2-0.6-0.2-1c-0.1-0.3-0.3-0.6-0.3-0.9c-0.1-0.3-0.1-0.4-0.2-0.5c-0.1-0.5-0.2-0.9-0.3-1.3
						c-0.1-0.3-0.3-0.6-0.3-0.9c-0.1-0.3-0.1-0.4-0.2-0.4c-0.1,0-0.1,0-0.1-0.1c0-0.1,0-0.3-0.1-0.6c-0.1-0.3-0.1-0.7-0.2-1
						c-0.1-0.4-0.2-0.8-0.3-1.4c-0.2-0.1-0.3-0.5-0.4-1.3c-0.1-0.7-0.2-2.2-0.3-4.4c-0.1-0.5-0.2-0.9-0.3-1c-0.1,0-0.1-0.5-0.1-1.5
						c0-1,0-2.1,0-3.3c0-1.2,0-2.3,0.1-3.3c0-1,0.1-1.5,0.1-1.5c0,0,0.1,0,0.1-0.1c0-0.1,0-0.2,0-0.2c0-0.1,0-0.4,0.1-0.9
						c0.1-0.5,0.2-1,0.2-1.5c0.1-0.5,0.2-1,0.3-1.5c0.1-0.4,0.1-0.7,0.1-0.7c0,0,0.1-0.1,0.2-0.3c0.1-0.2,0.1-0.4,0.2-0.7
						c0.2-1.3,0.4-2,0.6-2c0-0.1,0.3-0.8,0.6-2c0.1-0.1,0.2-0.2,0.3-0.3c-0.1-0.1,0-0.4,0.3-0.8c0.2-0.4,0.4-0.7,0.5-0.7
						c0,0,0.1-0.1,0.1-0.3c0-0.2,0.2-0.4,0.3-0.7c0.2-0.3,0.3-0.5,0.5-0.6c0.1,0,0.2-0.1,0.2-0.3c-0.1,0,0.1-0.3,0.5-0.7
						c0.4-0.4,0.7-0.6,0.7-0.6c0,0,0.1,0,0.2-0.1c0.1-0.1,0.2-0.2,0.3-0.3c0.1-0.1,0.2-0.2,0.4-0.2c0.2-0.1,0.3-0.3,0.4-0.4
						c0.3-0.1,0.5-0.2,0.7-0.2c0-0.1,0.4-0.3,1-0.4c0.6-0.1,1.3-0.2,2.1-0.2l1.4-0.1l1.1,0.3c0.3,0.1,0.6,0.2,0.9,0.3
						c0.3,0.1,0.4,0.2,0.5,0.2C258.8,2.6,259.1,2.3,259.3,1.3z"/>
					<path fill="#BEB3A9" d="M270.9,1.9c1.1,0,2.2,0,3.1-0.1c1-0.1,1.4-0.2,1.4-0.3c0,0,0.3-0.1,0.9-0.1h0.8l0.1,0.3
						c0,0.2,0,0.4-0.1,0.6c-0.1,0.1-0.2,0.3-0.4,0.4c-0.2,0.1-0.6,0.2-1.2,0.4l-0.5,0.1v1.1c0,0.3,0,0.6,0,1c0.1,0,0.1,0.4,0.2,1.1
						c0,0.7,0.1,1.7,0.1,2.9c0,1.3,0,2.3-0.1,3c-0.1,0.7-0.1,1.1-0.2,1.1c0,0,0,0.3,0,0.9c0,0.2,0,0.5,0,0.8c0.1,0,0.1,0.6,0.1,1.8
						c0,1.2,0.1,2.6,0.1,4.3c0,1.7,0,3.2,0.1,4.5c0,1.3,0.1,2,0.1,2.2l0.1,0.6l0.6,0.1c0.2,0,0.5,0,1,0s0.8-0.1,1.2-0.1
						c0.4-0.1,0.8-0.1,1.1-0.2c0.3-0.1,0.5-0.1,0.5-0.2c1.1-0.1,2.1-0.1,2.9-0.1c1-0.1,1.7-0.1,2.2-0.1c0.5,0,0.8-0.1,1-0.1l0.5-0.3
						l-0.1-0.5c0-0.1,0-0.9-0.1-2.4c0-1.5-0.1-3.2-0.1-5.1c-0.1-3.5-0.2-5.9-0.2-7.2c-0.1-1.3-0.2-1.9-0.3-2
						c-0.1-0.8-0.1-1.6-0.1-2.2c-0.1-0.7-0.1-1.3-0.1-1.7c0-0.4-0.1-0.6-0.1-0.6s-0.2,0-0.5,0c-0.2,0-0.5,0.1-0.8,0.1
						c-1.1,0.2-1.6,0.1-1.5-0.3c0-0.1,0-0.3,0-0.4c0,0,0.1,0,0.3,0c0.1,0,0.3-0.1,0.4-0.3c0-0.1,0-0.2,0.1-0.2
						c0.1,0,0.2-0.1,0.3-0.1c0.2,0,0.3-0.1,0.3-0.1c0-0.1,0.1-0.1,0.4-0.2c0.3,0,0.6-0.1,1-0.1c0.3-0.1,0.7-0.1,1.1-0.2
						c0.4-0.1,0.7-0.1,0.9-0.2c0.2,0,0.5,0,1-0.1c0.4,0,0.9,0,1.3,0s0.8,0,1.2,0c0.4,0,0.6,0.1,0.7,0.1c0.3,0.1,0.4,0.3,0.4,0.6v0.4
						L291,4.7c-0.1,0.1-0.3,0.1-0.5,0.2c-0.2,0.1-0.3,0.1-0.5,0.1c-0.1,0-0.2,0-0.3,0.1c-0.1,0.1-0.1,0.1-0.1,0.2
						c0,0.1,0,0.2-0.1,0.3h-0.3l0.1,1.2c0,0.4,0,0.8,0.1,1.3c0,0.1,0.1,0.5,0.2,1.4c0.1,0.9,0.2,1.8,0.3,2.9
						c0.1,1.1,0.2,2.1,0.3,3.1c0.1,1,0.1,1.6,0.1,1.8c0,0.3,0,0.5,0,0.5c0.1,0,0.1,0.2,0.2,0.6c0.1,0.4,0.1,0.9,0.1,1.5
						c0.4,5.6,0.6,8.4,0.7,8.5c0,0.1,0.1,0.4,0.1,1.1c0.1,0.7,0.2,1.5,0.2,2.4c0.1,0.9,0.2,1.9,0.3,2.9c0.1,1,0.2,1.8,0.2,2.4
						c0.1,0.4,0.1,0.8,0.1,1.1c0,0.3,0.1,0.4,0.1,0.4c0.1,1.3,0.1,2.3,0.1,3.2c0,0.9,0,1.8,0.1,2.7c0,0.9,0.1,1.6,0.2,2
						c0.1,0.4,0.1,0.8,0.2,1.3c0.1,0.4,0.1,0.7,0.1,0.9c0.1,0.1,0.1,0.3,0.1,0.5c0,0.2,0.1,0.2,0.1,0.2c0,0,0,0.2,0,0.4
						c0,0.2,0,0.4,0,0.4c-0.1,0-0.1,0.1-0.2,0.2c0,0.1-0.1,0.2-0.1,0.4c0,0.4,0.1,0.6,0.1,0.6c0.1,0,0.1,0.1,0.2,0.1
						c0.1,0.1,0.1,0.2,0.1,0.3c0.1,0.4,0.2,0.7,0.4,0.9c0.2,0.2,0.6,0.3,1.1,0.5c0.3,0.1,0.6,0.1,0.7,0.1c0.1,0,0.1,0.1,0.1,0.1
						c0,0.3-0.8,0.6-2.3,0.7c-0.9,0-1.3,0.1-1.4,0.3c-0.1,0-0.1,0-0.1,0.1c0,0.1-0.1,0.1-0.1,0.1s-0.3,0-0.5,0s-0.6,0-0.8,0.1
						c-0.3,0.1-0.6,0.3-1,0.3c-0.3,0.1-0.6,0.1-0.8,0.1c-0.2,0-0.4,0-0.6,0.1c-0.2,0.1-0.3,0.1-0.3,0.2s-0.3,0.1-1,0.1
						c-0.7,0-1.1-0.1-1.2-0.2c-0.2-0.2-0.3-0.3-0.3-0.3c0.1-0.1,0.3-0.2,0.5-0.4c0.3-0.2,0.6-0.4,1-0.7c0.2-0.1,0.4-0.2,0.6-0.3
						c0.2-0.1,0.3-0.2,0.3-0.3c0,0,0-0.4,0-1c0-0.6,0-1.2-0.1-1.9c0-0.7-0.1-1.6-0.1-2.7c-0.1,0.1-0.1-0.1-0.2-0.5
						c-0.1-0.4-0.1-0.9-0.1-1.6c0-0.5,0-1.3-0.1-2.3c0-1-0.1-1.9-0.2-2.8c-0.1-0.8-0.1-1.8-0.2-2.8c-0.1-1-0.1-1.9-0.1-2.5
						c0-0.5,0-1-0.1-1.4c-0.1-0.4-0.1-0.6-0.2-0.6c0-0.1,0-0.2,0-0.4c0-0.2,0-0.4,0-0.6c0-0.3,0-0.6-0.1-1c0-0.4-0.1-0.8-0.1-1.2
						l-0.1-1.4h-1.4c-0.9,0-1.3,0.1-1.4,0.3c-0.3,0-0.6,0-0.8,0c-0.4,0-1,0-1.8,0.1c-0.7,0.1-1.5,0.2-2.2,0.3
						c-0.7,0.1-1.4,0.2-1.9,0.3c-0.5,0.1-0.8,0.2-0.8,0.2c0,0.1-0.1,0.1-0.3,0.1h-0.4v7.8c0,3.9,0,6.7-0.1,8.6
						c-0.1,1.9-0.2,2.8-0.3,2.8c0,0.5,0,1,0,1.4c0,0.9,0,1.3,0,1.4c0.1,0,0.2,0.1,0.3,0.3c-0.1,0.2,0,0.5,0.2,0.9
						c0.2,0.4,0.4,0.6,0.5,0.6c0.1,0.1,0.2,0.3,0.4,0.6c0.1,0.3,0.1,0.6,0.1,0.6c0,0.1-0.2,0.1-0.5,0.1s-0.7,0-1.1,0
						c-0.5,0-1.1,0-1.7,0.1c-0.2,0.2-0.8,0.3-1.8,0.3l-1.7,0.1l-0.3-0.4l-0.3-0.3l0.3-0.3c0.3-0.1,0.4-0.3,0.4-0.4
						c0.9-0.4,1.5-0.6,1.8-0.7c0.1,0,0.2,0,0.4-0.1c0-0.1,0-0.1,0-0.1s0-0.1,0.1-0.1h0.3v-4.1c-0.1-1.2-0.1-2.2-0.1-3
						c0-0.8-0.1-1.3-0.1-1.3c-0.1-7.2-0.1-13.8-0.1-19.9l-0.1-19.9l-0.3-0.7c-0.1-0.2-0.2-0.5-0.3-0.9c0-0.1-0.1-0.1-0.4-0.1
						c-0.3,0-0.6,0-1,0L268.5,3V2.6c-0.1-0.3,0-0.5,0.3-0.6C269.1,1.9,269.8,1.9,270.9,1.9z"/>
					<path fill="#BEB3A9" d="M302.7,3.7c1.7-0.1,3.1-0.2,4.2-0.3c1.1-0.1,1.6-0.3,1.6-0.4c0.5-0.1,1-0.1,1.5-0.1
						c0.4,0,0.9,0.1,1.5,0.1c0,0.1,0.1,0.1,0.3,0.2c0.2,0.1,0.4,0.1,0.6,0.1c0.6,0.1,1.3,0.2,2,0.4c0.7,0.2,1.2,0.4,1.3,0.5
						c0.2,0.2,0.4,0.3,0.6,0.3c0.3,0.1,0.6,0.4,1,0.9c0.4,0.5,0.7,1,0.9,1.5c0.1,0.2,0.2,0.5,0.3,0.7c0.1,0.2,0.2,0.4,0.2,0.5
						c0,0.1,0,0.1,0,0.1s0,0.1,0.1,0.1c0.1,0,0.2,0.3,0.3,0.9c0.1,0.5,0.2,1.2,0.3,2c0.1,0.8,0.2,1.6,0.3,2.5
						c0.1,0.9,0.1,1.7,0.1,2.4c0,0.6,0,1.3-0.1,2c-0.1,0.7-0.1,1.3-0.2,1.9c-0.1,0.6-0.2,1.1-0.3,1.5c-0.1,0.4-0.2,0.6-0.3,0.7
						c-0.1,0.1-0.3,0.4-0.4,0.9c-0.3,0.6-0.5,0.9-0.6,1c-0.2,0.2-0.4,0.6-0.7,1.2c-0.1,0.1-0.3,0.4-0.7,0.9
						c-0.4,0.4-0.9,0.8-1.4,1.2c-0.1,0.1-0.2,0.2-0.4,0.3c-0.2,0.1-0.4,0.2-0.5,0.3c-1,0.4-0.9,0.6,0.3,0.7c1.5,0.1,2.4,0.4,2.9,0.9
						c0.1,0.2,0.3,0.3,0.4,0.3c0.1,0,0.3,0.2,0.7,0.7c0.4,0.5,0.6,0.7,0.6,0.8c0,0.2,0.1,0.3,0.3,0.5c0.2,0.1,0.3,0.3,0.3,0.4
						c0,0.2,0.1,0.3,0.3,0.3c0.1,0,0.3,0.3,0.6,0.7c0.1,0.3,0.3,0.6,0.4,0.8c0.1,0.1,0.2,0.2,0.3,0.4c0.1,0.2,0.2,0.4,0.3,0.6
						c0.3,0.5,0.4,0.8,0.4,1c0.1,0,0.1,0.1,0.2,0.3c0.1,0.2,0.1,0.4,0.2,0.6l0.3,0.9v3.1c0,1.3,0,2.2,0,2.8c0,0.6-0.1,1.1-0.3,1.6
						c-0.1,0.4-0.2,0.8-0.3,1.3c-0.1,0.2-0.3,0.6-0.4,1.2c-0.3,0.6-0.5,1-0.6,1.2c-0.1,0.2-0.3,0.4-0.4,0.8
						c-0.1,0.1-0.1,0.2-0.2,0.4c-0.1,0.2-0.1,0.3-0.2,0.4c-0.1,0.2-0.4,0.6-0.9,1.1c-0.4,0.5-0.7,0.7-0.8,0.7c-0.1,0-0.3,0-0.4,0.3
						c-0.2,0.1-0.6,0.3-1.1,0.6c-0.5,0.2-0.8,0.3-1,0.3c-0.2,0.1-0.3,0.1-0.3,0.1c0.1,0.1-0.2,0.3-0.8,0.4c-0.6,0.1-1.4,0.2-2.5,0.4
						c-0.5,0-1,0-1.4,0.1c-0.4,0.1-0.6,0.1-0.7,0.2c-0.1,0.1-0.7,0.2-2,0.3c-1.2,0.1-2.5,0.2-3.9,0.2H302v-0.6c0-0.3,0-0.5,0-0.6
						c0.1,0,0.2-0.1,0.2-0.4v-0.4l0.3,0.1c0.2,0.1,0.5,0,0.8-0.2c0.3-0.2,0.5-0.4,0.6-0.6c0-0.2,0-0.6,0-1.2c0-0.5,0-1.1-0.1-1.7
						c0-0.6,0-1.2,0-1.7c0-0.5,0-0.9,0-1.2c0-0.3,0-0.8-0.1-1.6c0-0.8-0.1-1.6-0.1-2.5c0-2.1-0.1-3.2-0.3-3.3c-0.1,0-0.1-0.1,0-0.1
						c0.3-0.2,0.4-0.3,0.2-0.3c-0.1-0.1-0.1-0.3-0.2-0.7c0-0.4-0.1-1-0.2-1.6c0-1.6-0.1-3.4-0.2-5.6c-0.1-2.2-0.2-4.3-0.3-6.3
						c-0.1-2-0.2-3.7-0.3-5.1c-0.1-1.4-0.2-2.1-0.2-2.1c0-0.1,0-0.5-0.1-1.4c-0.1-0.9-0.1-1.9-0.1-3.1c-0.1-1.3-0.1-2.4-0.2-3.5
						c0-1-0.1-1.7-0.1-1.9l-0.1-0.9l-0.9-0.3c-0.2,0-0.5-0.1-0.7-0.2c-0.2-0.1-0.4-0.2-0.5-0.3c-0.3-0.1-0.5-0.2-0.6-0.3
						c0,0-0.1-0.1-0.3-0.4c-0.1-0.1,0-0.4,0.1-0.7c0.1-0.3,0.3-0.6,0.5-0.6c0.1,0,0.5,0,1.2-0.1C300.9,3.7,301.8,3.7,302.7,3.7z
						 M312.1,4.4c0,0-0.1-0.1-0.3-0.3c-0.1-0.1-0.6-0.2-1.3-0.2c-1.7,0-2.5,0.1-2.5,0.2c0,0.2-0.2,0.3-0.5,0.3c-0.1,0-0.3,0-0.6,0.1
						c-0.2,0.1-0.4,0.1-0.6,0.2l-0.6,0.3l0.1,0.9c0,0.3,0,1.1,0.1,2.5c0.1,1.4,0.1,2.9,0.2,4.5s0.2,3.6,0.3,6c0,0,0.1,0.4,0.2,1.1
						c0.1,0.7,0.2,1.5,0.3,2.5c0.1,0.9,0.2,1.9,0.3,2.8c0.1,0.9,0.2,1.6,0.2,2.1c0,0.9,0.1,1.4,0.3,1.6c0.2,0.1,0.6,0.2,1.4,0.2
						c0.5-0.1,1.1-0.2,1.8-0.3c0.7-0.1,1-0.3,1-0.4c0,0,0.1-0.1,0.4-0.3c0.3-0.1,0.5-0.3,0.6-0.4c0-0.2,0.1-0.3,0.3-0.3
						c0.1,0,0.5-0.2,0.9-0.7c0.5-0.5,0.8-0.9,1-1.2c0.1-0.3,0.3-0.6,0.4-0.7c0,0,0.1-0.1,0.2-0.3c0.1-0.2,0.2-0.4,0.3-0.7
						c0.1-0.3,0.2-0.5,0.2-0.8c0.1-0.3,0.1-0.5,0.1-0.6c0-0.2,0.1-0.3,0.1-0.3c0.1,0,0.3-0.4,0.3-1.3c0.1-0.8,0.1-1.7,0.1-2.6
						c0-0.4,0-0.9,0-1.5c0-0.5,0-1-0.1-1.5c-0.1-0.5-0.1-0.9-0.2-1.2c-0.1-0.3-0.1-0.5-0.2-0.5c0-0.1-0.1-0.3-0.1-0.4
						c0-0.1,0-0.4-0.1-0.9c-0.1-0.4-0.2-0.9-0.3-1.3c-0.1-0.4-0.2-1-0.4-1.7c-0.2-0.2-0.3-0.4-0.3-0.8c-0.2-0.4-0.5-1.1-0.9-1.9
						c-0.1,0-0.2-0.1-0.3-0.3c-0.1-0.2-0.5-0.6-1-1C312.6,4.6,312.2,4.4,312.1,4.4z M313.6,30.4c-0.1,0-0.4-0.1-0.9-0.3
						c-0.1,0-0.4-0.1-0.8-0.1c-0.4,0-0.7-0.1-1.1-0.1c-0.4,0-0.7,0-1.1,0s-0.6,0-0.7,0c-0.1,0.1-0.3,0.1-0.6,0.1
						c-0.2,0-0.4,0.1-0.6,0.3l-0.3,0.3v0.9c0,0.6,0,0.9,0,1c0.1,0,0.2,0.5,0.3,1.6c0.1,1,0.2,2.3,0.4,3.8c0.1,1.5,0.3,2.8,0.4,3.8
						c0.1,1,0.2,1.6,0.2,1.6c0,0.1,0,0.6,0.1,1.6s0.1,2.1,0.2,3.5c0.1,1.3,0.3,2.5,0.3,3.5c0.1,1,0.1,1.5,0.2,1.6c0,0,0.3,0,0.7,0
						c0.5,0,1-0.1,1.5-0.2c0.5-0.1,1-0.2,1.5-0.3c0.5-0.1,0.7-0.2,0.7-0.3c0.1,0,0.1,0,0.1-0.1c0,0,0.1-0.1,0.1-0.1
						c0.3,0.1,0.6,0,1-0.1c0.3-0.2,0.6-0.4,0.7-0.6c0.1-0.2,0.3-0.4,0.4-0.6c0.1-0.1,0.2-0.2,0.3-0.5c0.1-0.3,0.2-0.5,0.3-0.8
						c0.1-0.3,0.2-0.6,0.3-0.9c0.1-0.3,0.1-0.5,0.1-0.6c0-0.2,0.1-0.3,0.1-0.3c0.1,0,0.3-0.4,0.4-1.2c0.1-0.8,0.2-1.8,0.2-2.9
						c0.1-0.7,0.1-1.4,0-2c-0.1-0.6-0.1-1.3-0.2-2c-0.1-0.5-0.1-1-0.2-1.4s-0.1-0.6-0.2-0.6c-0.1-0.5-0.2-0.8-0.3-1
						c-0.1-0.6-0.2-1.2-0.4-1.7c-0.2-0.6-0.4-0.9-0.5-1.1c-0.1-0.1-0.3-0.5-0.6-0.9c-0.1-0.3-0.3-0.5-0.4-0.6c0,0,0,0,0-0.1
						c0-0.1-0.2-0.3-0.5-0.7c-0.3-0.4-0.6-0.7-0.8-0.9C313.8,30.7,313.6,30.6,313.6,30.4z"/>
					<path fill="#BEB3A9" d="M335.5,2c0-0.2,0.1-0.3,0.4-0.4c0.2,0,0.6,0,1.2,0l1-0.1l-0.7,0.7c-0.2,0-0.6,0.1-1.2,0.4
						c-0.7,0.3-1.1,0.5-1.4,0.6c-0.1,0.2-0.2,0.3-0.3,0.3c-0.1,0-0.2,0-0.2,0c-0.1,0-0.3,0.1-0.6,0.4s-0.5,0.6-0.7,0.9
						c-0.2,0.3-0.5,0.7-0.6,1c-0.2,0.3-0.3,0.6-0.3,0.7c0,0.2,0,0.3,0,0.4c-0.1,0-0.2,0.3-0.3,0.9c-0.1,0.6-0.2,1.3-0.3,2.2
						c-0.1,0.9-0.2,1.8-0.2,2.8c0,1-0.1,1.8-0.1,2.6c0,0.5,0,1.2-0.1,1.9c-0.2,0-0.3,2.2-0.3,6.6c0,1.8,0,4,0.1,6.6
						c0.1,0,0.1,0.5,0.1,1.4c0,1,0.1,2.1,0.2,3.4c0,1.2,0,2.4,0.1,3.5s0.1,2.2,0.2,3.1c0.1,0.9,0.2,1.6,0.3,2.2
						c0.1,0.5,0.2,0.8,0.3,0.8c0-0.1,0,0,0.1,0.3c0.1,0.3,0.1,0.6,0.1,0.9c0,0.5,0,1.1,0.1,1.8c0.1,0.7,0.1,1.4,0.3,2
						c0.1,0.7,0.2,1.2,0.4,1.7c0.1,0.5,0.2,0.7,0.3,0.7c0-0.1,0,0,0.1,0.3c0.1,0.3,0.2,0.5,0.4,0.8c0.1,0.4,0.2,0.8,0.3,1.2
						c0.1,0,0.2,0.1,0.3,0.2c0.1,0.1,0.3,0.2,0.4,0.3c0.2,0.2,0.7,0.4,1.4,0.6c0.7,0.1,1.3,0.1,1.8,0c0.5,0,0.8-0.1,0.9-0.3
						c0-0.1,0.1-0.2,0.2-0.3c0.1-0.1,0.3-0.2,0.5-0.3c0.1-0.1,0.3-0.3,0.4-0.4c0.1-0.1,0.2-0.2,0.2-0.3c0-0.2,0.1-0.3,0.3-0.5
						c0.1-0.1,0.2-0.2,0.3-0.3c0.1-0.1,0.2-0.3,0.2-0.4c0.2-0.3,0.3-0.6,0.5-0.9c0-0.1,0.1-0.2,0.2-0.3c0.1-0.1,0.3-0.3,0.4-0.4
						c0.1-0.1,0.1-0.2,0.2-0.5s0.2-0.5,0.3-0.8c0.1-0.2,0.2-0.5,0.2-0.7c0.1-0.2,0.2-0.3,0.3-0.3c0.1-0.5,0.2-1,0.3-1.3
						c0.1-0.4,0.2-0.7,0.3-1.1c0.1-0.3,0.1-0.6,0.1-0.7c0-0.1,0-0.1,0.1-0.1c0,0,0.1-0.1,0.1-0.2c0.1,0,0.2-0.5,0.4-1.4
						c0.1-0.9,0.2-2,0.3-3.3c0.1-1.3,0.2-2.7,0.2-4.1c0.1-1.4,0.1-2.7,0.1-3.7c0-1.4,0.1-2.2,0.3-2.2c0-1,0-1.9,0-2.8
						c0-0.8,0-1.9,0-3.1c-0.1,0-0.2-0.2-0.2-0.7c0-0.4-0.1-1-0.1-1.6c0-0.6,0-1.5-0.1-2.4c-0.1-1-0.2-1.9-0.3-2.9
						c-0.1-0.9-0.2-1.7-0.3-2.4c-0.1-0.7-0.2-1-0.2-1c-0.1-0.1-0.2-0.3-0.3-0.7c-0.1-0.4-0.2-0.9-0.2-1.4c-0.1-0.5-0.3-1.2-0.5-1.9
						c-0.1-0.1-0.2-0.1-0.2-0.2c0-0.1-0.1-0.2-0.1-0.3V9.4l-1.2,0.2c-0.4,0-0.7,0-1,0.1c-0.3,0.1-0.4,0.1-0.4,0.2
						c-0.4,0.1-0.8,0.1-1,0.1c-0.4,0-0.7,0-1-0.1c-0.3-0.1-0.4-0.1-0.4-0.2c-0.1,0-0.2,0-0.3,0c-0.2,0-0.5-0.1-1-0.4
						c-0.5-0.3-0.7-0.5-0.7-0.7c-0.3-0.2-0.4-0.4-0.5-0.5l-0.5-0.5L335,7c0-0.3,0.1-0.6,0.3-0.9c0.1-0.3,0.2-0.6,0.3-0.7
						c0.1-0.2,0.4-0.5,0.8-0.8c0.4-0.3,0.7-0.4,1-0.4c0.2,0,0.3,0,0.3-0.2c0-0.1,0.5-0.2,1.4-0.1c0.9,0,1.4,0,1.4,0.1
						c0,0.2,0.1,0.3,0.3,0.4c0.1,0,0.3,0.2,0.8,0.5c0.4,0.4,0.7,0.6,0.8,0.7c0,0.1,0.2,0.4,0.5,0.7l0.5,0.7l0.4-0.2
						c0.3,0,0.5-0.1,0.5-0.3c0.1,0,0.2-0.1,0.4-0.2c0.2-0.1,0.4-0.2,0.7-0.3c0.5-0.3,0.8-0.5,0.9-0.6c0.2-0.1,0.5-0.4,1-0.7
						c0.5-0.3,0.9-0.6,1-0.7c0.2-0.2,0.3-0.3,0.5-0.3c0.1,0,0.1,0,0.2,0c0.1,0,0.1,0.1,0,0.1c-0.1,0.2-0.3,0.5-0.7,1
						c-0.4,0.5-0.6,0.7-0.7,0.7c-0.1,0-0.4,0.1-0.7,0.4c-0.3,0.3-0.7,0.6-1.1,0.9c-0.4,0.3-0.7,0.6-1,0.9c-0.3,0.3-0.4,0.5-0.4,0.6
						c0,0.1,0,0.3,0.1,0.6c0.1,0.3,0.2,0.6,0.3,1c0.1,0.3,0.2,0.6,0.4,0.9c0.1,0.3,0.4,0.9,0.8,1.8c0.1,0.4,0.2,0.8,0.4,1.2
						c0,0.1,0.1,0.3,0.2,0.7c0.1,0.4,0.3,0.8,0.4,1.2c0.1,0.4,0.3,0.9,0.4,1.3c0.1,0.4,0.2,0.8,0.2,1.3c0.1,0,0.1,0.1,0.1,0.4
						s0.1,0.5,0.2,0.9c0,0.4,0,1,0.1,1.8c0.1,0.8,0.1,1.7,0.2,2.5c0.1,1.7,0.2,3.5,0.2,5.6c0,2.1,0,3.8-0.1,5.1
						c-0.1,0.5-0.2,1.2-0.3,2c-0.1,0.8-0.1,1.5-0.2,2.1c0,0.7,0,1.3-0.1,1.8s-0.1,0.8-0.2,0.8c0,0.2,0,0.3,0,0.5
						c-0.1,0.2-0.2,0.6-0.3,1.1c-0.1,0.5-0.2,1.1-0.4,1.7c-0.1,0.6-0.2,1.1-0.3,1.6c-0.1,0.5-0.1,0.7-0.1,0.7
						c-0.1,0-0.2,0.1-0.3,0.4c-0.1,0.2-0.2,0.5-0.3,0.7c-0.2,0.7-0.3,1.1-0.5,1.2c-0.1,0.2-0.4,0.7-0.7,1.4c-0.2,0.4-0.3,0.7-0.5,1
						c-0.1,0.3-0.3,0.5-0.3,0.6c-0.1,0.2-0.3,0.4-0.6,0.6c0,0.1-0.2,0.4-0.7,0.9c-0.5,0.5-0.9,0.9-1.4,1.3c-0.2,0.2-0.4,0.4-0.8,0.6
						c-0.4,0.2-0.7,0.4-0.9,0.5c-0.2,0-0.3,0.1-0.4,0.4c0,0.1-0.3,0.2-1,0.4c-0.7,0.2-1.3,0.3-1.9,0.3c-0.6,0-1.2-0.1-1.8-0.3
						c-0.5-0.2-0.9-0.4-1.2-0.6c-0.2-0.2-0.6-0.5-1.2-1c-0.5-0.4-0.9-0.7-1.1-0.9c-0.1,0-0.2-0.1-0.4-0.3c-0.2-0.2-0.5-0.5-0.7-0.7
						c-0.2-0.3-0.5-0.6-0.7-0.8c-0.2-0.3-0.3-0.4-0.4-0.5c0-0.2-0.1-0.3-0.3-0.3c-0.1,0.1-0.2,0-0.4-0.4c-0.1-0.4-0.3-0.8-0.3-1.3
						c-0.1-0.2-0.2-0.6-0.3-1c-0.1,0-0.2-0.2-0.3-0.5c-0.1-0.3-0.2-0.8-0.2-1.3c-0.2-0.4-0.3-0.8-0.4-1.2c-0.1-0.3-0.2-0.5-0.3-0.5
						c-0.1-0.1-0.2-0.5-0.3-1.2c-0.1-0.7-0.2-1.6-0.3-2.7c-0.1-1-0.2-2.1-0.3-3.2c-0.1-1.1-0.1-2,0-2.8c0-0.3-0.1-0.7-0.2-1.2
						c-0.1,0-0.2-0.3-0.2-0.8c-0.1-0.5-0.1-1.1-0.1-1.8c-0.1-0.7-0.1-1.5-0.1-2.5s0-1.9,0-2.9c0-0.9,0.1-1.7,0.1-2.3
						c0.1-0.7,0.2-1,0.3-1c0-0.1,0-0.2,0.1-0.4c0.1-0.2,0.1-0.4,0.1-0.7c0-0.4,0-1.1,0.1-2c0.1-0.9,0.1-1.7,0.2-2.6
						c0.1-0.9,0.2-1.6,0.3-2.3c0.1-0.6,0.2-1,0.3-1c0.2-0.2,0.3-0.7,0.5-1.4c0.3-0.9,0.5-1.4,0.5-1.4c0.1-0.2,0.4-0.8,0.7-1.8
						c0.1-0.4,0.2-0.9,0.5-1.4c0.1,0,0.2-0.1,0.3-0.3c0.1-0.2,0.3-0.5,0.4-0.7c0.1-0.2,0.1-0.5,0.2-0.7c0.1-0.2,0.2-0.3,0.3-0.3
						c0.2-0.2,0.4-0.4,0.5-0.7c0.1-0.1,0.3-0.3,0.4-0.4c0.1-0.1,0.2-0.2,0.3-0.2c0.9-0.8,1.5-1.4,1.9-1.7c0.1-0.1,0.5-0.4,1.2-0.6
						c0.6-0.3,1.1-0.4,1.2-0.4C335.4,2.2,335.4,2.1,335.5,2z M340.8,5.6c-0.1,0-0.3,0-0.5-0.2c-0.1-0.1-0.3-0.1-0.5-0.2
						c-0.3,0-0.5-0.1-0.8-0.1c-0.3,0-0.5,0-0.7,0c-0.2,0-0.3,0.1-0.3,0.2c-0.1,0.1-0.3,0.2-0.3,0.2c-0.3,0-0.5,0.1-0.7,0.4
						c-0.2,0.2-0.3,0.5-0.3,0.9c0,0.7,0.2,1.2,0.7,1.4c0.5,0.2,1.2,0.3,2.3,0.2c0.8-0.1,1.5-0.2,2-0.4c0.5-0.2,0.8-0.3,0.8-0.5
						c0-0.1,0-0.2-0.1-0.4c-0.1-0.2-0.3-0.4-0.4-0.7c-0.2-0.2-0.3-0.4-0.5-0.6C341,5.7,340.9,5.6,340.8,5.6z"/>
					<g>
						<g>
							<path fill="#BEB3A9" d="M383.2,23.8c0.7,0.2,1.1,0,1.5-0.6c2.4-3.8,4.8-7.6,7.2-11.4c0.8-1.3,1.6-2.5,2.3-3.8
								c-0.3-0.3-0.6-0.5-0.9-0.7c-0.3,0.4-0.5,0.7-0.7,1c-2.6,3.6-5.2,7.1-7.8,10.7c-0.2,0.2-0.3,0.5-0.5,0.7
								c-0.1,0.1-0.3,0.1-0.5,0.1c0-0.2-0.1-0.4-0.1-0.6c0.1-0.3,0.3-0.5,0.5-0.7c2.5-3.8,5-7.6,7.6-11.4c0.5-0.7,0.3-1-0.5-1.3
								c-0.2,0.3-0.5,0.7-0.7,1c-2.6,3.5-5.3,7-7.9,10.5c-0.2,0.3-0.4,0.5-0.6,0.8c-0.1,0.1-0.4,0.1-0.4,0c-0.1-0.1-0.1-0.3-0.1-0.5
								c0.1-0.3,0.3-0.6,0.5-0.8c2.6-3.7,5.2-7.5,7.9-11.2c0.1-0.2,0.2-0.4,0.4-0.7c-0.3-0.2-0.6-0.4-0.8-0.5
								c-3.4,4-6.5,8.3-9.9,12.2c-0.2-0.1-0.3-0.3-0.5-0.4c3.1-4.2,6.2-8.5,9.3-12.7c-0.5-0.4-0.8-0.6-1.1-0.8
								c-0.2,0.2-0.4,0.3-0.5,0.5c-3.7,4.5-7.4,9-11,13.6c-0.2,0.3-0.3,0.9-0.1,1.2c0.7,1.2,1.5,2.4,2.3,3.7
								c-0.9,0.8-1.2,2.4-2.6,2.1c-0.3,0.8-0.4,1.5-0.8,2c-1.3,1.6-2.6,3.2-3.9,4.9c-0.3-0.4-0.4-1-0.4-1.9
								c-0.1-1.4-0.2-2.9-0.5-4.3c-1.2-5.2-3.9-9.5-7.2-13.4c-2.4-2.8-5-5.3-8.3-7c-0.5-0.3-1.2-0.1-1.8-0.2
								c0.1,0.6,0.2,1.2,0.4,1.7c5,8.4,10.1,16.7,15.2,25.1c0.4,0.6,0.9,1.2,1,2c-0.3,0.3-0.5,0.6-0.8,0.9
								c-4.6,5.7-9.2,11.3-13.9,17c-0.9,1.1-1.1,2.2-0.3,3.5c1,1.8,3.5,1.9,4.7,0.2c0.6-0.8,1.2-1.7,1.7-2.5
								c3.5-5.3,6.9-10.6,10.4-15.9c0.2,0.4,0.4,0.7,0.6,1.1c3.1,5.9,6.3,11.8,9.4,17.7c0.7,1.3,2,1.7,3.3,1.2
								c1.4-0.5,2.3-2.9,1.5-4c-4.1-5.9-8.3-11.7-12.4-17.6c-0.2-0.3-0.5-0.6-0.7-1c1.2-1.8,2.3-3.5,3.5-5.3c0.5-0.8,0.9-2,2.3-1.7
								c-0.9-1.8,0.7-2.5,1-3.6C380.7,22.9,381.9,23.3,383.2,23.8z M361.1,12.8c-1.1-1.5-1.2-1.5-2.9-0.8c-1.4-2.3-2.8-4.6-4.2-7
								c3.8,0.9,12.6,11.8,13.5,16.5C365.4,18.8,363.3,15.7,361.1,12.8z M357.1,51.6c-0.8-0.7-0.9-1.3-0.4-2.1
								c4.2-5.2,8.4-10.4,12.6-15.6c0.1,0,0.2,0,0.2,0C365.4,39.8,361.3,45.7,357.1,51.6z M374,36.9c2.5,3.7,5.1,7.3,7.6,11
								c0.5,0.7,1,1.4,1.5,2.1c0.5,0.7,0.4,1.3-0.3,2c-3.1-5-6.1-10-9.1-15C373.8,37,373.9,36.9,374,36.9z M376.8,17.4
								c-0.1-0.2-0.1-0.7,0-0.9c1.6-2,3.1-3.9,4.7-5.8c0.1,0.1,0.1,0.1,0.2,0.2c-1.3,1.8-2.6,3.6-4,5.5c2.2,1.8,4.3,3.5,6.4,5.1
								c-0.3,1-0.8,1.2-1.7,0.9C379.9,21.6,378.1,19.8,376.8,17.4z"/>
						</g>
					</g>
				</g>
				<g>
					<path fill="#BEB3A9" d="M425.2,55.9c-2,0.9-3.7,1.2-5,0.7c-1.4-0.4-2.2-1.8-2.5-4c-0.3-2.3,0-5.6,1-10c1-4.4,2.8-10.2,5.5-17.3
						c-1.6,0.4-2.9,0.6-4,0.5s-1.9-0.4-2.5-1c-0.6-0.5-1-1.3-1.1-2.2c-0.1-0.9,0-2,0.4-3.2c0-0.4,0.1-0.8,0.4-1
						c0.3-0.3,0.6-0.4,0.9-0.4c0.3,0,0.6,0,0.8,0.2c0.2,0.2,0.3,0.5,0.1,0.9c-0.1,0.2-0.2,0.5-0.3,0.9c-0.1,0.4-0.2,0.8-0.2,1.3
						c0,0.4,0,0.9,0.2,1.3c0.1,0.4,0.4,0.7,0.9,0.9c0.5,0.2,1.1,0.2,2,0.1c0.9-0.1,2-0.5,3.4-1.2c1.1-3.7,2.3-6.9,3.6-9.7
						c1.3-2.8,2.7-5,4.1-6.9c1.4-1.8,2.8-3.2,4.1-4.1c1.3-0.9,2.5-1.4,3.6-1.4c1.1,0,2,0.4,2.7,1.3c0.7,0.9,1.2,2.2,1.3,4
						c0.1,1.3-0.1,2.5-0.7,3.8c-0.6,1.3-1.3,2.5-2.3,3.8c-1,1.3-2,2.4-3.2,3.6c-1.2,1.1-2.3,2.2-3.5,3.2c-1.1,1-2.1,1.8-3,2.6
						s-1.5,1.4-1.9,1.8c-1.4,4.5-2.7,8.3-3.7,11.4c-1,3.1-1.8,5.7-2.4,7.8c-0.6,2.1-1.1,3.7-1.3,4.9c-0.3,1.2-0.4,2.1-0.4,2.7
						c0,0.6,0.2,1,0.4,1.2c0.3,0.2,0.6,0.3,1,0.4c0.7,0.1,1.6,0,2.7-0.4c1.1-0.4,2.3-0.9,3.7-1.6c1.3-0.7,2.7-1.6,4.2-2.6
						c1.5-1,2.9-2,4.2-3.2c1.4-1.1,2.6-2.2,3.8-3.4c1.2-1.2,2.1-2.3,2.9-3.3c0.2-0.3,0.4-0.5,0.7-0.5c0.3-0.1,0.5-0.1,0.8,0
						c0.2,0.1,0.4,0.2,0.5,0.4c0.1,0.2,0.2,0.5,0.1,0.9c-0.7,1.3-1.8,2.7-3.3,4.3c-1.5,1.5-3.3,3.1-5.3,4.6c-2,1.5-4.2,3-6.5,4.4
						C429.8,53.7,427.5,54.9,425.2,55.9z M442.4,5.7c-0.1-1.1-0.3-1.7-0.7-1.9c-0.4-0.2-0.9,0-1.6,0.6c-0.6,0.6-1.3,1.4-2.1,2.5
						c-0.8,1.1-1.5,2.4-2.2,3.7c-0.7,1.4-1.4,2.8-2.1,4.3c-0.7,1.5-1.2,2.9-1.6,4.2c1.2-0.8,2.5-1.7,3.7-2.9
						c1.3-1.2,2.4-2.3,3.3-3.6c1-1.2,1.8-2.5,2.4-3.7C442.1,7.7,442.4,6.6,442.4,5.7z"/>
					<path fill="#BEB3A9" d="M446.4,56.4c-1.5-0.5-2.6-1.3-3.4-2.4c-0.8-1.1-1.2-2.4-1.4-3.8c-0.2-1.5-0.1-3,0.1-4.7
						c0.3-1.7,0.8-3.3,1.5-5c1.1-2.8,2.4-5.2,3.9-7.3c1.5-2.1,3-3.8,4.6-5.2c1.6-1.4,3-2.5,4.5-3.2c1.4-0.7,2.6-1.1,3.6-1.1
						c0.7-0.2,1.3-0.1,1.8,0.2c0.6,0.3,1,0.7,1.4,1.3c0.4,0.6,0.6,1.2,0.8,1.9c0.2,0.7,0.2,1.4,0.1,2.1c0.5-0.5,0.9-1.2,1.2-2.1
						c0.3-0.9,0.7-1.6,1.1-2.4c0.2-0.4,0.5-0.6,0.8-0.7c0.3-0.1,0.6,0,1,0.1c0.3,0.2,0.6,0.4,0.9,0.8c0.3,0.4,0.5,0.8,0.6,1.3
						c-1.9,5.3-3.4,9.7-4.7,13.1c-1.2,3.4-2.2,6.2-2.8,8.2c-0.6,2-0.9,3.4-1,4.2c0,0.8,0.3,1.3,0.9,1.3c1-0.2,2.1-0.6,3.3-1.4
						c1.2-0.8,2.4-1.7,3.6-2.8c1.2-1.1,2.3-2.3,3.4-3.5c1.1-1.3,2.1-2.5,3-3.6c0.5-0.7,1-1.3,1.3-1.8c0.4-0.6,0.7-1.1,1-1.5
						c0.7,0,1.1,0.2,1.2,0.6c0.1,0.4,0.1,0.8-0.1,1.2c-0.3,0.4-0.7,0.8-1.1,1.3c-0.4,0.5-0.8,1-1.3,1.6c-1,1.2-2.2,2.6-3.5,4.1
						c-1.3,1.5-2.6,2.9-4.1,4.1c-1.5,1.3-3,2.4-4.6,3.3c-1.6,0.9-3.2,1.4-4.7,1.6c-0.9,0.2-1.5,0-2-0.6c-0.5-0.6-0.8-1.4-0.9-2.4
						c-0.1-1-0.1-2,0-3.1c0.1-1.1,0.3-2,0.6-2.7c-0.4,0.5-1,1.3-1.8,2.3c-0.8,1-1.6,2-2.6,3c-1,1-2,1.8-3.1,2.6
						C448.5,56.2,447.4,56.5,446.4,56.4z M460.3,27.1c-0.5-0.2-1.2,0.1-2.2,0.8c-1,0.7-2.1,1.7-3.3,3c-1.2,1.3-2.4,2.8-3.6,4.6
						c-1.2,1.8-2.3,3.6-3.2,5.4c-0.7,1.4-1.2,2.8-1.6,4.2c-0.4,1.4-0.6,2.7-0.7,3.8c-0.1,1.2,0,2.2,0.3,3c0.3,0.8,0.7,1.3,1.3,1.6
						c0.5,0.2,1.3-0.2,2.4-1.2c1.1-1,2.3-2.3,3.6-4c1.3-1.7,2.6-3.6,3.8-5.7c1.3-2.1,2.3-4.2,3.1-6.2c0.8-2,1.3-3.9,1.4-5.6
						C461.8,29.3,461.3,28,460.3,27.1z"/>
					<path fill="#BEB3A9" d="M490.7,48.5c-0.6,1.3-1.3,2.4-2.2,3.5c-0.9,1.1-1.9,1.9-3,2.7c-1.1,0.7-2.3,1.3-3.5,1.6
						c-1.2,0.4-2.3,0.4-3.4,0.3c-1.1-0.2-2-0.6-2.8-1.4c-0.8-0.7-1.4-1.8-1.8-3.3c-0.2-1.6-0.1-3.3,0.3-5.2c0.4-1.9,1-3.8,1.8-5.8
						c0.7-1.7,1.6-3.3,2.5-4.9c1-1.6,2-3.1,3.1-4.4c1.1-1.4,2.3-2.5,3.5-3.5c1.2-1,2.4-1.7,3.7-2.2c1.2-0.5,2.4-0.6,3.6-0.4
						c1.2,0.2,2.2,0.8,3.2,1.8l6.7-22.9c0.2-0.6,0.6-1.1,1-1.4c0.4-0.3,0.9-0.4,1.3-0.3c0.5,0.1,0.9,0.3,1.2,0.7
						c0.3,0.4,0.5,0.9,0.6,1.6c-1.8,6.7-3.5,12.9-5,18.6c-1.6,5.7-2.8,10.7-3.9,15c-0.3,1.2-0.6,2.5-0.8,3.9
						c-0.2,1.4-0.4,2.8-0.5,4.1c-0.1,1.3-0.1,2.6-0.1,3.8c0,1.2,0.2,2.2,0.4,3c0.3,0.8,0.7,1.4,1.2,1.7c0.5,0.3,1.2,0.3,2.1,0
						c0.9-0.4,1.8-1,2.7-1.9c0.9-0.9,1.7-1.9,2.6-3.1c0.8-1.2,1.6-2.4,2.4-3.6c0.8-1.3,1.4-2.4,2.1-3.5c0.6-1.1,1.1-2.1,1.6-2.9
						c0.4-0.8,0.8-1.4,1-1.7c0.5-0.1,0.8,0,1,0.2c0.2,0.3,0.2,0.8,0,1.5c-0.8,1.1-1.6,2.5-2.6,4.2c-1,1.8-2,3.5-3.2,5.3
						c-1.2,1.8-2.4,3.4-3.7,4.8c-1.3,1.4-2.7,2.3-4.2,2.7c-2.9,0.2-5-0.6-6.4-2.2C491.7,53.5,490.9,51.3,490.7,48.5z M489.7,28.3
						c-1,0.7-1.9,1.6-2.8,2.6c-0.9,1-1.7,2.1-2.5,3.3c-0.8,1.2-1.5,2.4-2.1,3.7c-0.6,1.3-1.1,2.6-1.6,3.8c-0.5,1.5-0.8,2.9-1,4.3
						c-0.2,1.4-0.3,2.7-0.1,3.8c0.1,1.1,0.5,2.1,1,2.9c0.5,0.8,1.3,1.3,2.2,1.5c0.7,0.1,1.5-0.3,2.4-1.2c0.9-0.9,1.8-2,2.7-3.5
						c0.9-1.5,1.8-3.1,2.7-4.9c0.9-1.8,1.6-3.7,2.2-5.5c0.6-1.7,1-3.4,1.3-5c0.3-1.6,0.4-3,0.3-4.1c-0.1-0.5-0.4-0.9-0.7-1.3
						c-0.4-0.3-0.8-0.5-1.2-0.7c-0.4-0.1-0.9-0.1-1.4-0.1C490.5,27.9,490.1,28.1,489.7,28.3z"/>
					<path fill="#BEB3A9" d="M524.5,45.7c-0.6,0.9-1.3,2-2.2,3.3c-0.9,1.3-1.9,2.5-3.1,3.7c-1.2,1.2-2.5,2.2-3.9,3
						c-1.5,0.8-3,1.1-4.7,1c-0.9-0.2-1.5-0.7-1.9-1.7c-0.4-1-0.6-2.2-0.6-3.7c0-1.5,0.1-3.1,0.3-4.9c0.3-1.8,0.6-3.7,1-5.6
						c0.4-1.9,0.9-3.7,1.4-5.6c0.5-1.8,1-3.5,1.5-5c0.5-1.5,0.9-2.7,1.3-3.7c0.4-1,0.7-1.6,0.9-1.8c0.2-0.4,0.6-0.8,1-1
						c0.4-0.2,0.8-0.3,1.3-0.3c0.4,0,0.8,0.2,1.2,0.4c0.4,0.3,0.6,0.6,0.7,1.1c-2.1,5.9-3.7,10.7-4.7,14.4c-1,3.7-1.7,6.6-2,8.7
						c-0.3,2.1-0.3,3.5,0,4.3c0.3,0.8,0.7,1.1,1.1,1c0.9-0.1,1.7-0.4,2.6-0.9c0.9-0.5,1.7-1.2,2.6-2.2c0.9-1,1.8-2.3,2.7-4
						c1-1.6,2-3.7,3-6.1c1.1-2.4,2-4.9,2.7-7.4c0.7-2.6,1.4-5.3,2.1-8.2c0.1-0.5,0.4-0.8,1-1.1c0.5-0.2,1.1-0.3,1.7-0.2
						c0.6,0.1,1.1,0.3,1.6,0.7c0.5,0.4,0.7,1.1,0.7,1.9l-5.3,28c1-0.6,2.1-1.3,3.3-2.1c1.1-0.8,2.2-1.8,3.3-2.8c1.1-1,2.1-2,3.1-3.1
						c1-1.1,1.9-2,2.7-3c0.8-0.9,1.5-1.8,2-2.5c0.6-0.7,0.9-1.3,1.1-1.6c0.5-0.3,0.9-0.5,1.3-0.4c0.4,0,0.6,0.1,0.8,0.4
						c0.2,0.2,0.3,0.5,0.3,0.9c0,0.3-0.1,0.6-0.2,0.9c-2.5,3.2-4.7,5.7-6.6,7.6c-1.8,1.9-3.4,3.4-4.8,4.6c-1.4,1.2-2.6,2.2-3.7,2.9
						c-1.1,0.7-2.1,1.5-3.2,2.4c-0.4,4.2-0.9,7.7-1.5,10.5c-0.7,2.8-1.4,5.2-2.3,6.9c-0.9,1.8-1.8,3.1-2.8,4.1
						c-1,0.9-2.1,1.5-3.3,1.9s-2.3,0.5-3.5,0.4c-1.2-0.1-2.3-0.2-3.4-0.5c-0.4-0.1-1.1-0.3-2-0.7c-0.9-0.4-1.7-0.9-2.3-1.7
						c-0.7-0.8-1.1-1.7-1.2-2.9c-0.1-1.2,0.3-2.7,1.3-4.5c1-1.8,2.7-3.9,5.1-6.3c2.4-2.4,5.9-5.2,10.4-8.4L524.5,45.7z M511.3,79
						c1.5,0.4,2.8,0.2,3.9-0.4c1.1-0.6,2.1-1.5,2.9-2.6c0.8-1.2,1.5-2.5,2-4c0.5-1.5,0.9-3,1.3-4.5c0.3-1.5,0.6-2.8,0.8-4
						c0.2-1.2,0.4-2.1,0.5-2.7c-0.9,0.4-2,1.2-3.3,2.1c-1.3,1-2.6,2.1-3.8,3.4c-1.3,1.3-2.5,2.6-3.5,3.9c-1.1,1.4-1.9,2.6-2.4,3.8
						c-0.5,1.2-0.7,2.2-0.5,3.1C509.2,78.1,509.9,78.7,511.3,79z"/>
				</g>
			</g>
		</g>
	</g>
</g>
</svg>
